<?xml version="1.0" encoding="UTF-8" standalone="no"?>
<svg xmlns:rdf="http://www.w3.org/1999/02/22-rdf-syntax-ns#" xmlns="http://www.w3.org/2000/svg" height="431.44pt" width="475.92pt" version="1.1" xmlns:cc="http://creativecommons.org/ns#" xmlns:xlink="http://www.w3.org/1999/xlink" viewBox="0 0 475.91708 431.43884" xmlns:dc="http://purl.org/dc/elements/1.1/">
 <defs>
  <symbol id="b" overflow="visible">
   <path d="m3.4062-2.875v-0.875h-2.8594v0.875z"/>
  </symbol>
  <symbol id="c" overflow="visible">
   <path d="m4.1562 0v-8.5156h-0.6875c-0.375 1.3125-0.60938 1.5-2.25 1.7031v0.75h1.8906v6.0625z"/>
  </symbol>
  <symbol id="t" overflow="visible">
   <path d="m6.125-6.0156c0-1.4375-1.1094-2.5-2.7188-2.5-1.7344 0-2.75 0.89062-2.8125 2.9531h1.0625c0.078125-1.4219 0.67188-2.0156 1.7188-2.0156 0.95312 0 1.6719 0.67188 1.6719 1.5938 0 0.67188-0.39062 1.25-1.1406 1.6719l-1.1094 0.625c-1.7813 1.0155-2.2969 1.8124-2.3906 3.6874h5.6719v-1.0469h-4.4844c0.10938-0.6875 0.5-1.1406 1.5312-1.75l1.2031-0.6406c1.1875-0.6406 1.7969-1.5313 1.7969-2.5781z"/>
  </symbol>
  <symbol id="a" overflow="visible">
   <path d="m6.0781-4.0938c0-2.9531-0.9375-4.4219-2.7812-4.4219-1.8281 0-2.7812 1.5-2.7812 4.3594s0.95312 4.3438 2.7812 4.3438c1.7969 0 2.7812-1.4844 2.7812-4.2812zm-1.0781-0.0937c0 2.4062-0.54688 3.4844-1.7188 3.4844-1.125 0-1.6875-1.125-1.6875-3.4531s0.5625-3.4219 1.7031-3.4219c1.1407 0 1.7032 1.1093 1.7032 3.3906z"/>
  </symbol>
  <symbol id="s" overflow="visible">
   <path d="m6.1094-4.4531c0-2.6562-0.92188-4.0625-2.875-4.0625-1.6094 0-2.7812 1.1562-2.7812 2.8281 0 1.5781 1.0781 2.6562 2.625 2.6562 0.79688 0 1.3906-0.29688 1.9375-0.95312-0.0157 2.0782-0.6876 3.2344-1.8907 3.2344-0.75 0-1.2656-0.46875-1.4375-1.2969h-1.0469c0.20315 1.4063 1.1094 2.2344 2.4063 2.2344 2 0 3.0625-1.7031 3.0625-4.6406zm-1.1563-1.2657c0 1.0469-0.73438 1.75-1.7656 1.75-1.0156 0-1.6562-0.65625-1.6562-1.7969 0-1.0938 0.71875-1.8125 1.7031-1.8125 0.98438 0 1.7188 0.76562 1.7188 1.8594z"/>
  </symbol>
  <symbol id="r" overflow="visible">
   <path d="m6.1562-2.4062c0-0.9375-0.48438-1.6094-1.4688-2.0625 0.8751-0.5313 1.172-0.9688 1.172-1.7657 0-1.3438-1.0469-2.2812-2.5625-2.2812-1.5 0-2.5469 0.9375-2.5469 2.2812 0 0.78125 0.28125 1.2188 1.1406 1.7656-0.96875 0.45312-1.4531 1.125-1.4531 2.0625 0 1.5469 1.1875 2.5938 2.8594 2.5938 1.6875 0 2.8594-1.0469 2.8594-2.5938zm-1.375-3.8125c0 0.79688-0.59375 1.3281-1.4844 1.3281-0.89062 0-1.4688-0.53125-1.4688-1.3438 0-0.8125 0.57812-1.3438 1.4688-1.3438 0.90625 0 1.4844 0.53125 1.4844 1.3594zm0.29688 3.8281c0 1.0156-0.7187 1.6406-1.7969 1.6406-1.0312 0-1.75-0.64062-1.75-1.6406 0-1 0.71875-1.625 1.7656-1.625 1.0625 0 1.7812 0.625 1.7812 1.625z"/>
  </symbol>
  <symbol id="q" overflow="visible">
   <path d="m3.0469 0v-0.84375c-0.125 0.046875-0.28125 0.046875-0.48438 0.046875-0.42188 0-0.54688-0.10938-0.54688-0.5625v-4.1094h1.0312v-0.8125h-1.0312v-1.7344h-1v1.7344h-0.84375v0.8125h0.84375v4.5625c0 0.625 0.4375 0.98438 1.2188 0.98438 0.2344 0.000045 0.4844-0.01558 0.8125-0.07808z"/>
  </symbol>
  <symbol id="p" overflow="visible">
   <path d="m3.8594-5.4062v-1.0312c-0.1719-0.0157-0.2656-0.0314-0.3906-0.0314-0.65625 0-1.1406 0.39062-1.7188 1.3281v-1.1406h-0.90625v6.2812h1v-3.2656c0-1.4219 0.45312-2.125 2.0156-2.1406z"/>
  </symbol>
  <symbol id="o" overflow="visible">
   <path d="m1.8438 0v-6.2812h-1v6.2812zm0.125-7.2344v-1.25h-1.25v1.25z"/>
  </symbol>
  <symbol id="z" overflow="visible">
   <path d="m6.2812-3.0781c0-2.125-1.0312-3.3906-2.7031-3.3906-0.85938 0-1.5312 0.39062-2 1.125v-0.9375h-0.92188v8.8906h1v-3.3594c0.53125 0.64062 1.1094 0.9375 1.9375 0.9375 1.6094 0 2.6875-1.2656 2.6875-3.2656zm-1.0468-0.0313c0 1.4219-0.7344 2.3594-1.8282 2.3594-1.0469 0-1.75-0.875-1.75-2.3438 0-1.4844 0.70312-2.4375 1.75-2.4375 1.1094 0 1.8281 0.92188 1.8281 2.4219z"/>
  </symbol>
  <symbol id="y" overflow="visible">
   <path d="m6.2188-2.3438c0-0.8437-0.3282-1.4531-1.0157-1.8437-0.3125-0.1875-0.4687-0.2344-1.5781-0.5781v-2.9844c0.7969 0.0312 1.3594 0.6406 1.375 1.5156h0.95312c0-1.3594-0.875-2.25-2.3281-2.3594v-0.64062h-0.70312v0.64062c-1.5469 0.1875-2.375 1.0312-2.375 2.4062 0 0.75 0.29688 1.3438 0.85938 1.75 0.3125 0.21875 0.64062 0.35938 1.5156 0.625v3.2656c-0.5313-0.078-1.0157-0.31238-1.2813-0.6874-0.1875-0.2656-0.2187-0.4844-0.2968-1.2656h-0.95312v0.20312c0 1.5469 0.90625 2.4844 2.5312 2.5781v1.2344h0.70312v-1.2344c1.6875-0.125 2.5938-1.1094 2.5938-2.625zm-3.2969-2.5156c-0.9531-0.25-1.3907-0.7187-1.3907-1.4531 0-0.79688 0.5-1.3125 1.3906-1.4219zm2.3125 2.6562c0 0.85938-0.54688 1.5312-1.6094 1.6562v-3.1562c1.2188 0.35938 1.6094 0.71875 1.6094 1.5z"/>
  </symbol>
  <symbol id="x" overflow="visible">
   <path d="m1.8125 0v-8.75h-1v8.75z"/>
  </symbol>
  <symbol id="w" overflow="visible">
   <path d="m6.125-3.0938c0-2.1719-1.0469-3.375-2.8594-3.375-1.7656 0-2.8281 1.2188-2.8281 3.3282s1.0469 3.3281 2.8437 3.3281c1.7657 0 2.8438-1.2187 2.8438-3.2813zm-1.0469-0.0156c0 1.4844-0.7031 2.3594-1.7969 2.3594-1.125 0-1.8125-0.875-1.8125-2.3906s0.6875-2.4062 1.8125-2.4062 1.7969 0.875 1.7969 2.4375z"/>
  </symbol>
  <symbol id="v" overflow="visible">
   <path d="m5.8438 0v-4.75c0-1.0469-0.78125-1.7188-1.9844-1.7188-0.9375 0-1.5469 0.35938-2.0938 1.2344v-1.0469h-0.92188v6.2812h1v-3.4688c0-1.2812 0.6875-2.125 1.7031-2.125 0.79688 0 1.2969 0.48438 1.2969 1.2344l0.0001 4.3595z"/>
  </symbol>
  <symbol id="u" overflow="visible">
   <path d="m5.875-1.0312v-5.25h-0.9375v0.90625c-0.5-0.75-1.1094-1.0938-1.9062-1.0938-1.6094 0-2.6875 1.3438-2.6875 3.3906 0 1.9688 1.125 3.2656 2.5938 3.2656 0.79688 0 1.3438-0.34375 2-1.1406v0.42188c0 1.6719-0.67188 2.3125-1.8438 2.3125-0.79688 0-1.4062-0.29688-1.5156-1.0625h-1.0312c0.10938 1.1875 1.0312 1.8906 2.5156 1.8906 1.9688 0 2.8125-0.875 2.8125-3.6406zm-1.0312-2.0782c0 1.5-0.64062 2.3594-1.7031 2.3594-1.0938 0-1.75-0.875-1.75-2.3906s0.67188-2.4062 1.7344-2.4062c1.0938 0 1.7188 0.92188 1.7188 2.4375z"/>
  </symbol>
  <symbol id="n" overflow="visible">
   <path d="m-2.4688-6.0781c-1.0312 0-1.6406 0.42188-1.9844 1.4531-0.3125-0.79688-0.85938-1.1875-1.7188-1.1875-1.4531 0-2.3438 0.96875-2.3438 2.5781 0 1.7188 0.9375 2.6406 2.75 2.6719v-1.0625c-1.25-0.015625-1.8125-0.53125-1.8125-1.6094 0-0.9375 0.54688-1.5 1.4531-1.5 0.90625 0 1.2812 0.39062 1.2812 2.0781h0.89062v-0.57812c0-1.1562 0.54688-1.75 1.5-1.75 1.0625 0 1.7031 0.65625 1.7031 1.75 0 1.1562-0.57812 1.7188-1.8125 1.7969v1.0469c1.8906-0.125 2.75-1.0625 2.75-2.7969 0-1.75-1.0469-2.8906-2.6562-2.8906z"/>
  </symbol>
  <symbol id="f" overflow="visible">
   <path d="m-2.8125-6.1562c-1.6875 0-2.7969 1.1094-2.7969 2.75 0 0.59375 0.15625 1.0781 0.51562 1.5625l-2.1875-0.32812v-3.5469h-1.0469v4.4062l4.4531 0.625v-0.96875c-0.59375-0.48438-0.79688-0.90625-0.79688-1.5625 0-1.1406 0.73438-1.8594 2-1.8594 1.2188 0 1.9219 0.70312 1.9219 1.8594 0 0.92188-0.46875 1.4844-1.4375 1.75v1.0469c1.7031-0.34375 2.375-1.3125 2.375-2.8125 0-1.7188-1.2031-2.9219-3-2.9219z"/>
  </symbol>
  <symbol id="e" overflow="visible">
   <path d="m-2.0469-6.2344h-0.9375v1.25h-5.5312v0.78125l5.3594 3.8594h1.1094v-3.5781h2.0469v-1.0625h-2.0469zm-0.9375 2.3125v2.6562l-3.7188-2.6562z"/>
  </symbol>
  <symbol id="k" overflow="visible">
   <path d="m-4.0938-6.0781c-2.9531 0-4.4219 0.9375-4.4219 2.7812 0 1.8281 1.5 2.7812 4.3594 2.7812s4.3438-0.95312 4.3438-2.7812c0-1.7969-1.4844-2.7812-4.2812-2.7812zm-0.0937 1.0781c2.4062 0 3.4844 0.54688 3.4844 1.7188 0 1.125-1.125 1.6875-3.4531 1.6875s-3.4219-0.5625-3.4219-1.7031c0-1.1407 1.1093-1.7032 3.3906-1.7032z"/>
  </symbol>
  <symbol id="d" overflow="visible">
   <path d="m0-3.0469h-0.84375c0.046875 0.125 0.046875 0.28125 0.046875 0.48438 0 0.42188-0.10938 0.54688-0.5625 0.54688h-4.1094v-1.0312h-0.8125v1.0312h-1.7344v1h1.7344v0.84375h0.8125v-0.84375h4.5625c0.625 0 0.98438-0.4375 0.98438-1.2188 0.000045-0.2344-0.01558-0.4844-0.07808-0.8125z"/>
  </symbol>
  <symbol id="j" overflow="visible">
   <path d="m-5.4062-3.8594h-1.0312c-0.015625 0.17188-0.03125 0.26562-0.03125 0.39062 0 0.65625 0.39062 1.1406 1.3281 1.7188h-1.1406v0.90625h6.2812v-1h-3.2656c-1.4219 0-2.125-0.45312-2.1406-2.0156z"/>
  </symbol>
  <symbol id="i" overflow="visible">
   <path d="m0-1.8438h-6.2812v1h6.2812zm-7.2344-0.125h-1.25v1.25h1.25z"/>
  </symbol>
  <symbol id="h" overflow="visible">
   <path d="m-3.0781-6.2812c-2.125 0-3.3906 1.0312-3.3906 2.7031 0 0.85938 0.39062 1.5312 1.125 2h-0.9375v0.92188h8.8906v-1h-3.3594c0.64062-0.53125 0.9375-1.1094 0.9375-1.9375 0-1.6094-1.2656-2.6875-3.2656-2.6875zm-0.03125 1.0469c1.4219-0.0001 2.3594 0.7343 2.3594 1.8281 0 1.0469-0.875 1.75-2.3438 1.75-1.4844 0-2.4375-0.70312-2.4375-1.75 0-1.1094 0.92188-1.8281 2.4219-1.8281z"/>
  </symbol>
  <symbol id="g" overflow="visible">
   <path d="m-2.3438-6.2188c-0.84375 0-1.4531 0.32812-1.8438 1.0156-0.1875 0.3125-0.23438 0.46875-0.57812 1.5781h-2.9844c0.0313-0.7968 0.6407-1.3593 1.5157-1.3749v-0.95312c-1.3594 0-2.25 0.875-2.3594 2.3281h-0.64062v0.70312h0.64062c0.1875 1.5469 1.0312 2.375 2.4062 2.375 0.75 0 1.3438-0.29688 1.75-0.85938 0.21875-0.3125 0.35938-0.64062 0.625-1.5156h3.2656c-0.078125 0.53125-0.3125 1.0156-0.6875 1.2812-0.2655 0.1876-0.4843 0.2188-1.2655 0.2969v0.95312h0.20312c1.5469 0 2.4844-0.90625 2.5781-2.5312h1.2344v-0.70312h-1.2344c-0.125-1.6875-1.1094-2.5938-2.625-2.5938zm-2.5156 3.2969c-0.25 0.95312-0.71875 1.3906-1.4531 1.3906-0.79688 0-1.3125-0.5-1.4219-1.3906zm2.6562-2.3125c0.85938 0 1.5312 0.54688 1.6562 1.6094h-3.1562c0.35938-1.2188 0.71875-1.6094 1.5-1.6094z"/>
  </symbol>
  <symbol id="m" overflow="visible">
   <path d="m0-1.8125h-8.75v1h8.75z"/>
  </symbol>
  <symbol id="l" overflow="visible">
   <path d="m-0.03125-6.4219h-0.75c0.03125 0.1094 0.03125 0.1563 0.03125 0.2188 0 0.34375-0.1875 0.54688-0.5 0.54688h-3.5c-1.125 0-1.7188 0.8125-1.7188 2.3594 0 1.5156 0.59375 2.4531 2.0469 2.5156v-1c-0.78125-0.09375-1.125-0.54688-1.125-1.4844 0-0.89062 0.34375-1.4062 0.9375-1.4062h0.26562c0.42188 0 0.59375 0.25 0.70312 1.0469 0.17188 1.4219 0.21875 1.6406 0.375 2.0156 0.2969 0.7343 0.8595 1.1093 1.6407 1.1093 1.1406 0 1.8125-0.79688 1.8125-2.0625 0-0.8125-0.34375-1.5938-0.9375-2.1406 0.48438-0.10938 0.82812-0.54688 0.82812-1.0312 0-0.20312-0.015625-0.35938-0.10938-0.6875zm-2.1406 1.75c0.90625 0 1.4688 0.92188 1.4688 1.8906 0 0.78125-0.26562 1.2344-0.95312 1.2344-0.65625 0-0.95312-0.4375-1.1094-1.5156-0.14062-1.0469-0.1875-1.2656-0.34375-1.6094z"/>
  </symbol>
 </defs>
 <g transform="translate(2.9168e-7 -56.994)">
  <rect height="504" width="504" y="0" x="0" fill="#fff"/>
  <g stroke-linejoin="round" stroke="#000" stroke-linecap="round" stroke-miterlimit="10" stroke-width=".75" fill="none">
   <path d="m84.746 73.211h0.0039-0.0039 0.0039l-0.0039 0.0039v-0.0039l0.0039-0.0039h-0.0039l0.0039 0.0039-0.0039-0.0039 0.0039 0.0039v-0.0039 0.0078-0.0039h-0.0039 0.0039-0.0039 0.0039l-0.0039-0.0039h0.0039l-0.0039 0.0039h0.0039l-0.0039-0.0039 0.0039 0.0039h-0.0039v-0.0039 0.0039-0.0039l-0.0039 0.0078-0.0039 0.01172v0.01172l-0.0039-0.0039 0.0078-0.01563-0.0039-0.0039 0.0078-0.0078v-0.0078l-0.0078-0.01563v-0.0039h0.0039l-0.0078-0.04688v-0.0078l0.0078-0.01172-0.02734 0.01953 0.02734-0.01562-0.02734 0.01562 0.02734-0.05078v-0.0078l0.0078-0.01563h0.0039v-0.0039l0.0039-0.0039v-0.0039l0.0039-0.0039v-0.0078l0.0078-0.0078 0.0039-0.0078v-0.0078h0.0039l0.0078-0.01563 0.01172-0.01563v-0.01172h0.0039l-0.0039-0.0078v-0.0078h-0.0078 0.0039l-0.0039-0.0039 0.0039 0.0039h-0.0039 0.0039l0.01953-0.0078 0.0039-0.0039 0.0039 0.0039v0.01172l0.0078 0.01953 0.0078 0.01172-0.02734 0.05078-0.02344 0.04688h-0.0039l-0.0078 0.01562-0.0078-0.01953-0.0078-0.0039-0.05469-0.23828 0.0039-0.0039 0.0078-0.01172 0.0078-0.01953 0.0039-0.0039 0.0039 0.0039 0.01563 0.03125 0.0078 0.01172 0.0039 0.01563v0.0039l-0.0039 0.01172 0.0078 0.0078 0.02344 0.05469 0.0078 0.01172-0.0039 0.0039 0.0039-0.0039-0.01172-0.01953-0.0039-0.0039-0.01172 0.0039-0.01172 0.01172-0.0078-0.01562-0.0078 0.0078 0.0039 0.01953 0.01172 0.01953 0.0078 0.01172 0.01172 0.02344 0.0078 0.01172v0.0039l0.0078 0.01563 0.0039 0.0039 0.0039 0.0078 0.0078 0.01172 0.0039 0.0078 0.0039 0.01172 0.0039 0.0078v0.0039l0.0039 0.0078-0.0039 0.0039-0.01172 0.02344-0.01953 0.01953-0.02344 0.03516-0.01953 0.04297-0.01953 0.03516v0.05859l-0.0039 0.13672v0.08203l-0.0039 0.17969-0.0039 0.45703v0.02734l0.0039 0.0039 0.02344 0.0039h0.02344l0.03516 0.0078v0.01953l0.01563 0.38281-0.03125-0.03125 0.0039 0.09766v0.0039l-0.0039 0.01172 0.03906 0.11328 0.0078 0.02344 0.01172 0.03906 0.01172 0.04297 0.04297 0.0625 0.05469 0.125 0.02734 0.07031 0.18359 1.2539-0.01953-0.0078 1.8633 0.95703 0.02734 0.05859 0.03125 0.06641 0.03125 0.0625 0.03125 0.06641 0.02734 0.0625 0.0625 0.13281 0.03125 0.07031 0.03906 0.08594 0.25781 0.65234v0.0039l0.01953 0.07812 0.01563 0.08594 0.01563 0.0625 0.01563 0.03516 0.0078 0.0078h0.02734l0.03125-0.0039h0.03125l0.03516 0.0039 0.03906-0.0039v0.23438l0.0039 0.04687 0.0039 0.03125v0.0039l-0.01562-0.20312 0.01172 0.19922-0.01172-0.19922 0.0078 0.24609-0.0078-0.24609 0.03516 0.41016 0.0078 0.0078-0.40625-0.74219v-0.0625l0.5 1.2969 0.07813 0.13281 0.04297 0.03516 0.71875 1.332-0.03125-0.03906 0.81641 2.6992 0.19922 1.7188 0.98438 3.5859 0.08203 1.1094 0.0039-0.19531v0.01563-0.0039 0.0039l-0.0039-0.0039v0.18359l0.01953 0.17969-0.04687 0.39453 0.66797 13.883 0.0039-0.10156-0.0039 0.10156 0.0039-0.10156-0.0039 0.10156 0.0039-0.10156-0.0039 0.10156 0.0039-0.10156 0.34375-1.2461-0.34375 1.2461 0.18359-0.61719-0.10938 0.26563-0.07813 0.36328-0.48828 1.5078-0.24609 3.0156 0.21484-0.28125v0.0469l0.0078 0.0547v0.14062l-0.0039 0.004-0.02734 0.004h-0.05469l-0.01953-0.004h-0.03906l-0.01563 0.008-0.0039 0.004-0.0039 0.0156-0.0078 0.0156-0.01563 0.0234-0.01563 0.008-0.01172-0.0234-0.0039-0.0156h-0.0078l-0.0078 0.004v0.0352l0.0039 0.0195h0.01172l-0.01953-0.0312 0.01953 0.0312v0.008-0.004l0.0039 0.008v0.004l-0.0039 0.008 0.0039 0.008-0.0039 0.0742 0.0078-0.0586-0.0039 0.004v-0.004l0.0039 0.004h-0.0039l-0.03906-0.0664 0.03906 0.0664v-0.0234l-0.02344-0.0586 0.01953 0.0352-0.01953-0.0352 0.01953 0.0352-0.01953-0.0352 0.01953 0.0352-0.01563-0.0312 0.01563 0.0312v0.004-0.004 0.004-0.004 0.004l-0.01953-0.0391 0.15234 0.3125v-0.10156l-0.08984-0.10547v0.008l-0.04297-0.0781-0.01953-0.0352 0.01953 0.0352-0.01953-0.0352 0.01953 0.0352-0.01953-0.0352 0.01953 0.0352v0.008l-0.01953-0.043 0.01953 0.0352-0.01953-0.0352 0.01953 0.0352-0.01953-0.0352 0.01953 0.0352-0.01953-0.0352 0.01953 0.0352-0.01953-0.0352 0.01953 0.0352-0.01953-0.0352 0.01953 0.0352-0.01953-0.0352 0.01953 0.0352-0.01953-0.0352 0.01953 0.0352-0.01953-0.0352 0.01953 0.0352-0.01953-0.0352 0.01953 0.0352-0.01953-0.0352 0.01953 0.0352-0.01953-0.0352 0.01953 0.0352-0.01953-0.0352 0.01953 0.0352-0.01953-0.0352 0.01953 0.0352-0.01953-0.0352 0.01953 0.0352-0.01953-0.0352 0.01953 0.0352-0.01953-0.0352 0.01953 0.0352h-0.0039 0.0039v0.004-0.004 0.0195-0.0195 0.004-0.004l-0.01953-0.0352 0.01953 0.0352-0.01953-0.0352 0.01953 0.0352-0.01953-0.0352 0.01953 0.0352v-0.004 0.004-0.0625l0.0039 0.0117 0.02344 0.0273-0.0039 0.0195 0.0078 0.25 0.0039 0.0352 0.01562 0.19141v0.10938l0.0039 0.14062-0.01172 0.0234 0.0078 0.0156-0.01562 0.0273v0.0234l0.0039 0.004v-0.004l0.0078 0.0156 0.01172 0.0273 0.01953 0.0352 0.02344 0.0625v0.004-0.008 0.004h-0.0039l0.0078 0.0234-0.0039 0.0156-0.01953 0.004 0.01172 0.008-0.0039-0.008-0.0039 0.004h0.0039v-0.004l0.0039 0.0195-0.02344-0.12891 0.01953 0.10938-0.0078-0.10156 0.01172 0.0508-0.0039 0.0117v0.0391h-0.0078 0.0078v-0.004l-0.0078-0.0156-0.0039-0.0234-0.0078-0.0234-0.0039-0.0156-0.0039-0.0273-0.0078-0.0117-0.01172-0.0234-0.0078-0.0117-0.01172-0.0234-0.0078-0.0117-0.0078-0.0195-0.01563-0.0156-0.0039-0.0117 0.0078-0.0156-0.02734-0.0234-0.0078-0.0156-0.0039-0.0312 0.0039-0.0391 0.0039-0.008v0.0195l-0.0039 0.004v-0.0117 0.0156l0.01563 0.004-0.0078 0.004h-0.0039l0.01172-0.008-0.0039 0.004 0.92187-0.47656 0.03516-0.004-0.96484 0.47656-0.0039-0.008h0.0039v0.008-0.008l0.07031 0.0547-0.05859-0.0508v0.008l-0.0078 0.004v-0.004l0.04687 0.0586-0.05078-0.0664h0.01172l-0.01172-0.004 0.06641 0.043-0.06641-0.0312v0.008l0.01172-0.0117 0.0039-0.008 0.0039 0.0234v0.004l0.02344-0.008h-0.02344l0.0078 0.008h0.0039-0.0039l0.03906 0.0156-0.03906-0.0156 0.03906 0.0156-0.03906-0.0156-0.01563-0.0156v-0.004l0.0078-0.004v-0.008l-0.0039-0.004-0.01563 0.0156 0.0078-0.004 0.0078 0.0156-0.01563-0.008v0.008-0.008 0.004l0.0078-0.008-0.0039 0.0117v-0.004 0.004-0.004l0.0078-0.004-0.0078 0.004h0.0039l0.0039-0.008-0.0078 0.004 0.0078-0.004-0.0078 0.0117 0.0078-0.004h-0.0078l0.0078-0.004v-0.004l0.01172 0.0234-0.01562-0.0117 0.01953 0.0273-0.01953-0.0391-0.0039-0.0156-0.0039 0.0195 0.0039 0.008 0.0078-0.004 0.0039-0.0117v0.0156l0.0039-0.004-0.0039 0.008v0.0117l0.01563-0.004h0.0039l0.0078 0.004h0.0078l-0.01563 0.0195 0.01172 0.004h-0.0039v0.004-0.004l0.01563-0.004-0.01563 0.004h0.0039-0.0039 0.0039-0.0039l-0.0039-0.008 0.01562 0.0117v-0.004l0.0078 0.004h0.01953l0.0039 0.008h0.0039l-0.0078 0.004v-0.16796l0.04297-0.39454-0.07422-0.17187v0.004-0.004 0.008-0.008 0.004-0.008l0.0039 0.0273-0.03906-0.043 0.01953 0.0352v-0.004l-0.0039-0.0117 0.0039 0.0156v0.004-0.004 0.004-0.004 0.004-0.004l-0.0039 0.004 0.0039-0.004v0.004h-0.0039l0.0039-0.004-0.0039 0.0156-0.0039-0.008h0.0039v0.004l-0.0039-0.008v0.004h0.0039-0.0039 0.0039-0.0039v-0.004 0.004h0.0039v0.004-0.004h-0.0039 0.0039-0.0039 0.0039v0.004-0.004h-0.0039v-0.004l0.0039 0.004-0.0039 0.008 0.0039-0.008h-0.0039v-0.004 0.004h0.0039-0.0039v-0.004 0.004-0.004 0.004h0.0039-0.0039v-0.004 0.004h0.0039l0.0039 0.0156v0.0117l0.0078 0.008v0.004h0.01563l0.01953 0.004-0.0039 0.004-0.01563-0.008h-0.0078l-0.0078-0.004-0.0078-0.008v-0.0156l-0.01172-0.0195v-0.008l-0.01953-0.008v0.004-0.004 0.004-0.004 0.004-0.004 0.008-0.004l0.0039-0.008v0.004h-0.0039v0.004l0.0039-0.008-0.0039 0.004 0.0039 0.004h-0.0039l0.0039-0.008-0.0039 0.008h0.01563l-0.0039-0.004 0.0078 0.008v0.004l0.01172 0.004 0.0039-0.004-0.0039-0.0234v-0.0352 0.004l0.0039 0.0117 0.0078 0.004 0.0078 0.0195 0.01172-0.004-0.0039 0.004 0.03906 0.45312-0.01953-0.0273 0.0039 0.0469-0.01172 0.16407 0.0078 0.13671 0.0039 0.008-0.01562-0.0312 0.01562 0.0156v0.008l0.01172 0.0156-0.01172-0.0312h-0.0039l-0.0039-0.004h-0.0078l0.0039-0.004v0.004h-0.0039l-0.0039 0.004h-0.0078l-0.0039 0.004-0.01172-0.004-0.02344 0.0117-0.0078-0.0117 0.0039-0.0156v-0.0391l0.0039-0.0117v-0.0117 0.008l-0.0078-0.0234h0.0039v0.0117h-0.0039l0.0039-0.004v-0.004l-0.0078 0.0117-0.0039 0.004v-0.004l0.0078-0.004v-0.004l-0.01172-0.0195v0.0156l0.0039 0.004-0.0039 0.004 0.0039 0.0117 0.0078-0.004v-0.008l0.0078 0.0117 0.0039-0.0312-0.0078 0.008 0.0039-0.008h0.0039v0.008l-0.0039 0.0117-0.0039-0.0117 0.0039 0.0234 0.0078-0.0117-0.01172-0.0117v0.004-0.004l0.01172 0.0117-0.01172-0.008 0.0039 0.0273-0.01563 0.008 0.13672-0.10156-0.14453 0.0586 0.0078-0.0117-0.0078 0.0117v-0.004l0.0039-0.004h-0.0039l0.0039-0.004-0.0039 0.0273h0.0039v-0.004h0.0039l0.0078 0.008-0.0039-0.0117 0.05859 0.043-0.07031-0.0508 0.01563 0.0156-0.01172 0.0117v0.004l-0.0039-0.0117h0.0039l-0.0039-0.004h0.0039l-0.0039-0.0156v-0.004 0.004-0.004 0.004-0.004 0.004-0.008 0.008-0.008 0.004l-0.0039-0.004-0.0078 0.004v-0.0273 0.004-0.004 0.008-0.008 0.004-0.004 0.004-0.004 0.004-0.004h0.0039l0.01172-0.0273-0.01563 0.0312v0.004-0.004l-0.0039 0.008 0.0039-0.008h0.0039-0.0039l0.0039 0.004-0.0039-0.004h0.0039-0.0039l0.0078 0.0195 0.0039 0.008-0.0039 0.008 0.05078 0.0625-0.04297-0.0508v0.0117-0.0117h0.01172l-0.0078 0.008 0.0078-0.0117-0.0078 0.0117 0.0078-0.008 0.12891-0.0742-0.12891 0.0742 0.12891-0.0742-0.12891 0.0742-0.01172 0.004v-0.004l0.0078 0.008 0.0039-0.004h-0.0078v-0.004l0.0078-0.008-0.01563 0.008h0.0039v-0.008h0.01563l-0.0039 0.004 0.0039-0.004v-0.008l-0.0039 0.0117 0.0039-0.0117-0.0039 0.0117v0.004-0.004 0.0117-0.0117l0.0039-0.004 0.0078 0.0156v0.0117l0.0039 0.0195 0.0078 0.004 0.01953 0.008v-0.004l0.0078 0.004h0.01563l0.0039 0.004 0.0039-0.0625v-0.1914l0.0078-0.11329h-0.0078l-0.01562-0.0625-0.07422-0.13671 0.05859-0.14844-0.0039-0.0156v-0.0117l0.0078 0.043-0.0078-0.004-0.01172-0.004-0.03125-0.008 0.02734 0.004v0.004-0.004 0.004-0.004 0.004-0.004l-0.01953-0.0352 0.01953 0.0352-0.01953-0.0352 0.01953 0.0352-0.01953-0.0352 0.01953 0.0352-0.01953-0.0352 0.01953 0.0352v0.008-0.0352l0.01563 0.004 0.03516 0.41015-0.01172 0.22657 0.01172 0.11328 0.0078 0.008 0.02734-0.004h0.01172l0.02734 0.004 0.0625-0.004v-0.1289 0.004-0.004h0.0039-0.0039v0.004-0.004 0.004-0.004 0.004-0.004l0.0039 0.004-0.0039-0.004 0.0039 0.004v-0.004h-0.0039 0.0039-0.0039 0.0039v0.004l-0.0039-0.004 0.0039 0.004-0.0039-0.004v0.008l0.01172-0.004h0.01172l0.01172 0.004v0.0898l-0.0039-0.004 0.0039 0.004-0.0039-0.004 0.0039 0.004v0.0312h-0.01172l-0.01172 0.004h-0.0078l-0.0039 0.004h-0.0039v-0.004h-0.0078l-0.0078 0.004-0.01953-0.004-0.01172-0.008-0.01563 0.004-0.02344 0.008-0.01172-0.008 0.0078 0.0742-0.03516-0.0703h-0.01172v-0.0391l-0.0039-0.0156-0.0039 0.004h-0.0039l-0.0078 0.004 0.0039 0.004-0.01172-0.0117h-0.01172l-0.02344-0.0117h-0.0039l0.05078 0.0195-0.04687-0.0195 0.04687 0.0195 0.01172 0.0195-0.01172-0.0195-0.05078-0.043 0.0039 0.0156v0.008h-0.0039 0.0039v-0.004 0.004l0.04687 0.0195 0.01172 0.0195-0.01172-0.0195-0.04687-0.0195-0.0039-0.0273 0.0039 0.0273-0.0039-0.0273 0.125 0.0625-0.125-0.0547v-0.0117l0.0078 0.0352 0.01172 0.0273 0.01563 0.008 0.02734-0.008-0.01563 0.008 0.01953 0.008v0.004l-0.0039-0.12109 0.0078-0.004-0.0039-0.28125-0.01953-0.10937-0.01172-0.22266v0.0117-0.008 0.0117l-0.01563 0.0273 0.01953-0.0156 0.0039 0.008-0.0039 0.0117-0.01172-0.008-0.0039 0.004-0.0039-0.004v-0.004l-0.01953-0.0508 0.01953 0.0352 0.0039 0.004-0.0039-0.004h-0.0078l-0.01172-0.008-0.01172-0.0156v0.0195-0.004l0.01172-0.0273-0.0078 0.0117-0.0039 0.0156v0.004l0.0078 0.0156h0.01172l0.0039 0.004 0.0039-0.008 0.0039 0.0156v-0.0234l-0.0039-0.004h0.0039v0.008-0.004 0.004-0.004h-0.0039v-0.004l0.0039 0.004-0.0039-0.004v0.004h-0.0039l0.0039-0.004v0.004l0.0039-0.004v-0.0547l0.01172 0.0312 0.01172 0.004-0.0039 0.21484 0.03125 0.20703-0.01953 0.42578-0.01172 0.0273v-0.0156l-0.0078 0.008 0.02734 0.0508 0.0039 0.0117 0.0078 0.0117 0.0039 0.004 0.01172 0.0352 0.0078 0.0156 0.0039 0.0195 0.0039 0.0156 0.0039 0.0312 0.01172 0.0156 0.0078 0.0547 0.0039 0.0117-0.01563-0.0117h-0.0039l0.0039-0.004v0.004l0.03516 0.0234-0.05469-0.0508 0.0039-0.0937-0.15234 0.0625h-0.01172l-0.07031-0.004h-0.01953l-0.01563-0.004h-0.04687l-0.01563-0.004h-0.03125l-0.0625 0.60547-0.71484-0.70313-0.02344-0.0937v-0.008l-0.01563-0.0937-0.0078-0.0195-0.0039-0.0156-0.0078-0.0117-0.0078 0.0156-0.02344-0.0469-0.03125-0.004-0.01172-0.043v0.0312l-0.0039-0.008 0.03125 0.0156-0.07031-0.0508 0.0039-0.0273 0.06641 0.0781-0.06641-0.0781 0.01172 0.0625 0.01953-0.0117-0.03125-0.0508 0.01172 0.0625-0.01953-0.0586-0.0078-0.10156-0.02734-0.13672-0.03906-0.375v-0.0312l-0.0078-0.16406-0.10547-0.22656-0.04687-0.28516-0.16406-0.58203 0.03125-0.004-0.04687-0.0547-0.30078 0.0312-0.23438-0.29687-0.05078-0.59766-0.03516 0.0156-0.01172-0.48828 0.01172-0.66016-0.01172 0.0195 0.1875-0.66797 0.03125-0.55468-0.13281-0.25782-0.0078 0.0273 0.04687 0.004-0.33594-0.0859-0.37891-0.4375-0.01172-0.008-0.03516-0.0156-0.08594-0.043-0.08594-0.0469-0.12109-0.22656-0.01563-0.0273-0.03516-0.0547-0.24219-0.32422-0.42578-2.0898-0.45312-1.1133-0.52734 0.83593-0.64062-0.93359-0.20703-0.0586-0.52734-0.23828 0.07422 0.10938-0.23438-0.12891-0.71094-0.25h-0.09375l-0.50781-0.33984-0.04297-0.02344-0.01563 0.15234v-0.0039 0.0078-0.02344 0.0078-0.0039 0.01953l-0.05078-0.01172v0.0078l-0.01953-0.0039-0.02734-0.01172-0.02734-0.0078-0.02734-0.01172-0.01563-0.0078h-0.0039l-0.02344-0.01953-0.02344-0.02734-0.01172-0.01562-0.01563-0.01953-0.01953-0.03125-0.02734-0.01563-0.04297 0.28906v0.01172l-0.01172-0.0078-0.0039-0.0039v0.0039l0.01563-0.0039-0.13281-0.22266 0.125 0.23047-0.0039-0.0078v0.01172l-0.09375-0.16797-0.24219 0.0078-0.01172 0.0039-0.07813 0.03125-0.07422 0.01563-0.08203 0.02734-0.03906 0.0078-0.03906 0.01563-0.63281 0.79687h0.15625l-0.01172 0.0117-0.03125-0.008-0.11328-0.004-0.48438-0.16406-0.89844 0.15235-0.05078 0.0664-0.08984 0.23438-0.01172 0.0312-2.4141-0.33594-0.0039-0.004 0.0039 0.008v-0.004l-0.01172 0.004 0.01563-0.004h-0.0039v-0.0117 0.0156-0.004h0.0039-0.0039v0.004l0.0039-0.004 1.5-0.0703-0.01172 0.0156 0.0078 0.0273 0.02734 0.0195 0.01953 0.0391 0.05078 0.0742 0.02734 0.0195 0.02344 0.008 0.02344 0.0195 0.04687 0.0312 0.02734-0.008 0.01953 0.0156 0.01172 0.0352 0.01172 0.0273 0.02344 0.008 0.01563 0.0156 0.01172 0.0391 0.02734 0.0117 0.03906 0.0273 0.01563 0.0117 0.05078 0.0234h0.02344l0.02344-0.004 0.02734 0.0195 0.02344-0.0117 0.01172-0.0352 0.02344-0.0117 0.02344-0.0156 0.02734 0.004 0.02344-0.008h0.02344l0.02344 0.0195 0.02734 0.004 0.01953 0.0312 0.02344 0.0117h0.02734l0.02344 0.008 0.02344-0.008 0.02344-0.0312 0.03125-0.0625 0.01953-0.0273 0.02344-0.0156 0.01953-0.0391 0.02344-0.0156 0.02344-0.0234 0.03125-0.0664 0.01563-0.0391-0.0039-0.0469 0.0078-0.0508 0.01172-0.0391 0.0039-0.0508 0.01172-0.0469 0.03906-0.0625 0.02344 0.0078 0.02344-0.0078 0.02734-0.0039 0.02344-0.02344 0.02344-0.02734 0.02344-0.0039h0.03125l0.0625-0.04297 0.02734-0.07031 0.02344-0.05859 0.03906-0.01563 0.04297 0.02344 0.04297 0.03125 0.03125 0.01953 0.03125 0.04687 0.01953 0.07813 0.03906 0.02734 0.03906 0.0039 0.03906 0.03906 0.03906 0.03516 0.04297 0.008 0.07813 0.0156 0.04687 0.008 0.08984 0.0156 0.04297 0.008 0.03906 0.008 0.03906 0.0234 0.03516 0.0234 0.03516 0.0195 0.03906 0.0234 0.04297 0.0234 0.03906 0.0234 0.04297 0.0273 0.03906 0.004 0.03516-0.0273 0.03906-0.0195 0.04297 0.008h0.02344l0.0078-0.0703 0.02344-0.0508 0.03125-0.0508 0.01953-0.07031 0.02344-0.07422 0.03125-0.04297v-0.07813l-0.0078-0.06641 0.03125-0.05078 0.03516-0.04687 0.03906-0.05078 0.03516-0.04687 0.03125-0.03516 0.03516-0.02734 0.03906-0.01563 0.03516-0.01172 0.19531-0.05859 0.03906-0.0078 0.04297-0.01563 0.03516-0.0078 0.03516-0.01172 0.03516-0.0078 0.03125-0.01172 0.03125-0.0078 0.03516-0.0078 0.03125-0.01172 0.03125-0.0078h0.03125l0.03125 0.01172 0.04687 0.02344 0.03516 0.01563 0.03516 0.01953 0.01172-0.01172 0.0078-0.02734 0.0078-0.01953 0.0039-0.01563 0.01172-0.03125 0.01953-0.0625 0.0039-0.02344 0.0078-0.01172 0.0078 0.0078 0.09766 0.11719 0.01563 0.03125 0.02344 0.0078 0.02344 0.01172 0.03125 0.01172 0.02734 0.0078 0.02734 0.01172h0.02344l0.01563-0.0039 0.0078-0.0039h0.04687l-0.0039-0.03125v-0.13281h-0.04687l-0.0039 0.03125-0.01172 0.05078v0.07422h0.0039v-0.0078 0.0039l-0.01172 0.03516 0.01172-0.04297v-0.0039 0.0039h-0.02344 0.02344v0.0078-0.0039h0.0078l0.0078 0.0078 0.01172 0.0078h0.03906l0.02344-0.02344 0.01953-0.02734 0.01562-0.02344 0.01172-0.01563 0.0078-0.0078h0.0039l0.02344 0.01563v0.05078l0.0039 0.0625h0.03516l0.02344-0.05469 0.02734-0.0078 0.02734 0.05078 0.01953 0.05078 0.02344 0.02734 0.03516 0.03125 0.09375 0.04688 0.03906 0.01172 0.04297 0.0039h0.05078l0.04688 0.0039 0.04687 0.01563 0.05078 0.01563 0.05078 0.01953 0.03906 0.01172 0.04297 0.01563 0.03906 0.01172 0.0039 0.0039 0.04297 0.01172 0.03906 0.01562 0.03906 0.01172 0.04297 0.01563 0.04687 0.01563 0.04688 0.01953 0.05078 0.02344 0.04687 0.02344 0.04687 0.01562 0.04687 0.02344 0.08984 0.04297 0.08594 0.03906 0.03516 0.01563 0.01172 0.0078 0.03516 0.01563 0.07813 0.03906 0.03906 0.01563 0.03516 0.01172 0.03125 0.01172 0.03516 0.01563 0.03906 0.01954 0.03906 0.008h0.15234l0.01953 0.004h0.04297l0.07813 0.0156 0.04297 0.0156 0.03906 0.0195 0.03516 0.0312 0.03125 0.0273 0.03516 0.0352 0.03516 0.0469 0.02734 0.0508 0.03125 0.0469 0.01563 0.0703 0.01953 0.0547 0.03125 0.043 0.03125 0.0586 0.05469 0.10937 0.01562 0.0781v0.082l0.01953 0.0703 0.03125 0.0508 0.02344 0.0469 0.02344 0.0391 0.0039 0.0117 0.02734 0.0508 0.01953 0.0586 0.02344 0.0469 0.03125 0.0156 0.02734-0.0273 0.03125-0.043 0.01172-0.0625 0.01563-0.0625 0.01953-0.0625 0.01953-0.0664 0.01562-0.0703 0.03906-0.14843 0.02734-0.0586 0.03906-0.0352 0.03906-0.0273h0.20312l0.04297-0.004 0.03906 0.004 0.03516 0.004 0.07031 0.0391 0.04297 0.0273 0.03906 0.0234 0.03906 0.0195 0.03516 0.0234 0.03516 0.0195 0.03906 0.0273 0.03516 0.0234 0.03125 0.0547 0.05469 0.13281 0.01563 0.0859 0.02344 0.15625 0.0039 0.0781 0.0039 0.0859-0.0078 0.0781-0.02734 0.14453-0.03516 0.0391-0.03906 0.0352-0.03516 0.0391-0.02734 0.0703-0.02734 0.0625-0.01172 0.0625 0.0078 0.0469 0.02344 0.0312 0.0078 0.0625-0.0039 0.0781 0.01172 0.0664 0.0078 0.082 0.0039 0.0703 0.0039 0.0781 0.0078 0.0703-0.01172 0.082v0.0781l0.0078 0.0781-0.01563 0.0859-0.0039 0.082 0.07422 0.0664 0.04297 0.0156 0.03906 0.0156 0.04297 0.0117 0.03516 0.0234 0.03125 0.0352 0.02344 0.0391 0.02734 0.0352 0.02344 0.0352 0.05469 0.0703 0.03125 0.043 0.03516 0.0508 0.07422 0.0859 0.04297 0.0352 0.03906 0.0273 0.04297 0.0352 0.03125 0.043 0.03125 0.0586 0.05469 0.10157 0.02734 0.0547 0.03516 0.0625 0.03125 0.0586 0.05859 0.11328 0.03125 0.0469 0.04297 0.0234 0.04687 0.0234 0.04687 0.0273 0.08203 0.0391 0.03906 0.0508 0.02734 0.0664 0.02734 0.0625 0.02734 0.0586 0.02734 0.0547 0.03516 0.0195 0.08594 0.0469 0.03906 0.043 0.03906 0.0469 0.04297-0.0156 0.03906-0.0117 0.03906-0.0156 0.04297-0.0117 0.03906 0.0273 0.03906 0.043 0.03906 0.008 0.03906 0.004 0.03125 0.0273 0.02734 0.043 0.02344 0.043 0.02344 0.0391 0.02734 0.043 0.02344 0.043 0.05469 0.0859v0.004h0.0039v0.008l0.0078 0.008 0.01172 0.0273-0.0039 0.008-0.01953 0.0352-0.0078 0.0547-0.01172 0.0625-0.0078 0.0625-0.01172 0.0625-0.01563 0.0547-0.01953 0.0586-0.04687 0.0898-0.02344 0.0508-0.04687 0.0937-0.01953 0.0469-0.01563 0.0508-0.01172 0.0586-0.01172 0.0625-0.0078 0.0742-0.01563 0.14453-0.0078 0.0664-0.0039 0.0625-0.0078 0.0703v0.20703l0.0039 0.0703v0.19922l0.0039 0.0781v0.0117l-0.0039 0.0664-0.01563 0.082-0.01563 0.0703 0.0039 0.0391 0.01953 0.0117 0.0078 0.0312 0.0039 0.004v0.004l0.0039 0.0117 0.03906 0.0781 0.01563 0.0391 0.01953 0.0469 0.01172 0.0742v0.0937l0.0039 0.0547 0.0039 0.0312v0.008l0.0039 0.0391v0.13281l0.0078 0.0547 0.02344 0.043 0.0625 0.0625 0.02734 0.0469 0.02734 0.0391 0.02734 0.0508 0.02734 0.0469 0.05078 0.0937 0.01953 0.0352 0.03125 0.0273 0.03125 0.004 0.03516-0.0117 0.07031-0.10547 0.02734-0.0312 0.01953-0.0234 0.01953-0.0117 0.01172 0.008 0.0039 0.008 0.01563 0.0156 0.0078 0.0156 0.0039 0.004 0.01953 0.0273 0.0078 0.0547 0.0039 0.0586 0.02344 0.11328 0.01172 0.0586 0.0078 0.0508 0.01172 0.0625 0.01953 0.0547 0.01953 0.0508 0.01563 0.0469 0.03125 0.0859 0.01563 0.0391 0.01172 0.0312 0.0039 0.0156v0.008l0.01172 0.0312 0.01953 0.0469 0.01563 0.0586 0.02344 0.0977 0.01172 0.0625 0.01563 0.0547 0.0078 0.0547 0.0039 0.0664 0.0039 0.0547v0.0977l0.0039 0.0508 0.01172 0.0508 0.01172 0.0312 0.0039 0.004 0.0078 0.0195 0.01563 0.0625 0.0039 0.0664v0.0391l-0.0039 0.0312v0.0703l0.0039 0.0625 0.0078 0.0586v0.0234l0.0039 0.004h0.0039v-0.004 0.0117l0.01953 0.0195 0.07422 0.23828 0.02344-0.14453-0.05078-0.0703-0.05859 0.0234 0.13672 0.11328 0.0039-0.0156 0.10547 0.28125h0.0039l0.01563 0.004 0.51172 0.49219 0.05859-0.0234 0.10547-0.29296-0.03906-0.21094 0.0039-0.004 0.01563-0.004h0.01172l0.12891-0.008 0.03125 0.0195h0.0039l0.17578-0.0195-0.0039-0.0547 0.01953 0.043 0.03516 0.0937-0.03516-0.0937 0.01953 0.0977-0.0039-0.008 0.01172-0.0508-0.01563 0.0508v0.0117l0.02344 0.0312h-0.0039l-0.0039-0.0742 0.0078 0.0273v0.004l-0.0078-0.0234v-0.004 0.0273-0.0312l0.0078 0.0312-0.01172-0.008h0.0078v0.008l0.0039 0.0117 0.0039 0.004v0.004h0.0078l-0.0039-0.0156-0.0078-0.0234v-0.008l0.0039-0.0117-0.0078-0.0156-0.0039-0.0117-0.0039 0.008 0.0039 0.0234-0.0039-0.004h0.0039l0.0039 0.008 0.0039 0.0117 0.0078 0.0312 0.0078 0.0117 0.0039 0.0273v0.0547l0.0078 0.0312v0.13281l-0.0039 0.008h-0.01172l-0.0039-0.004 0.0039-0.0117-0.0039-0.004v-0.0195l0.0039-0.0273 0.01172-0.0391v-0.0312l-0.0078-0.0273v-0.0859l-0.0078-0.0234-0.0078-0.0195-0.0039-0.0156-0.0039-0.008-0.0039-0.0117h0.0039l-0.0078-0.0156-0.01563-0.0469-0.01953-0.0547-0.01953-0.043-0.0039-0.0352 0.03125-0.10937-0.0039-0.0391v-0.13282h-0.01172l-0.0078-0.004v-0.0391l0.0039-0.0312-0.0039-0.004h-0.01953v0.004l0.0039-0.004v0.004h-0.0039 0.0039l0.0078 0.043-0.01953 0.0117-0.01953 0.0391-0.01172 0.0469v-0.004 0.004l-0.0039-0.004 0.0039 0.004-0.0039-0.004 0.0039 0.004-0.0039-0.004 0.0039 0.004v-0.004 0.008-0.004l-0.0078 0.0195v0.0859h0.04297l0.01172 0.0156 0.04687 0.082 0.01563 0.0312 0.0078 0.0117 0.0078 0.0234 0.01172 0.0273 0.0039 0.0195 0.0039 0.0117 0.0039 0.0195v0.004l0.01563 0.0312v-0.004l0.01953-0.0195v-0.008l0.01172-0.008 0.0039-0.008 0.01563-0.0156 0.0039-0.0117v-0.008l-0.0039-0.004-0.0039 0.004v0.0117-0.004h0.0039-0.0039v0.008l-0.0039-0.008v0.004-0.004l0.0078 0.0117-0.0039-0.0117v0.004-0.008 0.004h-0.0039 0.0039l0.0039 0.0117-0.0039-0.0117v-0.004 0.004-0.004 0.008-0.004 0.008-0.008 0.0156l-0.02734 0.0312 0.04297 0.92187 0.03125-0.0273-0.0039 0.0625 0.01562 0.19922 0.17969 0.51953 0.01172 0.0508 0.01563 0.11328 0.0078 0.082 0.01953 0.10157 0.01172 0.0586 0.03516 0.0937 0.05469 1.8203-0.10547 0.27735-0.01172 0.75781-0.09766 1.5703 0.01563 0.14063-0.01172 0.082-0.16016 0.85937-0.03125 0.0898-0.02344 0.0898-0.01563 0.0859-0.03516 0.21875-0.01563 0.0195-0.70703 0.18359 0.0039-0.008-0.17578 0.0898-0.0625 0.125 0.0039 0.0977-2.4023 3.6289-0.27734 0.16406-0.91406 2.1133 0.0078 0.0586v-0.008 0.004-0.004l-0.0039-0.004-0.12891 0.95312-0.08203 0.54297-0.01172 0.98828-0.18359 2.0039 0.14844 0.71093 0.16406 1.7774 0.13672 0.40625 0.01953 0.0391 0.38672 1.707v0.15625l-0.0039 0.59766-0.03516 0.74218-0.10938 1.668-0.08594 1.0977v0.11328l0.01953-0.0156-0.01953-0.0977 0.01953 0.0977-0.01953-0.0977-0.02344 1.2539 0.01953 0.10156 0.06641 0.35547 0.0039 0.0234 0.08594 0.81641-0.01172 0.35938-0.02734 0.4414v0.10547l-0.0078 0.10547-0.01172 0.10156-0.01562 0.11328-0.01172 0.0977-0.17188 0.27734 0.50391 3.0586 1.2148 4.418 0.19141 1.2422 0.09766 1.1445-0.03125 0.70313-0.03516 0.79687 0.12109 0.33594-0.16016 0.52735v-0.0156l-0.01953 0.0547 0.11719 0.0234-0.21875 0.37109 0.03516-0.0391 0.18359 1.9726 0.03125 0.004 0.06641 0.008 0.05078 0.0117 0.03125-0.008h0.01953l0.01563 0.004v-0.004 0.004l-0.0039-0.008 0.0039 0.008-0.05078-0.004h-0.18359v0.0195l-0.0039 0.004v0.0273l-0.03125 0.0156h0.0078l0.01563-0.0234 0.0039-0.0859v0.008-0.0156h-0.0039l0.0625-0.0156h0.02344l0.03125 0.004h0.01563l0.05469-0.004v-0.0742h-0.03516v-0.0156 0.0117-0.004 0.004-0.004 0.004-0.004 0.004-0.004 0.004-0.004 0.004l0.0039-0.004-0.0039 0.004 0.0039-0.008 0.0039-0.004h-0.0039l-0.01563 0.0117-0.0625-0.004-0.05078 0.008h-0.03125l-0.05859-0.0117-0.04297 0.008-0.01172-0.004-0.05469 0.008 0.0039-0.004-0.01563 0.004-0.0078-0.004h-0.0039l-0.16016-0.0117-0.01563 0.0117-0.01172 0.004-0.03906 0.0234-0.03906 0.0312-0.03516 0.0156-0.21094 0.0977 0.0078 0.0156-0.01172 0.0703 0.0039-0.008v0.0195-0.004l-0.0078 0.0156 0.0078-0.0156v-0.004 0.0156-0.0117h-0.0039 0.0039-0.0039 0.0039v0.0469-0.0469h-0.0039 0.0039v-0.0156l-0.0039-0.008 0.07422-0.0859 0.35938-0.16797-0.17578 0.082 0.17578-0.082-0.01172-0.004 0.01953-0.0234-0.0039 0.0273v0.004l-0.0039-0.004v-0.125h-0.0039 0.0039v0.004-0.004h-0.0039 0.03516l0.01172-0.004h0.01563l0.0039 0.004-0.0039 0.008v0.0195l0.0039 0.004v0.0859l0.0039 0.008 0.0039-0.004 0.01563 0.004v-0.004l0.0078-0.0156 0.0039 0.0156v0.0156l0.0078-0.008-0.0039 0.008 0.0078 0.004h0.01953l-0.0039-0.008v0.004h0.01172l0.01172-0.008 0.02344 0.008v-0.004 0.004l0.0078 0.004 0.0039-0.004 0.0078-0.004 0.01563-0.004 0.0078-0.004 0.0039 0.0117h0.0078l-0.01562-0.0312h0.0039v0.004l-0.0078-0.008 0.09375 0.16016-0.03125-0.1211 0.0078-0.0195 0.01172 0.0117 0.0039 0.008v0.0312l0.0078 0.0898-0.0078-0.0586 0.0078 0.0586-0.0078-0.0586 0.0078 0.0586-0.0078-0.0586 0.0078 0.0586-0.0078-0.0586 0.0078 0.0586-0.0078-0.0586 0.0078 0.0586-0.0078-0.0586 0.0078 0.0586-0.0078-0.0586v-0.0547 0.004h0.0039v-0.004l-0.0039 0.004h0.0039-0.0039v0.008l-0.0078-0.008-0.0039 0.0117-0.01172-0.0234-0.05859-0.0352h0.0039l-0.0039-0.004 0.0039 0.0234-0.0039 0.0117-0.01172-0.0117-0.0078 0.008-0.0039-0.0156-0.0039 0.004-0.0078-0.004v0.008l-0.0039 0.008h-0.0039l-0.0039 0.004-0.0078-0.004-0.0039 0.004h-0.01563l-0.01563-0.008 0.0039-0.008v-0.004 0.004-0.004 0.004-0.004l-0.0039 0.008 0.0039 0.0117v0.0156l0.0039 0.008-0.0039-0.004v-0.004 0.004l0.0039-0.008v0.004l-0.0039 0.004h0.0039v-0.0117 0.004l-0.01953-0.008-0.0039-0.004-0.01563 0.004-0.02344-0.004-0.01172-0.004-0.01172 0.004-0.11719-0.008 0.0625-0.0117-0.0625 0.0117 0.0078-0.0156v0.004l-0.0039 0.004h-0.0039l0.0078-0.008v0.004l-0.0039-0.0156v0.0156-0.008l-0.0039 0.0117h-0.0039l0.01172 0.0117 0.0039 0.0234v0.043l0.10156-0.0547-0.10156 0.0781v0.004l0.0039-0.004-0.0039-0.0234 0.0625 0.004-0.07031 0.0195-0.0078 0.008h0.0039l0.14453 0.0312-0.14453-0.0352-0.0039 0.0117 0.0078-0.004-0.0039-0.004 0.0039-0.008 0.0039 0.0117-0.0078-0.008 0.0078 0.004-0.0039-0.008 0.0039 0.008-0.0039-0.008 0.0039 0.0156-0.0039-0.0156 0.0039 0.008-0.0039-0.008-0.0078 0.0195 0.0078-0.0195-0.0078 0.0195 0.0078-0.008-0.01172 0.0156 0.0039-0.008v0.004l0.07813-0.043-0.07031 0.0312 0.0039-0.004-0.01172 0.0156v0.004-0.004l0.0078-0.0234-0.0078 0.0195 0.0078-0.0195 0.0039 0.008h-0.0078l0.17969 0.0586-0.06641-0.14453 0.06641 0.0508-0.17188-0.0391 0.0078-0.0156-0.0039 0.008 0.01172-0.0156v0.004l-0.02734-0.0117v-0.008l0.0078 0.004 0.02344-0.008-0.02734 0.0117 0.03125-0.0195 0.0039 0.008-0.03516 0.0156-0.35547 0.17969 0.07031-0.0156-0.07422 0.0625v0.004l0.0039-0.0508-0.0625 0.17578 0.05859-0.082h0.0039l-0.0625 0.082 0.0625-0.082v0.008-0.008h-0.0039l0.0039-0.0156v0.008l-0.0039-0.0156 0.01563 0.0469-0.0039-0.0117-0.0078-0.004-0.0039-0.008-0.0039-0.0156-0.0078-0.0117-0.01563 0.0156-0.01172 0.0195-0.01953 0.0352-0.02734 0.0156-0.02344-0.004-0.01563-0.004-0.01953-0.0117-0.0078-0.0156-0.01172-0.0117-0.0078-0.0117-0.0078-0.0195 0.0039-0.004 0.0078 0.004-0.0039-0.004-0.0039 0.004 0.0078 0.0312h0.0039v0.0195l-0.01563 0.0508-0.01953 0.0625-0.02734 0.043-0.03125 0.0586-0.01172 0.0703-0.0039 0.0859-0.0078 0.0859-0.0039 0.0781 0.0039 0.0898 0.01172 0.082 0.01953 0.0742 0.01953 0.082-0.0039 0.0859v0.0781l0.0078 0.0781 0.0078 0.0898v0.0859l0.0078 0.0977 0.02344 0.0703 0.03906 0.0508 0.03906 0.0547 0.03125 0.0547 0.03125 0.0625 0.04687 0.14062 0.03125 0.0586 0.02734 0.0703 0.02344 0.0508 0.0078 0.14844v0.082l-0.0039 0.0898-0.01563 0.16406-0.0078 0.0781-0.01172 0.0703-0.0078 0.0664-0.01172 0.082-0.0078 0.0781-0.0078 0.0664-0.01172 0.082-0.01172 0.0898-0.01563 0.0898-0.0078 0.082-0.02734 0.18359-0.01172 0.0898-0.01172 0.0781-0.01172 0.0937-0.0078 0.0898-0.0039 0.10156v1.1172l-0.02344 0.20312-0.02344 0.0898-0.02734 0.0898-0.02344 0.0898-0.02344 0.0859-0.02734 0.0859-0.04297 0.16406-0.07031 0.24609-0.01953 0.0742-0.04688 0.16407-0.02344 0.0859-0.02344 0.0937-0.01953 0.0898-0.02344 0.0898-0.03906 0.17188-0.01953 0.082-0.01953 0.0742-0.01953 0.0781-0.02734 0.0781-0.05078 0.15234-0.02734 0.0742-0.02344 0.0742-0.02734 0.0781-0.02734 0.082-0.03125 0.082-0.02734 0.082-0.02734 0.0781-0.02344 0.0742-0.03125 0.0781-0.02734 0.082-0.01563 0.10546-0.48828 1.5547-0.48438 5.4492-0.375 4.6875 0.01172 4.5508 0.0078 4.7617v0.0937l-0.02734 3.4883 0.12109 0.14063 0.01953 0.0469 0.01953 0.004-0.0039-0.0234 0.0039-0.0469 0.0039-0.0391v-0.0937l-0.02734 0.0156-0.03906 0.0156-0.03516-0.0117-0.03516-0.004-0.01172-0.008-0.0039-0.004-0.0039 0.008-0.0039 0.004v-0.0156h-0.0039v0.008h0.0039v-0.008 0.008-0.008 0.008l-0.0039-0.0117 0.0039 0.0117v-0.004 0.004h-0.0039l0.0039-0.004-0.01172-0.0117 0.37109 3.5703 0.02734 0.29297v0.0898l-0.10156 0.55078-0.25 1.3281 0.0039 0.1836-0.01953 0.0977-0.02734 0.0781-0.04297 0.0547-0.04297 0.0469-0.04687 0.0469-0.38672 0.23047-0.625 0.89844-0.72656 0.95703-0.33594 0.10547-2.2188 0.35156-0.07031-0.39453-0.32812 0.0234-0.78125 0.11719-0.42188 0.17968-1.1133-0.96875-0.03125-0.0195-0.03516-0.0156-0.03125 0.0195-0.66406-0.15234-0.0039-0.008-0.125 0.16797-0.42969 0.46485 0.02344 0.0234-0.06641 1.0117 0.02734 0.4336v0.0508l0.0039 0.0742v0.0977l-0.0039 0.0508-0.01172 0.0742-0.0078 0.0742-0.0039 0.0625-0.0039 0.0703 0.02344-0.10547-0.23047 1.0352 0.0039-0.0195-0.10156 1.582-0.375 1.8828 0.33203-0.53125 0.04687-0.0508 0.01172 0.19922 0.03906 0.90234 0.03125 0.0273 0.05078 0.15625-0.03125-0.0273v-0.008 0.008-0.008h0.0039-0.0039l-0.0039 0.008 0.0039-0.008h-0.01172v1.1719l-0.34375 0.51172v0.004l-0.01172 0.0742-0.0039 0.043-0.0039 0.0742-0.0078 0.0742-0.28516 1.0586-0.25 0.37109-0.50391 1.6172 0.01563-0.1875v0.0117l-0.01172 0.0977-0.0039 0.0977v0.13282l-0.0039 0.008v0.17578l-0.01172 0.0312h-0.02344l-0.02344-0.004-0.01953 0.004-0.04687 0.18359-0.0078 0.79297 0.0078 0.79297-0.0039 0.65234-0.26172 1.8594-0.28516 2.4727-0.04297 0.59765-0.0039 0.0195-0.03125 0.70703v0.25391l0.73828 2.8086 0.02734 0.0898-0.17578 4.4141 0.03516-0.0703-0.02344 0.0703v-0.0352h-0.0039l0.0039 0.004v0.004-0.008l-0.01563 0.21094v0.0469l-0.01563 0.33593 0.01563 0.19922-0.0078 1.3203 0.0039 0.0117 0.02734 0.0469 0.449 3.32 0.23438 1.9531 1.125 3.3047 0.03125 0.0391 0.03125 0.043 0.03516 0.0312 0.03125 0.0195 0.03125 0.0156 0.03516 0.0195 0.03125 0.0195 0.09766 1.3555-0.38281 2.1602 0.0039 0.1289-0.04297 0.0703 0.0039 0.125-0.01563 0.0508 0.02734 0.0742-0.0078 0.0195v0.0156l-0.0039-0.0156 0.17969 0.23047-0.14453-0.0859 0.15625 0.0937-0.01172-0.004-0.14453-0.0898 0.14844 0.0781 0.0078 0.0156 0.14453 0.1875 0.22266 0.76953-0.0039 0.004h0.19141v0.004l-0.0039 0.008-0.23047 1v0.0195l-0.02344 0.008 0.0039 0.0156v-0.0117l-0.0039-0.004-0.01172-0.0156v0.004l-0.01563-0.0391h0.0039l-0.0039 0.004h-0.0039l0.0039-0.004 0.02734 0.0586 0.0039 0.004v0.004-0.004l-0.37109-2.1602 0.49219 2.2695v-0.004l-0.01172-0.043-0.0039-0.0352-0.0039-0.0586 0.02344-0.32422v-0.004l-0.0078-0.0664 0.0039-0.0625 0.0039-0.0469-0.0039-0.0547v-0.33984l-0.02344-0.0195-0.01953-0.0391-0.5625-1.3242 0.07812 0.11328 0.01172 0.0352-0.01172-0.0352-0.03125-0.0312 0.0039-0.004-0.0039 0.0117 0.0039-0.008-0.05078-0.082 0.05078 0.082v-0.004l-0.0039 0.004v0.004l-0.10937-0.0234 0.0625 0.0117-0.02734-0.0508 0.01953-0.10546-0.0039 0.0898 0.0078 0.004 0.0039-0.0117-0.0039 0.0117 0.0039-0.0117v-0.004 0.004h0.0039v-0.004l-0.0039 0.004v-0.004 0.004l0.0039-0.004-0.0039 0.008v-0.004 0.008l-0.0039 0.004v0.0195l0.0078 0.0234 0.0078 0.0117h0.01563l0.0039 0.004 0.02344 0.0156 0.04297 0.0781 0.05469 0.0937 0.05469 0.0742-0.02344-0.0312-0.20703-0.50781-0.10156 23.625 1.1211-12.973 0.02344-0.0156-0.02344 0.0156-0.24219 0.62891-0.41406 2.8633 0.29297 2.5195 0.01563 1.5391 0.05469 0.35156v0.004-0.004 0.0156-0.0195l-0.0039 0.0117v0.0351l-0.05859-0.004-0.66797 4.0352 0.05078-0.0469-0.01172 0.0625-0.02734 0.0976-0.03125 0.0859-0.06641 0.15625-0.03125 0.082-0.01563 0.0977-0.0039 0.11719-0.0039 0.21875 0.02344 0.0937 0.02734 0.0898 0.14453 2.1211 0.41406 1.5781v0.48828l0.27734 0.78516 0.60937 0.96875 0.67188 1.3672 0.21094 1.7266 0.37109 0.71875-0.03906 0.11718 0.59375 1.8086-0.07422 2.1914 1.4805 5.8203v-0.004 0.0156l0.83984 2.8398v0.0742l0.0625 0.60937v0.0234l0.92578 5.8047 0.04687 0.34375 0.34375 1.625 0.33203 0.86328 0.29297 0.49219 0.21484 3.0391 0.01172 0.55469 0.0078 0.0391 0.49609 2.0625 0.0625 0.70312v-0.008 0.008l0.0039-0.004h-0.0039v0.004-0.004 0.004l0.0039-0.004-0.0039 0.004v0.1211l0.75391 3.5352 0.05469 0.57813 0.47656 1.0195 0.49219 1.0195 0.04687 0.69531 0.13281 1.4141 0.19531 0.59375 0.25781 0.83593 1.8125 9.8906-0.03125-0.82422v0.0117l-0.0039 0.004v0.0195l-0.0039 0.0312-0.0078 0.0117 0.0039 0.0859 0.04297 0.66016-0.04297-0.50781 0.20703 1.0742 0.01172 0.043 0.02734 0.0937 0.01953 0.0899v0.10937l-0.01172 0.10938-0.02344 0.0976-0.01172 0.0899-0.0078 0.1914 0.16797 1.4688 0.21875 0.39063 0.5625 0.33594 0.75391 0.74609 0.01953 0.0664 0.01563 0.0664-0.0078-0.0937 0.16406 1.3047 0.05078-0.0469 0.04297-0.0312-0.0078 0.004 0.0078-0.004h-0.0039 0.0039-0.0039l0.0039-0.004-0.0039 0.004h-0.0039l0.01172-0.004-0.0078 0.004 0.0039-0.0117 0.01953 0.0234-0.01953-0.0195 0.01953 0.0195-0.01953-0.0195 0.0039 0.008h-0.0039v-0.004l0.0078-0.008-0.0078 0.0156 0.0078-0.0156-0.0039 0.004 0.0039-0.004-0.0078 0.0117v-0.004l0.0039-0.008v0.004h0.0039v-0.004h-0.0039l-0.0078-0.004 0.0039 0.0117 0.0078-0.004v-0.004l-0.0039 0.004-0.0039 0.008 0.0078-0.0117-0.0039 0.008-0.0039 0.004 0.0039-0.008 0.0039-0.004-0.0039 0.0117 0.0039-0.008v-0.004l-0.0078 0.0117 0.0078-0.0117-0.0078 0.0117 0.0078-0.008h-0.0039l-0.0039 0.008 0.0039-0.008-0.0039 0.008 0.0039-0.008h0.0039v-0.004l-0.0078 0.0117 0.0039-0.008 0.0039-0.004-0.0078 0.008v0.004l0.0078-0.0117-0.0078 0.0117 0.0078-0.008-0.0039 0.008h-0.0039l0.0078-0.008-0.0078 0.008 0.0078-0.0117v0.004-0.004 0.004l-0.0078 0.008 0.0078-0.0117-0.0078 0.0117 0.0039-0.008 0.0039-0.004-0.0078 0.0117v0.004l0.0078-0.0156-0.0078 0.0117 0.01953 0.008-0.01953-0.008 0.0039-0.004v-0.004 0.008-0.008h0.0039l-0.0078 0.008 0.12109 0.0117-0.10547 0.0352 0.09375 0.0117 0.03125-0.0625 0.03516-0.082 0.0078-0.0156-0.0039-0.0391h0.05469-0.05469v0.0156l-0.0039 0.0391-0.02734 0.0586-0.11719 1.0938 0.0039 0.0156 0.0039 0.004-0.0078 0.0274-0.0078-0.0195 0.0078-0.0234-0.01563 0.008-0.01563-0.0234-0.0039-0.004 0.01563-0.008 0.0039-0.043 0.0039-0.0469v-0.004l0.0078-0.0391-0.14062-0.0156 0.07813 0.0664-0.12109-0.12109v-0.008l-0.03125-0.0234-0.01172 0.008-0.88281 1.2148-0.0039 0.008v-0.008h0.0039l-0.0039 0.004-0.0078-0.004-0.0078 0.004h-0.0078l-0.01172 0.004h-0.01172l-0.01563 0.004h-0.01172l-0.0039 0.004h-0.01563l-0.0078 0.004h-0.0078l-0.0039-0.0117-0.0078-0.004-0.0039 0.004-0.0078-0.004v-0.0117l-0.0039-0.004-0.0039 0.043 0.08203-0.043-0.11719 0.008v0.004h-0.0039 0.0039-0.0039v0.008-0.0156 0.008l-0.0078-0.0156v0.004h-0.0078v0.004l-0.0039-0.004-0.0039 0.0117v0.0117-0.004l0.0625-0.41797-0.07031 0.34765 0.0039 0.0899v-0.0859l0.05078 0.53125-0.04297-0.42578-0.0078-0.043 0.07422-0.0586-0.08203 0.0312v-0.008 0.008-0.004 0.004l-0.11328 0.0937 0.17188-0.0781-0.05078 0.0156h0.0039v-0.0156l0.0078-0.0117 0.0078-0.004 0.04687-0.15625-0.04297 0.10547 0.0078-0.0195-0.0078-0.0351-0.0039-0.004-0.0078-0.0273 0.01953 0.0117 0.0039-0.004h0.01953l0.0078-0.004 0.01563-0.004 0.0039 0.004 0.0039-0.004h0.01563l0.01172-0.004h0.0078l0.03125-0.004 0.0039 0.008-0.0039-0.0156v-0.0937l0.0039-0.008 0.0078-0.004h0.0039v-0.0391l0.0039 0.004 0.0039-0.004h0.0078v-0.0117 0.004-0.004 0.004-0.004h0.0039-0.0039l0.0039 0.004h-0.0039v-0.004 0.004-0.004 0.004l0.0039-0.008v0.008l-0.0039-0.004h0.0039l-0.0039 0.004 0.0039-0.004v0.004-0.004l-0.0039 0.004v-0.004 0.0547l0.0039 0.0273v0.082-0.004 0.0156l0.0039 0.0156v0.0547l0.0039 0.0156-0.0039 0.008 0.0039 0.0195-0.0039 0.0117 0.0039 0.0117v0.0156l0.0039 0.004h0.0039l0.0078-0.004h0.02344l0.0078-0.004h0.01563l0.0078-0.004h0.0078l0.01172-0.004v0.004-0.004h0.0039v-0.0117h-0.0039l0.0039-0.004-0.0039 0.004 0.0039-0.004-0.0039 0.004h0.0039-0.0039v0.004-0.008 0.004h0.0039v0.0117-0.0156 0.0156l-0.0078 0.004h-0.01172v0.004h-0.03125l-0.0078 0.004h-0.0078l-0.01172-0.004h0.0039-0.0039v-0.004 0.004l0.0078 0.004-0.0078 0.008v-0.0586l-0.0039-0.0195v-0.0859l-0.0039-0.0547v-0.0312l-0.0039-0.0352 0.0039-0.008-0.0039-0.0351v-0.0742l0.0078-0.0664-0.0039-0.008 0.01172-0.0195-0.0078-0.0117-0.0039-0.0195v-0.0469l-0.0078-0.043h0.0039l-0.0039-0.0117-0.0039-0.0391 0.0039-0.0117-0.0039-0.0156-0.0039-0.0547v-0.0352l-0.0039-0.008v-0.0469l-0.0039-0.0352v-0.008l-0.0039-0.0156h0.0039l-0.0039-0.0234-0.0039-0.0508 0.0039-0.0156v-0.0117l-0.0078-0.043-0.0039-0.0664v-0.0195l-0.0039-0.0273v-0.0156 0.004l0.0039-0.0195v0.004l-0.0039 0.0117 0.0039-0.0117 0.0039-0.004-0.01172-0.008 0.0039-0.0195v-0.004 0.0234-0.0234l-0.0039 0.004 0.0039-0.004-0.0039-0.0117-0.0039-0.004 0.0039 0.008h0.0039v0.008l0.0039-0.0156-0.0039 0.0156v0.004l0.0039-0.0977 0.0039 0.0312 0.0039 0.0469-0.0039-0.0469v0.0469l-0.0039-0.0742-0.0039 0.082 0.0078 0.0391-0.01172 0.0195 0.0039-0.0664 0.01563 0.004 0.0078 0.0156-0.02734-0.0117 0.01953 0.004-0.01953-0.008 0.0039 0.0117 0.01563-0.008-0.01172-0.004 0.0039-0.0312 0.02344 0.0312-0.01563 0.0156 0.0039-0.0156v0.0156l-0.0039-0.0156 0.0039 0.0156v-0.004l-0.0039 0.004h0.0039v-0.0156h-0.0039v0.004l-0.0039 0.0312v0.004l0.0039 0.0234v0.0391l0.0039 0.0195 0.0078-0.004h0.01172l0.0039-0.004v-0.004l0.0039 0.004v-0.004h0.0078v-0.004 0.004l0.0039 0.0273v0.043l0.0039 0.0156v0.0195l0.0039 0.0195 0.0078-0.004 0.0039-0.004v0.004l0.0039-0.004v0.004-0.004l0.0039-0.004-0.0039 0.004h0.0039l0.0039-0.004h0.0078l0.0078-0.008h0.0039l0.0039-0.004 0.0039 0.004 0.0078-0.008h0.01172l0.0039-0.004 0.0078-0.004h0.01172l0.0039-0.004 0.0078-0.004 0.01172-0.004v0.004h0.0078l0.0078-0.008 0.0078-0.0195 0.0039 0.0117v0.008l0.0039 0.008 0.0078 0.0351 0.0039-0.004 0.0039 0.0156 0.0078 0.008-0.0039 0.004h0.0039v-0.004 0.004-0.004 0.004l0.01172 0.0274-0.0039 0.004h0.0039l-0.0078-0.0117 0.0078-0.0117 0.01563-0.004 0.0078-0.008-0.0078 0.11328 0.10156-0.13672h0.0039l0.01563-0.008 0.0625-0.0195 0.0039-0.004 0.21875-0.14063 0.10156 0.004 0.07422 0.23828 0.09375 0.0352h0.03906l0.01172-0.008v-0.0586l0.03906 0.0781 0.08594-0.0703 0.0039 0.043-0.0039-0.043-0.01563 0.0117 0.01563-0.0117-0.01563 0.0117 0.01563-0.0117-0.10547 0.0859 0.08203-0.0937h0.01563l0.0078 0.004 0.0039 0.008 0.0039-0.004-0.0039 0.004h0.0039-0.0039l-0.0039-0.004v-0.004h-0.0039l-0.0039-0.0156v0.004h-0.0039l0.0078 0.0156h-0.0039l0.0078 0.008 0.0039-0.004 0.0078 0.0195 0.0039-0.008 0.01563-0.008 0.0039 0.0156 0.01172 0.0156v0.004l0.0039-0.0195v0.004l-0.0039 0.004v-0.0156l0.0039-0.008-0.01172 0.0156 0.01172-0.008 0.01562-0.0234v-0.0117l-0.01953-0.0234-0.02344-0.0312-0.03125-0.0351-0.0078-0.0625 0.0078-0.0664 0.01563-0.0703 0.01953-0.0664 0.01953-0.0625 0.01172-0.0742 0.0078-0.082 0.0078-0.0781 0.0039-0.0664 0.0039-0.0781 0.0039-0.0586-0.0078-0.008-0.01172-0.004h-0.0078l-0.03125-0.0156-0.01563-0.0156 0.0039-0.0234v-0.0195l-0.0039-0.0312v-0.0547l-0.0039-0.0234 0.0039-0.004h0.0039l0.0039-0.004v-0.004l0.0039-0.004-0.0039 0.008v-0.004l0.0039-0.004-0.0039 0.008v0.004l0.01562 0.0117-0.01953-0.0156v0.004l0.0039-0.004-0.0078 0.008v-0.004h0.0039l0.0078-0.008-0.0039 0.004 0.0039-0.008-0.0039 0.008v-0.004 0.004l-0.0039 0.004 0.0039-0.004-0.0039 0.008 0.0039-0.008v-0.004 0.004-0.004 0.004-0.004 0.008-0.008l0.0039-0.004-0.0039 0.008 0.0039-0.008-0.0078 0.0156v-0.004l0.0039-0.004 0.0039-0.008-0.0039 0.008v-0.004h0.0039l-0.0078 0.008 0.0039-0.008v0.004l0.0039-0.008-0.0039 0.0117v-0.0117 0.008l0.0039-0.004-0.0039 0.008v-0.004l0.0039-0.004-0.0039 0.004 0.0039 0.0156-0.0039-0.0156v-0.004 0.004l0.0039-0.008-0.0039 0.008v-0.004 0.004-0.004l0.0039-0.004-0.0039 0.008v-0.004 0.004l0.0039-0.004-0.0039 0.004v-0.004l0.0039-0.004-0.0039 0.008 0.0039-0.004h-0.0039v0.004-0.004 0.004l0.0039-0.004h-0.0039v0.008-0.008l-0.0039 0.0117 0.0039-0.008v-0.004l0.0039 0.004-0.0039 0.004v-0.008l0.0039-0.004-0.0039 0.008 0.01562 0.0156-0.01953-0.0156h0.0039l-0.0039 0.008v-0.004 0.004l0.0078-0.0156 0.01172 0.0234-0.03125-0.0234 0.01172-0.004 0.0039-0.004v-0.008l0.0078-0.0156 0.0039-0.0156h0.0078l0.0039-0.0195 0.01172 0.004v-0.0117l0.0078-0.008 0.01172 0.004 0.01172-0.004h0.02344l0.01172-0.0117h-0.0039l0.0039-0.004 0.0078-0.004 0.01953-0.004 0.01563-0.0117 0.0039-0.004 0.0078-0.004 0.01562-0.004h0.0039v0.008-0.004 0.004l0.0039 0.0547v0.004-0.004 0.004h0.0039-0.0039l0.0078 0.0586-0.0078-0.0586v-0.004 0.004h0.0039-0.0039 0.0039-0.0039v0.004l0.0039-0.004h-0.0039v-0.004 0.004-0.004 0.004-0.0117l-0.04687-0.13672 0.02734 0.0469h-0.0039l-0.01172 0.004-0.0078 0.004h-0.0039l-0.01563 0.008-0.0039 0.004h-0.0039l0.01953 0.0703-0.03125-0.0664-0.01563 0.004-0.01563 0.008-0.0039 0.004h-0.01172l-0.0039 0.004h-0.0078l-0.01172 0.008 0.0039-0.008v0.004l-0.0039 0.0195v0.0195l-0.0039 0.004v0.0156l-0.0039 0.0156-0.0078 0.0117-0.0039 0.004-0.0039 0.0234h-0.0039l-0.0078-0.004v0.0234l-0.01172-0.004 0.01172-0.004 0.0078-0.004h-0.0039 0.0039l-0.0039-0.008 0.01953 0.0273-0.02344-0.0117 0.0039-0.008v-0.008 0.0156-0.008h0.0039v0.004l0.0039-0.004v-0.004h-0.0078v0.004-0.008 0.008l0.0039 0.004v-0.004 0.004-0.004 0.004l-0.0039-0.008v0.004l0.0039 0.004-0.0039 0.008 0.0039-0.008v-0.004 0.004-0.004l-0.0039 0.008v-0.008 0.008-0.0156l0.0039 0.0117-0.0039-0.008 0.0039 0.008 0.0039-0.004-0.0039 0.004v-0.004 0.008l0.0039-0.008v-0.004 0.004-0.004l-0.0078 0.0117v-0.004l0.0078-0.008-0.0039 0.008v-0.004 0.008l0.0039-0.008-0.0078 0.008 0.01953 0.0117-0.02734-0.0117 0.02734 0.0117-0.01172-0.0195-0.0078 0.0117v-0.004 0.0156l0.01953-0.004-0.01562-0.0156h0.0039l0.01172 0.0156-0.01953-0.0117v-0.004l-0.0039 0.004 0.02344 0.0117 0.02734 0.082 0.23438 1.2734 0.25391 0.69141v-0.008l0.61719 1.5703 0.40234 1.5039-0.0039-0.004v0.008l0.25 0.44531 0.16797 1.2344 0.28125 0.48047 0.45703 1.7383 0.1875 1.7031 0.11719 0.0352 0.03516 0.0312 0.03516 0.0586 0.03125 0.0781 0.02734 0.0781 0.02344 0.082 0.02734 0.0781 0.02344 0.0781 0.02734 0.082 0.19141 0.55078-0.04297-0.10547 2.1367 8.3047-0.08203-1.3633 0.01172 0.33204 0.07031 1.0312-0.02734 0.25 0.0039 0.008v0.0117l0.0078 0.008-0.10156 1.0859 0.04687-0.35547-0.04687 0.35547-0.53125 1.4531 0.02734 3.4336v0.0312-0.008l0.0039 0.008-0.0039-0.008v-0.008l0.0039 0.0117 0.01562-0.0586v0.004h-0.0039l0.46875 1.2344 0.01953 0.0351 0.02734 0.0625 4.0859 11.074 0.84766 2.6016 0.0117 0.0391 0.0195 0.0898 1.3633 4.582 0.21875 0.60938-0.004 4.1133 0.0117-0.19531v-0.0195 0.0156-0.008l-0.004-0.008 0.004 0.008-0.004-0.008 0.004 0.008v-0.004 0.004-0.008 0.0312l-0.043 0.3711 0.008 0.0273v0.004l-0.0195 0.0469-0.0195 0.0742-0.0234 0.0742-0.0234 0.0703-0.0195 0.0703v0.0898l0.008 0.0547 0.0117 0.0898 0.0156 0.10938 0.48828 1.6602-0.0195-0.125 0.0586 0.28906 0.0156 0.0859 0.008 0.0937-0.0156-0.0508 0.0898 1.4375-0.0742 0.41016v0.0195l0.11719 0.87109-0.26172 0.75391 0.0937 3.2422 0.46875 0.8125-0.11328-0.23438 0.75391 1.5234 0.59765 2.6875 0.0234-0.58985-0.0234 0.58985 0.41016 2.2148 0.60937 1.8164 0.91016 1.1836-0.20313 1.8555-0.26562 2.8047 2.043 0.98047 0.008 0.0195 1.7578 0.46875 0.0586 0.0234 2.2031 1.6484 0.25781 0.50782 0.0312 0.125 1.2344 1.3789 0.14062 0.19922h-0.004l0.0195 0.0156 0.33203 0.55468 0.0234 0.008 0.27734-0.74219 1.332-0.26563 0.47657-0.19531-0.11719 0.0234h0.10156l0.0937 0.004 0.0117-0.0156 0.0195 0.004 0.65625-0.0625 0.93359 0.0469 1.3477 0.26953 0.0273 0.0352 0.58594 0.77344 0.92969 1.8008 0.0195 0.0781 0.008 0.0937 0.008 0.0899 0.008 0.0781 0.008 0.082-0.043 0.4336-0.0391 0.0156-0.0156 0.0508 0.004 0.16406-0.004 0.0195v-0.004l0.004-0.0234v0.004-0.004 0.004l-0.004 0.0156v0.008l-0.0391-0.0195 0.0391 0.0117v0.008-0.004l-0.0391-0.0156 0.0391 0.0195v-0.004l0.004 0.004v0.0703-0.004 0.004l-0.004-0.0117 0.004 0.0117-0.004-0.004v0.0117l0.004 0.0469 0.004 0.0547v0.29688l-0.008 0.0742 0.10547 0.0508 0.0156 0.004 0.1289 0.1875 0.0898 0.20704 0.0156 0.0898h0.0469l-0.043 0.0781h0.004l-0.004 0.004h0.004v-0.004l-0.004-0.0156 0.004 0.0156-0.004-0.004-0.004-0.0117-0.004 0.004v0.0156l-0.008-0.0117v0.004-0.004 0.004-0.004 0.004-0.008 0.008-0.004 0.004-0.004 0.004h0.004-0.004 0.004-0.004v-0.008 0.008l0.004-0.004v-0.004l0.004-0.0234-0.14844-0.40235-0.043-0.0508-0.0195-0.0351-0.0234-0.0352-0.0195 0.0469-0.0312-0.0352-0.0469-0.0625-0.0117-0.0859v-0.33984l-0.008-0.0664v-0.0703l-0.0117 0.0195 0.0117-0.0156v-0.004 0.004-0.004 0.004l-0.043-0.0156 0.0156 0.0156v0.0273l-0.0195 0.21094 0.0156-0.0703 0.004 0.0977-0.004 0.0977-0.004 0.0703 0.0117 0.0664 0.0391 0.0234 0.0664 0.0586 0.043 0.0351 0.0625 0.0899 0.0586 0.0586 0.0156 0.0508 0.0117 0.008 0.0195 0.0391-0.0156 0.0547-0.0273 0.0742-0.0156 0.0625-0.0391 0.10547v-0.0273l-0.008 0.0234h0.004l-0.0156 0.0234-0.004 0.0117-0.0156 0.0156v0.0234l0.0273 0.0117-0.0312-0.0117-0.043 0.125 0.004 0.008 0.004 0.004v0.043l0.004 0.0391-0.0273 0.0156-0.0898-0.004-0.20312-0.008-0.14844 0.0391-0.13281 0.0547-0.0859-0.0273-0.0625-0.0195-0.0312-0.0469-0.0977 0.0977 0.0469-0.082-0.0469 0.082-0.008 0.004-0.008 0.0117-0.0273 0.0117 0.0234 0.0234 0.004-0.004-0.0195-0.0195-0.0117 0.0156v0.008l-0.008 0.008-0.0195 0.0352h-0.004l-0.0117-0.008-0.004-0.004 0.004 0.008v-0.0117l-0.008 0.008v-0.004 0.004l0.004-0.008-0.0156 0.0274-0.0312 0.0234-0.008-0.0117-0.004 0.008-0.0156 0.0273-0.0117 0.0156-0.0234 0.043-0.0625 0.0859v-0.0117l-0.0312 0.0547-0.0352 0.043-0.008 0.0156-0.0156 0.0352-0.008 0.0156-0.0117 0.0195-0.0156 0.0273-0.004 0.004-0.0234 0.0391-0.0273 0.0391-0.004 0.004-0.043-0.0586-0.0234 0.0234-0.0273 0.0586-0.0547 0.0742-0.0156 0.0274-0.0156 0.0156-0.004 0.0117-0.0156-0.0117-0.0273 0.004-0.0234 0.0469-0.0273-0.0976-0.0156-0.008-0.0234-0.0508-0.0117 0.0195v-0.0234l0.0117 0.0273-0.004 0.0117v-0.008h-0.008l-0.004-0.0469-0.0195-0.082 0.0234 0.10156v0.0195l0.008 0.0312 0.004-0.0117v0.0273-0.0352l-0.004 0.004v0.0117l-0.004-0.0156h0.008l-0.0117 0.004v-0.0312l-0.0195-0.0547 0.0117 0.0195 0.004 0.043-0.008 0.0312v-0.0586l0.0117 0.043v-0.0117l-0.004 0.004 0.008 0.008-0.008-0.0156 0.0117 0.0156h-0.008 0.004l-0.008-0.0156-0.0234-0.0781 0.0234 0.0781-0.0234-0.0781 0.0156 0.0508v0.0586l-0.004-0.0508 0.0195 0.0312-0.004-0.0117-0.0117-0.008 0.0117 0.008 0.004-0.0391-0.0195-0.0195 0.0117 0.0352-0.008 0.0547-0.0156-0.10547 0.008 0.0156-0.008-0.0156 0.0273 0.0781-0.008-0.004v-0.004l0.004 0.004-0.008-0.0273-0.0156-0.0469 0.0156 0.0508v-0.004l-0.0156-0.0469 0.0156 0.0469 0.008-0.004-0.004 0.0352-0.0117-0.0664h-0.004l0.0195 0.0234-0.0195-0.0391v-0.004l-0.004 0.004 0.0234 0.0781v-0.0351 0.0351l0.008-0.0351v0.0469l-0.004 0.004v-0.0117l-0.004-0.004v-0.004l0.004-0.0117-0.004 0.0156-0.0117-0.0508 0.0156 0.0547-0.008-0.008 0.0117-0.0156v0.0156l0.0156 0.0742-0.0117-0.10938 0.0117 0.10938-0.0195-0.0664 0.0117 0.0156-0.008-0.008-0.004-0.008 0.004-0.0391-0.008 0.0273v-0.0234l-0.0117-0.0234 0.0117 0.0234 0.0117 0.0391v0.008l-0.004-0.0117-0.004 0.008 0.008 0.004-0.008-0.0391-0.004-0.0274 0.008-0.0391-0.0117-0.0664-0.004-0.0351 0.008-0.004-0.004 0.004 0.008-0.004v-0.004l0.043-0.0742 0.0859-0.15235 0.30079-0.20312 0.26953 0.0703 0.10547-0.125 0.0117-0.0117 0.0586-0.0312 0.0508 0.043 0.0312 0.0234h0.0312l0.0273 0.0117 0.0469-0.0469 0.0117 0.0234 0.19531-0.0312-0.0234 0.008 0.0469-0.0234 0.043-0.0117h0.0547l0.082-0.004 0.11719-0.0195 0.11719-0.23438 0.0937-0.35156-0.15625-0.22656v-0.008l-0.0195-0.0195-0.008-0.004-0.0273-0.0234-0.0469-0.0273-0.0391 0.004v0.004-0.0156l0.004-0.1289-0.004-0.13672v-0.22656l0.004-0.0352 0.0273 0.004v-0.004 0.004h0.004v-0.0234h-0.004l0.004-0.004h-0.004 0.004-0.004 0.004-0.004 0.004l-0.004 0.0195 0.004 0.008h-0.004v-0.004 0.004-0.004h-0.004l0.004 0.004v-0.004 0.004-0.004 0.004l-0.0469-0.0195 0.0469 0.0156v-0.004 0.008-0.004 0.004-0.004l-0.004-0.004 0.004 0.008v-0.004 0.004-0.004 0.004l-0.0469-0.0195 0.0469 0.0195v-0.004 0.004-0.004 0.004l-0.0469-0.0195 0.0469 0.0195v-0.004 0.004-0.008 0.008-0.0274l0.004-0.0156v0.004-0.004 0.004-0.004l-0.004 0.0195v0.0234h0.004-0.004l0.004 0.11718 0.004 0.17578-0.004 0.0703v0.0469h-0.0195l-0.0156 0.0117 0.008 0.082 0.0469 0.0195 0.0664 0.0625 0.0977 0.11719 0.0977 0.12891-0.0234 0.13281-0.0625 0.17969 0.0664 0.0273-0.0156 0.13281-0.008 0.0234-0.0156-0.0312 0.0156 0.0312 0.008-0.0312 0.0156-0.125-0.0234 0.008-0.0391-0.46875-0.0156-0.17187-0.0586-0.0742-0.0547-0.21484-0.0742-0.17188v-0.0781l-0.0469-0.0195 0.0469 0.0195v-0.004 0.004-0.004 0.004-0.004 0.004-0.004 0.004-0.004 0.004-0.0117 0.008-0.004 0.004-0.004l-0.0469-0.0117 0.0469 0.0156-0.0469-0.0156 0.0469 0.0156v0.004-0.004l-0.008 0.0234 0.004-0.0156v-0.004l-0.11328 0.082 0.082 0.004-0.082-0.008-0.0977 0.004v0.008l0.004-0.008h-0.008l-0.0195 0.004-0.0273-0.008 0.0195 0.0117v0.008l-0.0312 0.15235h-0.0391l-0.004 0.11328-0.0664 0.0508h-0.0469l-0.004-0.004v0.004l-0.004-0.004h-0.0352v-0.004h-0.008l-0.004 0.004h-0.0352l0.004-0.004h-0.004v0.004-0.004l-0.004-0.004-0.008 0.004h-0.004l-0.008-0.008-0.0156 0.004-0.008 0.004-0.004-0.004h-0.008 0.0195l0.008-0.004 0.0156 0.008 0.008-0.004h0.004v0.004h0.0117l0.004-0.004 0.004 0.004h0.0352l0.004 0.004 0.004-0.004v0.004l0.008 0.004h0.004l0.0117-0.004 0.004 0.004 0.008 0.004 0.004 0.008-0.004 0.0195v0.0273l0.004 0.0195-0.004 0.0195 0.004 0.0156-0.004 0.008v-0.008 0.0469-0.004l0.004 0.008v0.0352-0.008h-0.004v-0.0117l0.004-0.0195v0.008-0.004l-0.008 0.0117 0.008 0.0156-0.004 0.008v0.0664l0.004 0.0156-0.008 0.043h-0.008l-0.008-0.004-0.0117-0.008-0.0117-0.0117-0.008-0.004-0.004 0.004-0.008-0.0117-0.008 0.008-0.0117-0.004 0.004 0.004-0.0156-0.0195 0.004-0.0117-0.004-0.0156-0.004 0.004-0.008-0.004h-0.008v-0.004l-0.004 0.008v-0.008 0.008l-0.004-0.004 0.004 0.004-0.004-0.004 0.004 0.004-0.004-0.004 0.004 0.004h-0.004v-0.004l0.004 0.004h-0.004 0.004l-0.004 0.004h-0.004v-0.008 0.004-0.004h0.008v-0.0117l-0.008-0.008v0.0117l0.004 0.004-0.0117-0.0312v-0.0156l0.008 0.0195-0.008-0.0547v-0.008l-0.0234 0.0586 0.0195-0.0742 0.004-0.0117v-0.0469 0.008h0.004-0.004v0.0117l0.004-0.008-0.004-0.004h0.004v0.004l-0.004 0.004v0.004l0.004 0.008-0.004-0.004v0.008l0.004-0.0547v-0.21094l0.0781-0.0156h0.0117v0.004l0.0117-0.004h0.16016l0.0977 0.004 0.11718-0.19922-0.082-0.043 0.0625-0.008 0.0742 0.0234 0.0273-0.0234 0.004-0.004v-0.0195 0.004-0.004 0.004-0.004l-0.004 0.004 0.004 0.0195h-0.008l-0.004 0.0156 0.008-0.0156v-0.004 0.004h0.004l-0.0117 0.0117 0.008 0.008v-0.004l0.004-0.0156-0.0117 0.0273v0.008l0.008-0.043 0.004-0.0351-0.004-0.0899v0.004l0.004-0.0937v-0.004 0.004l0.0156-0.0117 0.0625-0.0391v0.004l0.0117-0.0234 0.008-0.004 0.0195-0.0664-0.008-0.15234-0.0117-0.11328v-0.004l-0.008-0.0469-0.008-0.0781v-0.0312l0.004 0.043-0.0352-0.23437 0.0117 0.0234v-0.0234l-0.004-0.0234v-0.0234l-0.004-0.0195-0.008-0.0352 0.0508-0.0625 0.1914-0.0781h-0.0781 0.10937l0.0273 0.0156 0.0273 0.0391 0.30859 0.1875-0.0312-0.043 0.0234-0.0117 0.0352 0.0273 0.0273 0.043 0.0352 0.0469 0.10156 0.0195-0.0156-0.008 0.3789-0.22266 0.0234-0.004h0.0742l0.14062 0.004 0.008 0.008 0.0156 0.0234 0.0195 0.043 0.0352 0.0234h0.0352l0.0703-0.0234 0.25781 0.0117 0.004 0.004 0.0195 0.0547 0.0742 0.0977-0.004-0.004 0.0977 0.12109 0.0195 0.0117 0.0156 0.004 0.0117-0.0195 0.16406 0.043 0.0508-0.0195 0.0234-0.004 0.0352-0.004 0.11328 0.0625 0.0625 0.0625 0.0937-0.004 0.082 0.0391 0.043 0.0703 0.0234 0.0586 0.0273 0.0469 0.0234-0.004 1.0938 0.0391-0.0195 0.11328 0.20312-0.14063 0.19922-0.0195 0.0781 0.0195 0.0352-0.0312 0.0273-0.0625 0.0273-0.0547v-0.0352l0.71094-0.14453 1.832 0.008h0.0156l1.0274 0.0508 1.0391 2.6641-1.3125-2.918 1.3125 2.918 0.46875 1.2461-0.082-0.15235 0.0234 0.0547 0.0586 0.0977 0.37109 0.5664 0.0352 0.14454 0.22656-0.0156 0.043 0.004 0.55859-0.0352-0.0117 0.0625 0.0391-0.0312 0.0312-0.0273 0.0508-0.0312 0.0352-0.0274 0.0391-0.0234 0.0352-0.004 1.6211 0.33984 0.0117 0.008 0.0352 0.0156 1.1719-4.4766 0.0547-0.0937 0.008-0.008 0.0234-0.0156h0.0234l0.0273-0.008 0.17968-0.0625 0.15235-0.16016 0.29297-0.0664 0.19531-0.008v-0.004 0.004l0.0195-0.0117-0.0195 0.0117v-0.004l0.0195-0.008 0.0625-0.0195 0.004 0.0117h-0.008v-0.004l0.004 0.004v0.008l0.004-0.0117v0.008h-0.0195l-0.0273 0.004h-0.0352l-0.004 0.004 0.004 0.004 0.0156-0.008-0.0156 0.008 0.0156-0.008-0.0234 0.0234 0.0234-0.0234-0.0234 0.0234-0.0273 0.0352 0.0312-0.0469 0.0195-0.0117-0.0195 0.004h0.0156-0.0156l0.0898 0.17969 0.37891 0.74219 0.46094 1.0039 0.043 0.0937 0.23829 0.60938 0.004 0.0156 0.0234 0.043 0.20312 0.375-0.51171-1.1367 0.53125 1.3945-0.004 0.004 0.004-0.004v0.004-0.004 0.004-0.0352l-0.004-0.004 0.008-0.0117v-0.0156l0.004-0.004h0.004v-0.004l-0.0117-0.10156v-0.004l-0.004-0.004v-0.0195l0.004-0.004v-0.008l-0.004-0.004v-0.008l-0.004-0.004v-0.004l-0.004-0.13281h-0.004l-1.4922-2.8281 0.13672 0.13281-0.13672-0.13281 0.0625-0.13282-0.0156 0.008 0.0195-0.008-0.21484 0.0195 0.21484-0.0195-0.0664 0.13282 0.0664-0.13282-0.17578 0.10547 0.15625-0.0898-0.15625 0.0898 0.17578-0.10547-0.17578 0.10547 0.17578-0.10547-0.17578 0.10547 0.17578-0.10547-0.17578 0.10547 0.17578-0.10547-0.17578 0.10547 0.17578-0.10547-0.17578 0.10547 0.17578-0.10547-0.17578 0.10547 0.17578-0.10547-0.17578 0.10547 0.17578-0.10547-0.17578 0.10547 0.17578-0.10547-0.17578 0.10547 0.17578-0.10547-0.17578 0.10547 0.17578-0.10547-0.17578 0.10547 0.17578-0.10547-0.17578 0.10547 0.17578-0.10547-0.17578 0.10547 0.17578-0.10547-0.17578 0.10547 0.17578-0.10547-0.17578 0.10547 0.17578-0.10547-0.17578 0.10547 0.17578-0.10547-0.17578 0.10547 0.17578-0.10547-0.17578 0.10547 0.17578-0.10547-0.17578 0.10547 0.17578-0.10547-0.17578 0.10547 0.17578-0.10547-0.17578 0.10547 0.17578-0.10547-0.17578 0.10547 0.17578-0.10547-0.17578 0.10547 0.17578-0.10547-0.17578 0.10547 0.17578-0.10547-0.17578 0.10547 0.17578-0.10547-0.17578 0.10547 0.17578-0.10547-0.21484 0.0195 0.21484-0.0195-0.21484 0.0195 0.16406 0.0391 0.0312-0.043v-0.004l-0.0312 0.0469 0.0273-0.0352v-0.004l0.0234-0.0195-0.0195 0.0117-0.004 0.0117 0.0234-0.0234-0.21484 0.0195 0.21484-0.0195-0.21484 0.0195 0.14843 0.11328 0.0664-0.13282-0.0664 0.13282 0.0664-0.13282-0.0234 0.0234 0.0234-0.0234-0.17578 0.10547 0.17578-0.10547-0.17578 0.10547 0.15234-0.0859 0.004-0.008 0.004-0.004 0.0469-0.008 0.0273-0.008 0.008 0.0117-0.008-0.0156v0.004-0.004 0.004l0.008 0.004-0.008-0.008v0.004-0.004 0.004-0.004l0.008 0.0195-0.008-0.0156h0.004-0.004l0.008 0.004-0.008-0.004 0.008 0.004 0.004 0.38281 0.0391 0.0937 0.0156 0.0391 0.0156 0.0508 0.17969 0.35938 0.3086 0.30859 0.125 0.45313 0.0352 0.0781 0.17188 0.29688 0.008 0.0508 0.0273 0.0352 0.0273-0.0195 0.0586 0.16407 0.008 0.0547 0.0195 0.0274 0.10938 0.89062v-0.004h0.004l-0.004-0.004 0.0117 0.0156 0.0234 0.0234 0.0117 0.008 0.0117 0.0156 0.008 0.0234 0.004 0.0312-0.004 0.004-0.0234-0.0117v0.004-0.004l-0.0117-0.0469v-0.0117l-0.0312-0.043-0.0625 0.625-0.004 0.0586v0.004l0.0703-0.89843-0.77344-2.125-0.29297-0.20313-0.008-0.0586-0.0781-0.46875-0.004-0.17578 0.004-0.0195-0.0156 0.004-0.004 0.004-0.10156 0.0508 0.0352-0.0508-0.004-0.004v0.004-0.004 0.004l-0.15625 0.0976-0.0391-0.0859 0.21484-0.0195-0.17578 0.10547 0.15234-0.082 0.0234-0.0234-0.0195 0.0156 0.0195-0.0156-0.0234 0.0234 0.0234-0.0234-0.0195 0.0117 0.0195-0.0117-0.21484 0.0195 0.21484-0.0195-0.21484 0.0195 0.21484-0.0195-0.21484 0.0195 0.21484-0.0195-0.21484 0.0195 0.20312-0.0156 0.0234-0.0508-0.0312 0.0586 0.0195-0.0117-0.0195 0.0117 0.0195-0.0117-0.0156 0.008h-0.004v0.004l0.004-0.004-0.004 0.004-0.004 0.0117 0.0234-0.0234-0.0508 0.0586 0.0352-0.0508 0.0977-0.0117-0.0117 0.008-0.004 0.0156v-0.004 0.004-0.004l0.004-0.0156-0.004 0.0195v0.008l1.7188-0.14063-1.7148 0.11328 1.7148-0.11328 0.004 0.0977 0.26172-0.0156 2.6211-3.5234 0.004-0.0664 0.0117-0.0937 1.1953-5.8281-1.3867 0.33984 4.6016-6.1445-0.94922 0.36328-1.1992 0.28906 1.4453-0.41797h-0.004v-0.004l0.14063-0.0156 0.008-0.004 0.67578-0.25 0.8086-0.30079-0.16407 0.0899 0.46875-0.33203 1.2344-0.91407 1.1602 0.3125 0.41406-3.3203-0.0469 4.3125 1.3711 2.3594 0.375-0.0742 0.74609-0.15235 0.48047-0.5664 0.53906-5.2188 0.0195-0.32031 0.008-0.10938 0.004-0.11328 0.008-0.10156 0.008-0.11328 0.008-0.10157 0.008-0.11328 0.004-0.10156 0.008-0.10547 0.14844-2.0117 0.60156-1.6328-0.043-0.16797 0.004 0.0273-0.004 0.0117-0.004-0.008 0.004-0.004-0.004 0.0156-0.008-0.0117v-0.004 0.004l0.0469-0.11719-0.043 0.11328-0.004 0.004 0.004-0.004-0.004 0.004v-0.004 0.004l0.004-0.004h-0.004v0.004l0.004-0.004 0.004-0.0117 0.004-0.0703 0.28516 0.0156 0.0391 0.0117 0.33203 0.23437 0.0234 0.0195 0.0859 0.0625 0.8789 0.32813 1.3125 0.70312 0.11719-0.082h0.0273l0.51954-0.0273 2.3398-1.2852 0.94922-1.3789-0.65235 1 1.5156-1.4531 0.28906-0.25781 0.6836-0.35938-0.0195 0.21094 0.0547 0.0273 0.0469 0.0274 0.0508 0.0351 0.0625 0.0742 0.0547 0.0899-1.6172 0.35156 2.8281 0.91797 0.35938 0.30859 0.28515 0.11719 0.98047 0.25781 0.45703 0.10547 0.83204-0.11719 1.2031-1.1133 0.004-0.0391 0.008-0.0664 0.004-0.0703 0.004-0.72656-0.0117-0.082 0.0937 1.0742-0.0273-8.5977v-0.0312l0.0664-3.0547-0.0117-4.0586v-0.0117l0.0586-0.14453v-0.0352l0.008-0.0625v-0.23828l0.004-0.0547 0.004-0.0508 0.0469-1.3008-0.0742 0.20313 0.0391-0.16407-0.125-0.0195 0.125 0.0195 0.043-0.0742-0.043 0.0742v0.008-0.008 0.008-0.008l0.043-0.0742-0.043 0.0742v0.004-0.004l0.0352-0.0391-0.16016 0.0195 0.16016-0.0195 0.0508-0.0781-0.0508 0.0781 0.0664-0.14844v0.004h-0.004l0.004-0.004v0.004l-0.22657 0.16406 0.16016 0.12891 0.0156-0.0234v0.0117-0.008 0.004l-0.004-0.004-0.0117-0.12891-0.0234 0.0156h-0.004 0.004-0.004 0.004-0.004l-0.13282 0.004 0.13282-0.008-0.13282 0.008 0.0508 3.6445 0.0859-3.6445h-0.004v-0.004l-0.13282 0.004 0.13282 0.008-0.0469 0.17579-0.0859-0.1836 0.0312 2.1875 0.12891-2.207 0.0195-0.20703v0.004l-0.17969 0.22265 0.17969-0.22656v-0.004 0.004-0.004 0.004-0.004l0.008 0.0156 0.0117 0.0156-0.19922 0.19922 0.16016-0.0195 0.0664-0.14453v-0.004 0.004l-0.004-0.004 0.008 0.0781-0.0273-0.0703v-0.0156l-0.0742 0.17969 0.004 0.004v0.004l-0.004-0.0117h0.004v0.0117l-0.082 3.6328 0.125-3.5312-0.0508-0.0898v-0.004l0.004-0.008 2.2305 0.35156v0.004l1.1172 2.2617-1.1016-2.2266-0.004-0.14454-0.0117 0.10938-0.004-0.0742 0.004 0.0703-0.0312 0.0586 0.0312-0.0586-0.004 0.004 3.2774 1.1641-0.33594 3.0312-0.28906-0.30469 0.28906 0.3125 0.33594-3.0391 1.2656-2.8789 0.0391-0.1875h0.004-0.004 0.004v0.0195l-0.0664 0.0586 0.0664-0.0781-0.004 0.004 0.004-0.004v0.0195l0.008-0.004-0.0156 0.0117 0.004-0.008h0.004v-0.0156l-0.004 0.008 0.004-0.004-0.0156 0.0234 0.008-0.004-0.008 0.004 0.008-0.004v-0.004 0.004l0.33203-0.26953 0.0117-0.0117-1.3516 0.96484 2.5156-3.4492 0.55859-1.7734-0.004-0.004 0.30859-0.53125 1.1562-1.9492 1.3594-1.9688 0.76953-1.3242 0.47656-1.6992-0.0742 0.14063 0.0352-0.12109 0.0312-0.0899 0.0273-0.0586 1.2422-1v-0.008l-0.004 0.008 0.004-0.004-0.004 0.008 0.008-0.008 0.0547 0.0195 0.41407-0.1875 0.86718-0.65234 1.3125-1.4414 0.17578-0.21093 0.0195-0.0274 0.0391-0.043 0.54687-1.5938 0.008-0.0117 0.0586-0.1875 0.0156-0.0547 0.0273-0.0742 0.0312-0.0703 0.44922-0.60938 0.85937 0.25781-0.0352 0.0703 0.14453-0.0156 0.0352-0.0117 0.0312-0.0273 0.0352-0.34766-0.0117-0.0625-0.0977-1.7695-0.10156 0.45313-1.5625-3.3672 3.1719-13.344-1.2227 10.793 0.0898-0.40235-0.0898 0.40235 0.58984-7.8242 0.0625-0.36328-0.0586 0.19531 1.1719-5.4805-0.0977 1.4141-0.008-1.6367 0.10547 0.22266-0.10547-0.22266-0.0312 0.10157-0.75-12.457-1.2774-4.1016 0.16407 0.22266-0.0547 0.0234-0.0312 0.004-0.0352-0.0391-0.11328-0.19141-0.0352 0.0391-0.0352-0.0234-0.043-0.0547-0.91016 1.8594 0.004 0.0195 0.0977 1.4102 0.008 0.0117v-0.0156 0.0195l-0.008 0.008 0.008-0.0273 0.004-0.004h-0.004v-0.0117l-0.004 0.0117-0.15625-3.7226 0.14844-0.1211 1.6484 2.1367-1.1758-2.5078 0.004 0.0351 0.47656 0.9375 0.0312 0.0508 0.0234 0.0586 0.0312 0.0703 0.0273 0.043 0.25 0.26172 0.0781 0.17969 0.0391 0.10937 0.008 0.0547v0.0664h-0.004l0.004 0.004v0.0117-0.004 0.004-0.0117h-0.004 0.004v-0.0664l-0.004-0.0391-0.0781-0.19922 0.004 0.004-0.008-0.0234-0.0547-0.10547 0.004 0.0234-0.004-0.0234 0.26953-0.34375 0.0781 0.27344-0.0195-0.0976h-0.004l-0.043-0.24219v-0.004 0.008-0.008l-1.3086-2.1133 1.3086 2.1133-1.3086-2.1133 1.3125 2.1211-0.28516 0.42188-0.0469-0.15625 0.1914 0.66016-0.004-0.15625-0.004-0.004v0.004-0.004 0.004-0.004 0.008-0.0117h0.004v0.10547l0.004 0.17969v-0.0352l-0.004-0.004 0.004 0.008v0.004-0.008l0.004 0.004v0.004l-0.004-0.004v-0.008l-0.0703-0.44532-0.5625-0.72656-0.53906-1.957 0.72265 2.0391 0.6836-2.6914 0.13672-0.16797h0.0117l0.004 0.004h-0.004l0.004 0.004v0.004l-0.004-0.0117v0.004l-0.004-0.008-0.004 0.004h-0.004v-0.004l-0.0234 0.0156v0.004l-1.5234 0.85547 0.79688 1.5234-0.26954 0.34766 0.1211 0.10937-0.4336-1.2617 0.3125 1.1524 0.0117-0.625 0.53125 1.2969-0.53125-1.2969 0.49219 1.2461 0.28125-0.42188v-0.008l-0.76953-0.15625 0.10547 0.0742h-0.004 0.004l-0.008-0.004v0.004l-0.004 0.004-0.63672-1.9844 0.0156-0.0781-0.76954-3.3594 0.0625 0.32813-0.0156-0.0508-0.0195-0.0899 0.5039-2.418-0.0937 0.0312 3.543-1.832-0.0312 0.043 0.0195-0.0508 0.10547-0.23828 0.94922-2.4648 0.0156-0.0586 0.18359-0.58203 2.9023 0.77734-0.0195-0.0742 1.4375 0.95313 0.70313 0.44141 0.004 0.0703-0.008 0.008 0.004-0.004h0.0156l-0.14453 0.22266 0.10156-0.10937v-0.004h-0.0117l0.0117 0.004v0.004l-0.008-0.0117 0.008 0.008-0.0117-0.008 0.0391-0.17968-0.0391 0.18359 0.0117 0.004-0.0117-0.004 0.0117-0.0391h0.008l0.10156-0.40625-0.24219 1.7188 1.3359-2.957 0.26172-1.0977v0.0586-0.0586l0.0898-1.0234 0.0469-0.26172 0.28125-1.1797v0.0234l0.21093-0.61328 1.0898-2.4883 2.7266-1.9141-0.71875 0.46875 1.5273-0.71094 0.0469-0.0234 1.8398 0.16407 0.16407-0.29297 0.0352-0.004 0.043 0.0156 0.36328-0.0937-0.0508 0.11328 0.0508-0.11328-0.0469 0.11328h-0.004v0.008-0.0156l0.36719-0.41796v-0.0195l0.0469-0.10546v-0.008l0.004-0.0117 0.008-0.004 0.008-0.008h0.004l0.32422-0.50782v-0.004l0.008-0.004 0.10156-0.13281 0.0352-0.0117 0.0352-0.0508 0.0273-0.0547 0.0195-0.082 0.0859-0.0234 2.543-1.2148 0.33203-0.4961 0.0273-0.0547-0.35937 0.55078 0.61328-0.59766 0.4375 1.0391 0.98828 0.60157 0.33203 0.33984 0.004 0.004 0.0312 0.0625 0.30078-0.29688 0.70703-0.36719 0.16406 0.0391-0.004 0.004 0.11718 0.21485 0.0664 0.0898 0.0234 0.043 0.004 0.043-0.008 0.0859-0.0117-0.0274 0.082 0.39844 0.91407 2.1094 0.0742-0.32031 0.0117-0.0664-0.0156-0.25391 0.21875-0.80469-0.008-0.043 0.0117-0.10156 0.20312-0.51172 0.0664-0.21484 0.24218-0.59375 0.48047-0.51953 0.004-0.0156 0.28516-0.27344 0.0312-0.0312h0.082l0.22265-0.10546-0.13281 0.1289 0.0352-0.0351 1.0703-0.375 0.25391 0.004-0.25391-0.004 0.63281-0.96094 0.0156-0.082 0.14453-0.19141 0.008-0.0117-0.0391 0.0547 0.14844-0.24609 5.0352 0.73828-1.1172 0.0195 1.0664-0.0664 0.0586-0.004h0.0898l0.0195-0.004 0.22656-0.0117-0.0508 0.0156 0.0547 0.008 0.0195 0.0273-0.0156-0.0391 0.004 0.004h0.004-0.004 0.004l-0.004-0.004 0.13281-0.24219h0.1875l-0.0469-0.004-0.004-0.0117h0.004v0.0117-0.004l0.004-0.004v0.008h-0.008l0.008-0.008v-0.004 0.004-0.004 0.004-0.004 0.004-0.004l0.043 0.0156-0.043-0.0117v-0.004 0.004-0.004 0.008-0.004 0.004-0.008 0.004-0.004 0.004-0.004l0.043 0.0156-0.043-0.0156v0.004h-0.004 0.004l0.0937-0.0195-0.0508 0.0312-0.0469-0.008v0.004-0.0156 0.0156-0.004 0.004l0.0898 0.004-0.0898-0.004v-0.004 0.004-0.0156 0.0156-0.004 0.004-0.0117 0.0117-0.0156 0.0117l0.0469 0.008-0.0469-0.004v-0.004l0.0469 0.008-0.0469-0.004v-0.004 0.004h-0.0234 0.004l0.004-0.004-0.004 0.004h0.004v-0.004 0.004h-0.004 0.004v-0.004 0.004h-0.004 0.004-0.004l0.008-0.008-0.004 0.008h0.0117l0.004-0.004 0.004 0.004v0.004l-0.004-0.004v-0.008h0.004v-0.004 0.008-0.0117 0.0117-0.008l-0.004-0.0117v0.008l0.004 0.008v-0.004 0.004l0.043 0.0117-0.0469-0.004 0.004-0.008v0.004-0.004l-0.004 0.004v0.004-0.0156 0.0117l0.004-0.004-0.004 0.004h0.004l-0.004 0.004v-0.0156 0.0156l-0.008-0.0547 0.008 0.0547-0.0898 0.004-0.082-0.004h-0.11718l-0.0742 0.043h-0.0586l-0.0703-0.004h-0.0781l-0.0703 0.10937 0.008-0.0703v0.0117l-0.004 0.0273v-0.0156 0.004-0.004 0.004-0.008 0.008-0.004l0.004 0.008-0.004-0.008v0.0195l-0.004-0.008v-0.0117l-0.004-0.008v-0.008l-0.004-0.004 0.004 0.008-0.004-0.0117v-0.004 0.004l0.004 0.0156-0.004-0.0156v-0.004l0.004 0.008-0.004-0.008v0.008-0.008l0.004 0.0195-0.004-0.0156v-0.004 0.008l0.0156-0.004 0.004-0.008-0.004 0.008 0.0117 0.0156-0.008 0.0312 0.004 0.19531 0.004-0.0117-0.008 0.33984-0.0273 0.24219 0.0195 0.0703-0.0117-0.0273-0.0234 0.18359 0.004 0.3711-0.0547 0.30859 0.0117 0.14844h0.0117l0.004-0.043-0.004-0.0117 0.004 0.008 0.008-0.0117v-0.004 0.004-0.004h0.004l-0.004-0.004 0.004 0.004-0.0117 0.0117-0.004-0.004 0.0234-0.32812 0.004-0.3125v-0.125l-0.0234 0.0547 0.0195-0.21093 0.0195-0.043-0.0195 0.0195v-0.0352l-0.008 0.0195v-0.043l0.0352-0.0703-0.17187-1.1172 0.0117-0.0195-0.0508 0.1211 0.0508-0.1211v-0.0117l0.004 0.004-0.0312 0.0703 0.0273-0.0742-0.0117 0.0312 0.0117-0.0312h0.004l0.004-0.004-0.004 0.004 0.004-0.004 0.004 0.004-0.004-0.004v0.004l-0.004-0.0195 0.004 0.0156-0.004-0.0117-0.004 0.0117 0.008 0.004 0.004 0.004v-0.004 0.0117l-0.004-0.0117v-0.004l-0.004-0.004-0.004 0.008-0.0352 0.082-0.004 0.004 0.0117-0.0742 0.45313-0.57422h0.0312l0.16015 0.0625 0.0469-0.0273 0.0391 0.0156 0.082-0.0117h0.0781l0.0391 0.008 0.0391 0.0117 0.043 0.0117 0.0391 0.008 0.0391 0.0117 0.0352 0.0117 0.0391 0.008 0.0469 0.0117 0.043 0.0117 0.0469 0.0117 0.043 0.008 0.0508 0.0156 0.043 0.0117 0.0469 0.0117 0.043 0.008 0.0391 0.0156 0.043 0.0234 0.0352 0.0351 0.0391 0.0352 0.082 0.082 0.0781 0.0859 0.043 0.043 0.0508 0.0469 0.043 0.0469 0.0391 0.0703 0.043 0.0742 0.0391 0.0703 0.0469 0.0508 0.043 0.0156h0.0937l0.0234-0.0234 1.1406 0.0664 0.94141-0.13281 0.15625 0.21485 1.5 0.52343-0.043-0.0391 2.8672 8.4219 1.0156 1.4766 0.28125 0.1289v-0.0117l1.4453-0.23438 1.5508-0.14844 0.0586-0.0312 0.0156 0.0625 0.10156-0.0547-0.11718-0.008-0.0586 0.0312 0.0586-0.0312 0.0156 0.0742 3.0352-0.36328 2.8828 0.0547 0.66797-0.004 1.0938-0.14844 0.13281-0.19531 0.625-0.20312-0.80469 0.40234 2.3828-0.63281-1.5781 0.23047 1.7227-0.22266 1.7148-0.14844 0.82031 0.12891 1.8633-0.42578 2.332-0.36328-0.0469 0.0625-0.008 0.008v-0.004 0.008l0.0547-0.0742-0.0547 0.0742h0.004-0.004l-0.004-0.0156-0.004-0.0117 0.71093 1.3672 0.0156 0.0547 0.31641 0.99218 0.36328 1.4688 0.14062 0.41407 0.0234 0.0937 0.20312 0.98437 0.0664-0.0469 0.004 0.0156 0.0273 0.0859 0.0234 0.0898 0.28515 0.082 0.69141 0.0195h0.52344l1.4297 0.30468 0.0117 0.008 0.0508 0.0117h0.23046l0.0508-0.004 0.75 0.49609 0.65625 0.9336 0.0312 0.043 0.0391 0.0547 0.23828 0.0742 1.4453 0.0586h0.0742l0.125 0.004 0.0469 0.0195 0.008 0.004v0.004l0.0469 0.0274 0.004 0.004 0.0391 0.0195 0.66016 0.37109 2.2734 1.1875 0.51171 0.41016 2.5547 1.2852 0.50781 0.1836 2.7031 0.1875-0.22266 0.008h0.0117l1.7852 0.15234 3.0625-0.3164-0.0899 0.0312 0.0195-0.0469 0.043-0.0547 0.0469-0.0117h0.0977l0.0469-0.0156 0.043-0.0469 0.0469-0.0547 0.0469-0.0312h0.0508l0.0469 0.004 0.0469-0.0117 0.0469-0.0312 1.1914-0.0508h0.0469l0.0469 0.004h0.0508l0.98828 0.008 0.0508 0.004 0.0312-0.0156 0.008-0.008 0.1914 0.0234 0.0156-0.004h0.004l0.0273 0.004 0.0469 0.0156 0.0469 0.0234 1.9727-0.94531 0.44921-0.23828 0.0899-0.004h0.0976l0.0937-0.004 0.0508-0.004h0.13671l0.0508-0.004 0.043-0.0391 0.0469-0.0508 0.043-0.0508 0.0469-0.0234 0.0937-0.008 0.0508-0.004 0.0899-0.0234 0.0937-0.0547 0.043-0.0312 0.0469-0.0234 0.0899-0.008h0.23437l0.0508-0.008 0.043-0.043 0.043-0.0469 0.043-0.0508 0.0469-0.0547 0.0391-0.0469 0.043-0.0508 0.043-0.0469 0.0391-0.0469 0.043-0.0469 0.0859-0.10156 0.043-0.043 0.12891-0.13672 7.6836-1.8516-0.875 0.0156h0.0352l0.0469 0.004h0.14844l0.0469-0.0195 0.0469-0.0234 0.0391-0.0117 0.39063 0.0352 0.0273 0.004h0.082l2.2656 0.22657-0.0781 0.0976 0.0234 0.0195 0.004-0.0234-0.004-0.008v0.004l0.0547-0.0898-0.0547 0.0898 0.004 0.043 0.008 0.0234 0.0312 0.15234 0.0351 0.28125 0.0391 0.17187 0.0351 0.0391 0.043 0.0234 0.0391 0.0391 0.0352 0.0508 0.0391 0.0586 0.0586 0.0664 0.16406 0.23437 0.0391 0.008 0.043-0.004 0.043-0.0117 0.23437-0.4375 0.19922-0.38281 0.0352-0.0391 0.66406 0.23437 0.0781 0.043h0.0664l0.0508 0.004 0.0469 0.004 0.0508 0.0234 0.0508 0.0312 0.0469 0.0352 0.0469 0.0312 0.40235 0.25 0.97656 0.10156 0.17969 0.15234 0.0312 0.28125-0.0469 0.11719-0.0547 0.0117v-0.008l0.008-0.004v-0.004 0.004l-0.004 0.004 0.008 0.008 0.0195 0.004 0.0234-0.004 0.004-0.004 0.008-0.0273 0.0117-0.0312 0.0117-0.0274 0.008-0.0625 0.0117-0.0586 0.004-0.0625 0.0156-0.0977-0.0156 0.0234 0.0156-0.0234-0.0117-0.004v-0.0469l0.008-0.004 0.0352 0.008 0.0469-0.0234 0.10157-0.0391 0.0469-0.0156h0.10156l0.0508 0.004 0.0547-0.0117 0.0469-0.0273 0.0469-0.0312 0.043-0.0508 0.0469-0.0664 0.043-0.0664 0.0391-0.0625 0.65234-0.94921 0.0469-0.0508 0.0469-0.043 0.0469-0.0391 0.0508-0.0625 0.0508-0.0703 0.0469-0.0586 0.10547-0.0703 0.0547-0.008 0.74609-0.45312 0.25782-0.10938 1.0898-3.3594-0.14453 0.71484 0.14453-0.71484 0.17578-0.16797 0.46094-0.0312 0.0117-0.0742 0.1289-0.0195 0.004 0.18359-0.004-0.18359-0.004 0.17187 0.004-0.17187v0.004-0.004l0.004 0.18359-0.004-0.18359v-0.004 0.004l7.1016 5.8242-1.0859-0.17188 1.0859 0.17188 3.5156 0.60937 2.7344 0.76953 2.5352-0.54687 1.7383-0.55078-0.0469 0.15625 0.008-0.27344h0.004v0.004h-0.004v-0.004l0.0391 0.11719-0.043-0.0352-0.004 0.0625v0.125l-0.004 0.0273 0.19532 0.24219 0.0312 0.043 1.2617 0.21094-0.0937-0.0117h0.008l0.0469 0.004h0.004l-0.29688-0.0391 0.64063 0.0547h0.0273l0.0508 0.0234 1.3516 0.1875 0.46484 0.17578-0.46875-0.92578 0.46875 0.92578 0.47656 0.21875-0.0195-0.0195 0.0664 0.0547 0.73828 0.35546 0.7539 0.17188-0.25 0.10937 0.0469-0.0273 0.21875-0.10547-0.19531 0.10938 0.32812-0.19922 0.17188-0.0156 1.2031 0.72266-0.0234-0.0234 0.0312 0.0312 1.1016 0.76563 0.0351 0.0312 0.0312 0.0859 0.0352 0.0781 0.58594 0.20312-0.0156 0.0195 0.0156-0.0195 0.47265-0.0273 0.0586-0.0391 0.32812-0.10156 0.0391-0.008 0.38282 0.25 0.008 0.004 0.043 0.0195 0.33203 0.21875 0.17578 0.0742-0.008-0.17969 0.875 0.20703-0.14453-0.043 0.0234 0.008 0.0312 0.0156 0.0899 0.0195 0.26953 0.0274 0.0469-0.0195 0.1836 0.008h0.004l0.0508 0.004h0.375l0.54687 0.11719-0.10547-0.0351 0.008 0.008h0.004l0.15625 0.008 0.30078 0.22266 0.14453 0.13672 0.0508 0.0898 0.14844 0.26953 0.10156 0.0586 0.46875 0.4336 0.30469 0.0195 0.19531 0.1875-0.008-0.0312 0.23438 0.26172 0.0312 0.0625 0.10547 0.0469 0.10156 0.11719 0.19922 0.29688 0.0664 0.21093 0.19922 0.21485h0.11719l0.63281 1.2852 0.38281 0.0742 0.45704 0.4336 0.13281 0.0195 0.77734 0.60547 0.28906 0.0781 0.37891 0.41016 0.30859 0.11718 0.33594 0.36719 0.48047 0.35547 0.19141 0.12891 0.65234 1.2266 0.29297 0.45312 0.37109 0.14844 0.0195 0.0117-0.008 0.0195 1.2891 0.76953h0.0899l0.0508 0.004h0.008l0.15235 0.0234 0.75 0.0391-0.0937-0.0234 0.48828 0.27735 0.0156 0.0273 0.0352 0.0625 0.67578 0.32031 0.35547-0.0391 0.0664 0.99609 0.0703 0.35938 0.0859 0.51172 0.51172 0.14843 0.0508-0.0351 0.004-0.004-0.26172-0.0703 1.0703-0.0117 0.0117 0.004h0.0508l0.0469 0.0156 0.0469 0.0234h0.004l0.0469 0.0273 0.6914 0.1211 0.41406 0.0156 0.36719 0.0117 0.0742 0.11328 0.59766-0.14062 0.54687-0.0117 0.61719 0.125 0.44531 0.23437 0.58203 0.28516 1.125 0.10547 0.0469-0.125v-0.004l0.004 0.004h-0.004l0.58984 0.84375-0.082-0.004 0.043 0.0391 0.0391 0.0352 0.043 0.0312 0.0469 0.004 0.97265 0.49609 1.125 0.19922 0.69141-0.0195 0.14453 0.0195 0.0195 0.0117 0.18359-0.008 0.26172-0.14844 0.47266-0.1836 0.043-0.043 0.043-0.0274 0.0469-0.004h0.043l0.19531-0.0859 0.0547-0.0742 0.0391-0.0195 0.0312-0.004 0.0352 0.004h0.13672l1.457-0.14453 0.12109-0.0469v-0.0781l1.0117 0.32812 0.82031-0.46875 0.78516-0.0312 0.36328-0.21484 1.375-0.36328 0.61719-0.10938-0.043-0.0312 0.0469-0.0195 0.008 0.004h0.004l0.48047 0.17968-0.0351-0.0234 1.7266-0.0625 0.24609 0.28125 2.3984-1.1641 0.082 0.26172 0.46094 0.34766h-0.0547l-0.10937-0.0469 0.0351 0.0234 0.0742 0.0234 0.0586 0.0195 0.0351-0.0234h-0.008 0.008l-0.008 0.008 0.004-0.008-0.004 0.004h0.004-0.0352l0.0352-0.004h0.004l-0.004 0.004 0.004-0.004-0.004 0.004v-0.004 0.004l0.004-0.004h-0.004 0.004-0.004 0.004l-0.008-0.004 0.008 0.004h-0.004 0.004-0.004l-0.004 0.004 0.008-0.004 0.0156 0.004h-0.004 0.004-0.004 0.004l-0.004 0.004v-0.004h0.004l-0.008-0.008 0.008 0.008v0.0234-0.0234l0.004 0.0117-0.008-0.0117h0.004v-0.004 0.004h-0.004 0.004l-0.004-0.004-0.0195-0.004-0.0781-0.0195 0.004 0.008-0.0312-0.0391 0.0781-0.0469-0.0391 0.0508 0.45703-0.54687 1.957-2.1641 0.004-0.0156 1.5234-3.293 0.42969-1.6914v-0.10546l0.39062-0.98829-0.0117 0.043 0.27344-0.16406 0.26172-0.0977 0.45312-0.38281 0.46875-0.5 0.69532-0.87109 1.5976-3.3398v-0.55468 0.0312l0.47266-3.1797 0.34375-0.94922v0.27734l0.0937-0.39062 0.0469-0.10547 0.008-0.23437 0.004-0.0781 0.52344-1.0664 0.44531-0.88281 0.49219-2.0898 0.17578-0.74219 0.004-0.0742 0.6289-1.293 0.46485-0.48828 0.13672-0.0273 0.1289-0.0781-0.1289 0.0742 0.1289-0.0742-0.1289 0.0781v-0.004l0.1289-0.0742-0.1289 0.082 3.3242-3.6484 0.0117-0.0274 1.6055-2.4375 0.53125-0.67968 0.29297-0.31641 0.12891-0.125-0.12891 0.125 0.49219-0.60156 2.1562-4.2031 0.0742-0.125 0.19531-0.49219-0.0469-0.61328-0.0781-0.43359 0.004-0.082-0.004-0.10938 0.0781-1.5898 0.10937-0.88281 0.0781-0.73047 0.32812-2.0312-0.0742-0.0274 4.207-12.105 0.0117-0.0391-0.0117 0.0391 0.26953-0.36329 0.0352-0.0117 0.043-0.0469 0.0859-0.10156-0.008-0.0508 0.39454-0.41407 0.0703-0.16406 0.0312-0.0781 0.66015-0.91407 0.004-0.0195 1.4102-2.1133 0.043-0.0234-0.043 0.0234 1.1875-2.2734v-0.0117l0.28906-1.668-0.082-0.83594-0.0937-0.44531-0.0664-3.8594 0.85547-1.543 0.0234 0.16407 0.004-0.16016h-0.004l-0.0234-0.004 0.0273-0.23047h-0.0156l0.008 0.0195 0.008-0.0195 0.0508 0.0391 0.008 0.0117 0.0508-0.0352v-0.004h-0.004 0.004v0.004-0.004 0.004-0.004 0.004-0.008 0.008l0.043 0.0586-0.043-0.0586 0.043 0.0586-0.043-0.0586 0.043 0.0586-0.043-0.0586 0.043 0.0586-0.043-0.0586 0.043 0.0586-0.043-0.0586 0.043 0.0586-0.043-0.0586 0.043 0.0586-0.043-0.0586 0.043 0.0586-0.043-0.0586 0.043 0.0586-0.043-0.0586 0.043 0.0586-0.043-0.0586 0.043 0.0586-0.043-0.0586 0.043 0.0586-0.043-0.0586 0.043 0.0586-0.043-0.0586 0.043 0.0586-0.043-0.0586 0.043 0.0586-0.043-0.0586 0.043 0.0586-0.043-0.0586 0.043 0.0586-0.043-0.0586 0.043 0.0586-0.043-0.0586 0.043 0.0586-0.043-0.0625v0.004l0.043 0.0586-0.043-0.0586 0.043 0.0586-0.043-0.0586 0.043 0.0586-0.043-0.0586 0.043 0.0586-0.043-0.0586 0.043 0.0586-0.043-0.0586 0.043 0.0586-0.043-0.0586 0.043 0.0586-0.043-0.0586 0.043 0.0586-0.043-0.0586 0.043 0.0586-0.043-0.0586 0.043 0.0586-0.043-0.0586 0.043 0.0586-0.043-0.0586 0.043 0.0586-0.043-0.0586 0.043 0.0586-0.043-0.0586 0.043 0.0586-0.043-0.0586 0.043 0.0586-0.043-0.0586 0.043 0.0586-0.043-0.0586 0.043 0.0586-0.043-0.0586 0.043 0.0586-0.043-0.0586 0.043 0.0586-0.043-0.0586 0.043 0.0586-0.043-0.0586 0.043 0.0586-0.043-0.0586 0.043 0.0586-0.043-0.0586 0.043 0.0586-0.043-0.0586 0.043 0.0586-0.043-0.0586 0.043 0.0586-0.043-0.0586v-0.004 0.004-0.004 0.004-0.004 0.004l0.004 0.0117v0.0117l-0.004-0.004v0.0117h0.004l-0.004-0.0117-0.004 0.008-0.0117 0.0117-0.004-0.004v-0.004l-0.004-0.004h-0.008l-0.004-0.008 0.004 0.008 0.004 0.004-0.008-0.004h0.004-0.004 0.004-0.004 0.004v0.004-0.004l-0.004 0.004 0.004-0.004h-0.004 0.004-0.004 0.004l-0.004 0.004 0.004-0.004h0.008l0.008 0.0117h0.004l0.0156-0.0312-0.004-0.008v-0.004 0.004-0.004 0.004-0.004l-0.008-0.0156h-0.004l-0.004-0.004-0.004 0.004-0.004-0.008h-0.004l-0.004-0.004-0.008-0.004-0.004 0.004v0.008h-0.004l-0.004 0.004-0.004-0.004h-0.004v-0.004l-0.004 0.004-0.008 0.004h-0.0234l-0.004-0.004h-0.008v-0.0352l0.008-0.008 0.004-0.008v-0.004l0.008-0.0156 0.004-0.004 0.004-0.008 0.004-0.004 0.004-0.008v-0.008l0.004-0.004 0.004-0.008 0.004-0.004 0.004-0.008v-0.004l0.004-0.008 0.004-0.004 0.008-0.0156v-0.004l0.004-0.008 0.004-0.004 0.004-0.008 0.004-0.004v-0.008l0.004-0.008 0.004-0.004v0.0195h-0.004v-0.004 0.004l0.008 0.004v0.008l0.004 0.004v0.0156l0.004 0.008v0.0117l-0.004 0.008 0.004 0.008v0.0117l-0.004 0.008v0.004l-0.004-0.004v0.008l0.004 0.004 0.004 0.0117v0.004l0.004 0.0117 0.004 0.004 0.004 0.008 0.004 0.0195v0.0312h-0.0117l0.043 0.0781-0.043-0.0664v0.008-0.008 0.008-0.004 0.0508l0.004 0.004v0.004l-0.008 0.008v0.0117l-0.008 0.004-0.004 0.004-0.008 0.004v-0.004l-0.004-0.004v0.008-0.004 0.004h0.004-0.004v-0.004 0.004h0.004-0.004 0.004-0.004v-0.004l0.004 0.004v0.004-0.004l-0.004 0.004v-0.004h0.004l-0.004 0.004 0.004-0.008v0.004h0.004l-0.004-0.0117 0.004-0.0195 0.004-0.0156v0.004-0.004h0.004v-0.004h0.004v-0.008l0.008-0.008v-0.004h0.004v-0.0117l-0.004-0.004v-0.004 0.004-0.004 0.004l0.004 0.008-0.004-0.008v-0.004 0.004-0.004 0.004-0.004 0.004-0.004 0.004-0.004 0.004-0.004 0.004-0.004l-0.004-0.004 0.22657 0.75 0.0547 0.42968 0.58594 0.11719 0.44922 1.2188v-0.27734l-0.004 0.0312v0.0391l-0.004 0.043v0.0391l-0.004 0.0391-0.004 0.0352-0.004 0.0391-0.0234 0.004 0.52344 1.3477 0.004-0.0156 0.4961 1.0977 0.008-0.0156 0.082 0.23047 0.043-0.0234v-0.004 0.004l0.008-0.0391v-0.0156l0.004-0.004v-0.008l0.0195 0.0234 0.0352 0.0234 0.082 0.22656 1.0391 0.0586 0.71484-0.0312 0.96094 0.15625-0.0117-0.0391 0.0117 0.0391 0.64844 1.6484 0.51172 1.2344 0.57031-0.41016 1.0156-0.73437 0.16406-0.0742 0.27734-0.34375-0.0351 0.21484 0.0312-0.10546 0.004-0.10938-0.008 0.10938 0.004-0.004v0.004h-0.008 0.008-0.004 0.004l-0.004 0.004 0.004-0.004 2.9844-0.42969-0.20703-0.043 0.0352-0.004 0.043-0.0156 0.82813-0.0742 0.33984-0.0508 0.0391-0.0156 0.0469-0.0234 0.0547 0.0195 0.0469 0.008 0.0547-0.0156 0.0508-0.0156 0.0469-0.004 0.78515 0.14844h0.46094l0.0273-0.004 0.043-0.004 0.043 0.004 0.043 0.0352 0.0469 0.0391 0.0391 0.0586 1.082-0.0273 2.0273 0.10938 0.0625 0.15625 0.0117 0.004 0.0391 0.0312 0.35547-0.0742 0.64453-0.0273 0.0391-0.0977 0.67578 0.11328 0.0937 0.0391 0.0508 0.0117 0.0508 0.0195 0.0508 0.0664 0.043 0.0547 0.28125 0.0586 2.6875 0.94922-0.17578-0.27735 0.0156 0.0156 0.24219 0.23047 0.0508 0.0352 1.2305 0.375 0.17188 0.46485 1.2695 1.4726 0.125 0.35938 1.4609 0.60937 0.45703 0.29297 1.6016-0.83594v-0.0547l0.0352 0.0742 0.0625 0.14063 0.66796 0.99219 0.29688 0.33203-0.42969 1.2969 1.0586-1.9726 0.22656-0.32813 0.25-0.65234 0.44922-0.36719 0.64062-0.54687 0.94922 0.10156 1.1641-0.004-0.0859-0.0312 0.0351-0.004h0.0508l0.0781 0.043-0.0781-0.008 0.57422-0.15234 1.6562-0.008 0.47266 0.85156 0.52344 0.59375 0.60156 0.0156 0.59765 0.0195 1.0898-0.77734 0.0742 0.008h-0.004 0.004l-0.004-0.008v0.008h0.004-0.004l-0.0586 0.11719-0.0703 0.1875-0.0586 0.10156 0.0586-0.0937 0.0547-0.14843 0.51172-0.26172 0.24219-0.10938 0.043 0.14844 0.25781 0.16016 0.26953 0.24218 0.30469-0.0664 1.7539-0.82032 0.30079 0.0625 0.71484-0.22656 0.21484 0.0274 1.9609-0.36719 0.25391-0.11719 1.9414 1.6055 0.57813 0.54687-0.0117 0.0117 0.0703 0.0469 0.0352-0.043 0.0273-0.0742 0.0937-0.11328 0.0391-0.0469 0.16407-0.16406 0.0312 0.008 0.0312 0.043 0.008 0.0703 4.0234 2.0078-0.15625 0.14062-0.008-0.0195 0.8125-0.28125 0.16797 0.0469h0.0234l1.8789 0.28515-0.0703 0.008 0.0703-0.008 0.0937-0.082 0.15234 0.0547 0.5625-0.10547-0.13672-0.10156 0.13672 0.10156 0.0312 0.0195 0.008-0.004 0.008-0.008h0.008l0.0156-0.008 0.0117-0.008 0.004 0.004 0.0547 0.004 0.32421-0.0117 0.14063 0.32422-0.008 0.0156 0.0195 0.0664 0.0156 0.125 0.41797 0.29688-0.0508-0.0156 0.0508 0.0156 0.21875-0.082h0.0312l0.0156 0.0742v0.0781l0.043 0.15625 0.14062 0.0625-0.0312 0.004 0.14453 0.0898-0.004 0.38281 0.0195-0.0625-0.0195 0.0625-0.0117 0.0508-0.0195 0.0664-0.0117 0.0586-0.0586 0.23438-0.0195 0.0703-0.008 0.0391-0.0156 0.0625v-0.004 0.004l-0.008 0.0586v0.004l0.004-0.008v0.004h-0.004 0.004l-0.0274 0.008 0.0234-0.008v0.008l0.004-0.004-0.004-0.004 0.0117 0.0156-0.004 0.043-0.008-0.004-0.0156-0.0156-0.004 0.0156-0.0156 0.0586-0.0117 0.0547-0.0234 0.0625-0.0352-0.043-0.0195 0.0547-0.0234 0.10547-0.008 0.0234 0.004-0.004 0.004 0.008v0.004l0.008 0.008 0.004 0.0156 0.004-0.0117 0.004-0.008-0.004 0.004v-0.004 0.004h0.004l-0.004-0.004h0.004l0.004-0.0117h0.004l-0.008 0.0156v-0.004 0.004l-0.004 0.004v0.004l-0.004 0.008v0.0117l-0.004 0.0117 0.004 0.008 0.0156 0.0156v0.004l0.0234-0.0898 0.0469-0.16797-0.0117 0.0391 0.0195-0.10156 0.0312-0.12891 0.0156-0.008-0.0234 0.0391 0.004-0.008 0.004-0.004v-0.0117l0.004-0.004v-0.004l0.004-0.004h0.004v0.004l0.004 0.004v-0.0117l0.004 0.0234-0.004-0.0234 0.004 0.0234-0.004-0.0234 0.004 0.0234-0.004-0.0234 0.004 0.0234-0.004-0.0234 0.004 0.0234-0.004-0.0234 0.004 0.0234-0.004-0.0234 0.004 0.0234-0.004-0.0234 0.004 0.0234-0.004-0.0234 0.004 0.0234-0.004-0.0234 0.004 0.0234-0.004-0.0234v0.004-0.004 0.004-0.004l0.004 0.0234-0.004-0.0234v0.004h-0.004l-0.004-0.0156 0.0156-0.0586 0.0117-0.0469v-0.004l-0.0742 0.32422-0.0312 0.10937-0.0508 0.20703-0.0547 0.22266-0.0195 0.36719 0.0195-0.0977-0.008-0.0195-0.0117 0.0742-0.008 0.004v0.0156l-0.004 0.008-0.0234 0.20703-0.004-0.0937-0.0391 0.71875 0.004-0.0391v-0.008l0.004 0.0156h0.004l0.008 0.0117 0.004-0.008 0.004-0.0234v0.004-0.004 0.004-0.004 0.004-0.004 0.004-0.004 0.004-0.004l-0.004-0.008v-0.004l-0.008-0.004 0.008-0.0391 0.004-0.008v-0.0195l0.004-0.004v0.004-0.004 0.004-0.004 0.004l0.0351-0.15625-0.0351 0.15234v-0.0117h0.008-0.004l-0.008-0.008-0.008-0.004v-0.0195l0.008-0.0195v-0.0156l0.004-0.004 0.004-0.0156 0.004-0.0195 0.004-0.0117v-0.004l0.004-0.0156-0.004 0.0117 0.0234-0.0156-0.0117-0.0195v-0.0312l0.004 0.0156-0.004 0.004v-0.008 0.004-0.004 0.004-0.008 0.008-0.004 0.004-0.004"/>
   <path d="m108.55 430.56h303.77"/>
   <path d="m108.55 430.56v7.2031"/>
   <path d="m184.5 430.56v7.2031"/>
   <path d="m260.44 430.56v7.2031"/>
   <path d="m336.38 430.56v7.2031"/>
   <path d="m412.33 430.56v7.2031"/>
  </g>
  <g>
   <use xlink:href="#b" height="100%" width="100%" y="456.25684" x="96.054688"/>
   <use xlink:href="#c" height="100%" width="100%" y="456.25684" x="100.05078"/>
   <use xlink:href="#t" height="100%" width="100%" y="456.25684" x="106.72266"/>
   <use xlink:href="#a" height="100%" width="100%" y="456.25684" x="113.39453"/>
   <use xlink:href="#b" height="100%" width="100%" y="456.25684" x="171.99609"/>
   <use xlink:href="#c" height="100%" width="100%" y="456.25684" x="175.99219"/>
   <use xlink:href="#c" height="100%" width="100%" y="456.25684" x="182.66406"/>
   <use xlink:href="#a" height="100%" width="100%" y="456.25684" x="189.33594"/>
   <use xlink:href="#b" height="100%" width="100%" y="456.25684" x="247.94141"/>
   <use xlink:href="#c" height="100%" width="100%" y="456.25684" x="251.9375"/>
   <use xlink:href="#a" height="100%" width="100%" y="456.25684" x="258.60938"/>
   <use xlink:href="#a" height="100%" width="100%" y="456.25684" x="265.28125"/>
   <use xlink:href="#b" height="100%" width="100%" y="456.25684" x="327.38281"/>
   <use xlink:href="#s" height="100%" width="100%" y="456.25684" x="331.37891"/>
   <use xlink:href="#a" height="100%" width="100%" y="456.25684" x="338.05078"/>
   <use xlink:href="#b" height="100%" width="100%" y="456.25684" x="403.32812"/>
   <use xlink:href="#r" height="100%" width="100%" y="456.25684" x="407.32422"/>
   <use xlink:href="#a" height="100%" width="100%" y="456.25684" x="413.99609"/>
  </g>
  <g stroke-linejoin="round" stroke="#000" stroke-linecap="round" stroke-miterlimit="10" stroke-width=".75" fill="none">
   <path d="m59.039 392.54v-223.75"/>
   <path d="m59.039 392.54h-7.1992"/>
   <path d="m59.039 280.66h-7.1992"/>
   <path d="m59.039 168.79h-7.1992"/>
  </g>
  <g>
   <use xlink:href="#n" height="100%" width="100%" y="399.53516" x="41.538086"/>
   <use xlink:href="#f" height="100%" width="100%" y="392.86328" x="41.538086"/>
   <use xlink:href="#e" height="100%" width="100%" y="287.66016" x="41.538086"/>
   <use xlink:href="#k" height="100%" width="100%" y="280.98828" x="41.538086"/>
   <use xlink:href="#e" height="100%" width="100%" y="175.78906" x="41.538086"/>
   <use xlink:href="#f" height="100%" width="100%" y="169.11719" x="41.538086"/>
  </g>
  <path stroke-linejoin="round" d="m59.039 430.56h414.72v-371.52h-414.72v371.52" stroke="#000" stroke-linecap="round" stroke-miterlimit="10" stroke-width=".75" fill="none"/>
  <g>
   <use xlink:href="#q" height="100%" width="100%" y="485.05762" x="242.89844"/>
   <use xlink:href="#p" height="100%" width="100%" y="485.05762" x="246.23438"/>
   <use xlink:href="#o" height="100%" width="100%" y="485.05762" x="250.23047"/>
   <use xlink:href="#z" height="100%" width="100%" y="485.05762" x="252.89453"/>
   <use xlink:href="#y" height="100%" width="100%" y="485.05762" x="259.56641"/>
   <use xlink:href="#x" height="100%" width="100%" y="485.05762" x="266.23828"/>
   <use xlink:href="#w" height="100%" width="100%" y="485.05762" x="268.90234"/>
   <use xlink:href="#v" height="100%" width="100%" y="485.05762" x="275.57422"/>
   <use xlink:href="#u" height="100%" width="100%" y="485.05762" x="282.24609"/>
  </g>
  <g>
   <use xlink:href="#d" height="100%" width="100%" y="263.30078" x="12.737305"/>
   <use xlink:href="#j" height="100%" width="100%" y="259.96484" x="12.737305"/>
   <use xlink:href="#i" height="100%" width="100%" y="255.96875" x="12.737305"/>
   <use xlink:href="#h" height="100%" width="100%" y="253.30469" x="12.737305"/>
   <use xlink:href="#g" height="100%" width="100%" y="246.63281" x="12.737305"/>
   <use xlink:href="#m" height="100%" width="100%" y="239.96094" x="12.737305"/>
   <use xlink:href="#l" height="100%" width="100%" y="237.29688" x="12.737305"/>
   <use xlink:href="#d" height="100%" width="100%" y="230.625" x="12.737305"/>
  </g>
 </g>
 <rect rx="12.787" ry="31.5" height="431.44" width="475.92" y="0" x="0" fill="none"/>
</svg>
