<svg height="547" viewBox="0 0 824 547" width="824" xmlns="http://www.w3.org/2000/svg"><path d="m0 0h824v547h-824z" fill="#fff"/><g fill="none" stroke-miterlimit="10" transform="translate(47 44)"><g transform="translate(-6)"><path d="m0 0v75z"/><g pointer-events="none" transform="translate(.5 .5)"><g stroke="#888"><path d="m0 75h-5"/><path d="m0 33h-5"/></g><g fill="#000" font-family="sans-serif" font-size="10" text-anchor="end"><text transform="translate(-7 78)">0.0</text><text transform="translate(-7 36.333333)">0.1</text></g><path d="m0 75v-75" stroke="#888"/><text fill="#000" font-family="sans-serif" font-size="11" font-weight="bold" text-anchor="middle" transform="matrix(0 -1 1 0 -26.901367 37.5)">Freq</text></g></g><g transform="translate(-6 135)"><path d="m0 0v75z"/><g pointer-events="none" transform="translate(.5 .5)"><g stroke="#888"><path d="m0 75h-5"/><path d="m0 33h-5"/></g><g fill="#000" font-family="sans-serif" font-size="10" text-anchor="end"><text transform="translate(-7 78)">0.0</text><text transform="translate(-7 36.333333)">0.1</text></g><path d="m0 75v-75" stroke="#888"/><text fill="#000" font-family="sans-serif" font-size="11" font-weight="bold" text-anchor="middle" transform="matrix(0 -1 1 0 -26.901367 37.5)">Freq</text></g></g><g transform="translate(-6 270)"><path d="m0 0v75z"/><g pointer-events="none" transform="translate(.5 .5)"><g stroke="#888"><path d="m0 75h-5"/><path d="m0 33h-5"/></g><g fill="#000" font-family="sans-serif" font-size="10" text-anchor="end"><text transform="translate(-7 78)">0.0</text><text transform="translate(-7 36.333333)">0.1</text></g><path d="m0 75v-75" stroke="#888"/><text fill="#000" font-family="sans-serif" font-size="11" font-weight="bold" text-anchor="middle" transform="matrix(0 -1 1 0 -26.901367 37.5)">Freq</text></g></g><g transform="translate(-6 405)"><path d="m0 0v75z"/><g pointer-events="none" transform="translate(.5 .5)"><g stroke="#888"><path d="m0 75h-5"/><path d="m0 33h-5"/></g><g fill="#000" font-family="sans-serif" font-size="10" text-anchor="end"><text transform="translate(-7 78)">0.0</text><text transform="translate(-7 36.333333)">0.1</text></g><path d="m0 75v-75" stroke="#888"/><text fill="#000" font-family="sans-serif" font-size="11" font-weight="bold" text-anchor="middle" transform="matrix(0 -1 1 0 -26.901367 37.5)">Freq</text></g></g><path d="m.5.5h330v75h-330z" stroke="#ddd"/><g pointer-events="none" stroke="#ddd" transform="translate(.5 75.5)"><path d="m11-75v75"/><path d="m30-75v75"/><path d="m49-75v75"/><path d="m68-75v75"/><path d="m87-75v75"/><path d="m106-75v75"/><path d="m125-75v75"/><path d="m145-75v75"/><path d="m164-75v75"/><path d="m183-75v75"/><path d="m202-75v75"/><path d="m221-75v75"/><path d="m240-75v75"/><path d="m259-75v75"/><path d="m278-75v75"/><path d="m297-75v75"/><path d="m316-75v75"/></g><g pointer-events="none" stroke="#ddd" transform="translate(.5 .5)"><path d="m0 75h330"/><path d="m0 33h330"/></g><g pointer-events="none" transform="translate(.5 75.5)"><g stroke="#888"><path d="m11 0v5"/><path d="m30 0v5"/><path d="m49 0v5"/><path d="m68 0v5"/><path d="m87 0v5"/><path d="m106 0v5"/><path d="m125 0v5"/><path d="m145 0v5"/><path d="m164 0v5"/><path d="m183 0v5"/><path d="m202 0v5"/><path d="m221 0v5"/><path d="m240 0v5"/><path d="m259 0v5"/><path d="m278 0v5"/><path d="m297 0v5"/><path d="m316 0v5"/></g><g fill="#000" font-family="sans-serif" font-size="10" text-anchor="middle"><text transform="translate(10.912849 15)">Jan 05</text><text opacity="0" transform="translate(30.010334 15)">Jan 12</text><text transform="translate(49.107819 15)">Jan 19</text><text opacity="0" transform="translate(68.205305 15)">Jan 26</text><text transform="translate(87.30279 15)">Feb 02</text><text opacity="0" transform="translate(106.400276 15)">Feb 09</text><text transform="translate(125.497761 15)">Feb 16</text><text opacity="0" transform="translate(144.595246 15)">Feb 23</text><text transform="translate(163.692732 15)">March</text><text opacity="0" transform="translate(182.790217 15)">Mar 08</text><text transform="translate(201.774027 15)">Mar 15</text><text opacity="0" transform="translate(220.871512 15)">Mar 22</text><text transform="translate(239.968998 15)">Mar 29</text><text opacity="0" transform="translate(259.066483 15)">Apr 05</text><text transform="translate(278.163968 15)">Apr 12</text><text opacity="0" transform="translate(297.261454 15)">Apr 19</text><text transform="translate(316.358939 15)">Apr 26</text></g><path d="m0 0h330" stroke="#888"/></g><path d="m0 0h330v75h-330z"/><path d="m0 75h2.72821219l2.7282122-3.3792917 2.72821219.80462641 2.7282122 1.60567304 2.72821219.20586649 2.7282122.76312576 2.72821219-1.24875125 2.72821219-.61413996 2.7282122 1.56842713 2.72821219.29446408h2.7282122 2.72821219l2.7282122-.30592266 2.72821219.30592266 2.72821219-.58153059 2.7282122.22540523 2.72821219-2.72377608 2.7282122-.76794377 2.72821219 3.84784521 2.7282122-.35460993 2.72821219-2.6895301 2.72821219 1.98661042 2.7282122 1.05752961 2.72821219-1.69376694 2.7282122-4.07324575 2.72821219.60705397 2.7282122 1.78418712 2.72821219 1.63421813 2.72821219-8.13045089 2.7282122-4.68622857 2.72821219 10.81291458 2.7282122-1.27476197 2.72821219 2.27081346 2.7282122 2.10774774 2.72821219-.28578058 2.72821219-1.13745088 2.7282122-3.56588005 2.72821219-5.12739651 2.7282122 7.4642195 2.72821219 2.4184575 2.7282122-.89393507 2.72821219.59336799 2.72821219-.0077949 2.7282122.30281008 2.72821219.88090204h2.7282122l2.72821219-1.36462882 2.7282122.21994018 2.72821219.76137064 2.72821219.11098685 2.7282122-.04428486 2.72821219-1.4087118 2.7282122-1.4904017 2.72821219-.77004434 2.7282122 1.136771 2.72821219 1.75729979 2.72821219-.7507901 2.7282122-.66188951 2.72821219-2.36484382 2.7282122-5.50234638 2.72821219-1.14253191 2.7282122 9.54637554 2.72821219-3.73677732 2.72821219 3.09012748 2.7282122-24.50735671 2.72821219 5.52237875 2.7282122-9.50112143 2.61453668 9.47160019 2.7282122 3.4348082 2.72821219-5.62232715 2.7282122-11.19210951 2.72821219 8.50818058 2.72821219-.77092099 2.7282122 1.06796484 2.72821219 1.0749091 2.7282122-4.40522605 2.72821219 2.39544137 2.7282122 2.25744896 2.72821219-5.07089636 2.72821219 6.3585317 2.7282122-1.37100687 2.72821219-.73266347 2.7282122-.40890718 2.72821219 1.04633913 2.7282122 4.31242401 2.72821219 1.13904483 2.72821219 2.02242827 2.7282122-8.4562518 2.72821219-1.11729923 2.7282122 4.17697371 2.72821219-.28080235 2.7282122-5.53490164 2.72821219 2.95970735 2.72821219.19370263 2.7282122-1.86380441 2.72821219 4.97313844 2.7282122 1.3290833 2.72821219-.77318089 2.7282122 5.09028426 2.72821219.84054255 2.72821219-10.90663396 2.7282122-3.05364107 2.72821219 8.96472694 2.7282122-5.23593646 2.72821219 2.32838694 2.7282122 2.95220473 2.72821219-.26188124 2.72821219-6.83184057 2.7282122-1.06537737 2.72821219 10.46429676 2.7282122.32427786 2.72821219-3.39314525 2.7282122 4.50689338 2.72821219-7.0496633 2.72821219 2.07644059 2.7282122 6.20347394 2.72821219 4.19995665 2.7282122-11.65794418 2.72821219.94301081 2.7282122-.8353665 2.72821219 2.02505257" stroke="#4c78a8" stroke-width="2"/><path d="m0 0h330v75h-330z"/><path d="m0 75 2.72821219-.96674401 2.7282122.24958968 2.72821219.71715433 2.7282122-.8043758 2.72821219.03133931 2.7282122.1878305 2.72821219-.21761996 2.72821219.80282595 2.7282122-1.57629256 2.72821219.08553526 2.7282122 1.4907573 2.72821219-.61637081 2.7282122.61637081 2.72821219-.4423213 2.72821219.4423213 2.7282122-.47673532 2.72821219.47673532h2.7282122 2.72821219l2.7282122-.63227112 2.72821219.20839862 2.72821219-.07215925 2.7282122.49603175 2.72821219-1.79856115 2.7282122-15.13910823 2.72821219 14.59684541 2.7282122.13623843 2.72821219 1.71611348 2.72821219-1.92698688 2.7282122-1.27730325 2.72821219-1.97617205 2.7282122 3.56985783 2.72821219 1.23819487 2.7282122-.24433508 2.72821219-.94732854 2.72821219 1.17257332 2.7282122-2.75111022 2.72821219 2.96865493 2.7282122-7.28669847 2.72821219 4.36951506 2.7282122 2.37188107 2.72821219 1.20772947 2.72821219-2.53036437 2.7282122-2.86920366 2.72821219-5.899867 2.7282122 4.20292246 2.72821219 2.34817449 2.7282122.11011916 2.72821219 3.45226067 2.72821219-.22169941 2.7282122-.47771187 2.72821219 1.88536953 2.7282122-5.41125541 2.72821219 4.80913595 2.7282122-7.35186977 2.72821219 4.67314933 2.72821219 2.73546468 2.7282122-1.67093684 2.72821219-2.66268872 2.7282122-4.17897023 2.72821219 5.38689906 2.7282122-2.42834861 2.72821219-1.4397833 2.72821219 3.37253719 2.7282122-12.82279986 2.72821219-23.24658497 2.7282122 21.18843245 2.61453668-5.50732263 2.7282122 6.62541253 2.72821219-27.49653601 2.7282122 10.46103019 2.72821219-7.9579131 2.72821219 18.78131717 2.7282122-4.93470153 2.72821219-7.41142652 2.7282122 9.38399024 2.72821219-6.44142903 2.7282122-.08407318 2.72821219 3.96825397 2.72821219-8.88885182 2.7282122 4.44927201 2.72821219 1.01540238 2.7282122 2.66737987 2.72821219 6.02281061 2.7282122 3.42824574 2.72821219 4.59771054 2.72821219-6.46628772 2.7282122-.41216108 2.72821219 2.83776136 2.7282122-6.24677675 2.72821219-1.84089752 2.7282122-2.84815642 2.72821219 18.3392484 2.72821219-13.82640845 2.7282122 2.98190186 2.72821219 1.59298918 2.7282122 5.18769199 2.72821219.09303761 2.7282122-1.30618968 2.72821219-2.55003849 2.72821219 8.94163922 2.7282122-10.56026913 2.72821219-1.59593625 2.7282122 4.8235598 2.72821219 7.34908153 2.7282122-2.31086376 2.72821219-6.0956885 2.72821219.85010808 2.7282122.83570048 2.72821219-8.69199142 2.7282122 10.1914712 2.72821219 8.37051859 2.7282122-5.24316799 2.72821219-.87521836 2.72821219-.47035456 2.7282122 8.62374683 2.72821219-13.72907244 2.7282122 3.21823515 2.72821219-8.72995136 2.7282122 6.14704421 2.72821219-15.04112864" stroke="#f58518" stroke-width="2"/><path d="m0 0h330v75h-330z"/><path d="m0 75h2.72821219 2.7282122 2.72821219l2.7282122-2.57997936 2.72821219 1.57110123 2.7282122.41786158 2.72821219-.79556138 2.72821219-2.97186001 2.7282122 2.02634839 2.72821219 2.33208955 2.7282122-1.06292517 2.72821219-3.5411264 2.7282122 3.79024949 2.72821219.81380208 2.72821219-.54609 2.7282122.54609h2.72821219l2.7282122-1.23274162 2.72821219.26823545 2.7282122.96450617 2.72821219-2.24014337 2.72821219 1.46710688 2.7282122.0521599 2.72821219-2.9149582 2.7282122 3.63583479 2.72821219-4.78011472 2.7282122.73480728 2.72821219 1.07970839 2.72821219 1.03955899 2.7282122-.63543535 2.72821219 1.43229745 2.7282122-2.19087516 2.72821219 1.38656511 2.7282122-.68705706 2.72821219 1.00555799 2.72821219.77493332 2.7282122.25070911 2.72821219.58934465h2.7282122 2.72821219l2.7282122-.82671958 2.72821219-.38452073 2.72821219 1.21124031h2.7282122 2.72821219l2.7282122-4.37445319 2.72821219 4.37445319h2.7282122 2.72821219l2.72821219-1.73130194 2.7282122.61423313 2.72821219-2.31935731 2.7282122 1.45544355 2.72821219.65683003 2.7282122-.04496027 2.72821219-12.74746278 2.72821219 9.94990892 2.7282122-1.41725165 2.72821219 4.48453398 2.7282122-2.45175202 2.72821219-10.87352569 2.7282122 6.8705908 2.72821219 5.89404469 2.72821219-8.26060836 2.7282122-16.56576609 2.72821219 9.17338162 2.7282122-16.1144759 2.61453668 20.11806461 2.7282122 1.64814614 2.72821219-15.22043589 2.7282122-11.3663164 2.72821219 1.59985933 2.72821219 1.6219078 2.7282122-7.96988328 2.72821219 4.92144034 2.7282122 2.19581048 2.72821219 6.01460552 2.7282122 4.58339776 2.72821219-7.51110612 2.72821219-2.3117801 2.7282122 1.4792704 2.72821219 7.8087361 2.7282122-.58308924 2.72821219 2.49176401 2.7282122-.17927491 2.72821219 5.25702647 2.72821219 2.12928547 2.7282122 1.51579667 2.72821219-1.42108446 2.7282122 3.57784733 2.72821219-4.05140911 2.7282122-.60815846 2.72821219-7.8316668 2.72821219-10.72973212 2.7282122 2.10213229 2.72821219 18.98532097 2.7282122-1.49374991 2.72821219-3.98842821 2.7282122-1.74486109 2.72821219 3.66635994 2.72821219.38324872 2.7282122-9.41042166 2.72821219 8.44567119 2.7282122-1.89200114 2.72821219-4.20080286 2.7282122 8.70911231 2.72821219 4.22984853 2.72821219-7.44603598 2.7282122 1.26140391 2.72821219 4.28841771 2.7282122 1.11796491 2.72821219-2.44798835 2.7282122-3.70615647 2.72821219-11.01480909 2.72821219 3.55627035 2.7282122-7.15386649 2.72821219 9.03750751 2.7282122 10.70285038 2.72821219-9.41916325 2.7282122-.41573601 2.72821219-17.14072786" stroke="#e45756" stroke-width="2"/><path d="m38.194971 0v75" stroke="#000"/><path d="m174.60558 0v75" stroke="#000"/><path d="m207.230451 0v75" stroke="#000"/><g fill="#000" font-family="sans-serif"><text font-size="11" transform="translate(45.194971 14)">A</text><text font-size="11" transform="translate(181.60558 14)">B</text><text font-size="11" transform="translate(214.230451 14)">C</text><text font-size="10" pointer-events="none" text-anchor="middle" transform="translate(165 -13)">Covid</text></g><g transform="translate(359)"><path d="m.5.5h330v75h-330z" stroke="#ddd"/><g pointer-events="none" stroke="#ddd" transform="translate(.5 75.5)"><path d="m11-75v75"/><path d="m30-75v75"/><path d="m49-75v75"/><path d="m68-75v75"/><path d="m87-75v75"/><path d="m106-75v75"/><path d="m125-75v75"/><path d="m145-75v75"/><path d="m164-75v75"/><path d="m183-75v75"/><path d="m202-75v75"/><path d="m221-75v75"/><path d="m240-75v75"/><path d="m259-75v75"/><path d="m278-75v75"/><path d="m297-75v75"/><path d="m316-75v75"/></g><g pointer-events="none" stroke="#ddd" transform="translate(.5 .5)"><path d="m0 75h330"/><path d="m0 33h330"/></g><g pointer-events="none" transform="translate(.5 75.5)"><g stroke="#888"><path d="m11 0v5"/><path d="m30 0v5"/><path d="m49 0v5"/><path d="m68 0v5"/><path d="m87 0v5"/><path d="m106 0v5"/><path d="m125 0v5"/><path d="m145 0v5"/><path d="m164 0v5"/><path d="m183 0v5"/><path d="m202 0v5"/><path d="m221 0v5"/><path d="m240 0v5"/><path d="m259 0v5"/><path d="m278 0v5"/><path d="m297 0v5"/><path d="m316 0v5"/></g><g fill="#000" font-family="sans-serif" font-size="10" text-anchor="middle"><text transform="translate(10.912849 15)">Jan 05</text><text opacity="0" transform="translate(30.010334 15)">Jan 12</text><text transform="translate(49.107819 15)">Jan 19</text><text opacity="0" transform="translate(68.205305 15)">Jan 26</text><text transform="translate(87.30279 15)">Feb 02</text><text opacity="0" transform="translate(106.400276 15)">Feb 09</text><text transform="translate(125.497761 15)">Feb 16</text><text opacity="0" transform="translate(144.595246 15)">Feb 23</text><text transform="translate(163.692732 15)">March</text><text opacity="0" transform="translate(182.790217 15)">Mar 08</text><text transform="translate(201.774027 15)">Mar 15</text><text opacity="0" transform="translate(220.871512 15)">Mar 22</text><text transform="translate(239.968998 15)">Mar 29</text><text opacity="0" transform="translate(259.066483 15)">Apr 05</text><text transform="translate(278.163968 15)">Apr 12</text><text opacity="0" transform="translate(297.261454 15)">Apr 19</text><text transform="translate(316.358939 15)">Apr 26</text></g><path d="m0 0h330" stroke="#888"/></g><path d="m0 0h330v75h-330z"/><path d="m0 75 2.72821219-2.49202552 2.7282122-2.57691203 2.72821219-.50950392 2.7282122 4.1249531 2.72821219.30879973 2.7282122-3.35047042 2.72821219 1.99765656 2.72821219.63461129 2.7282122-2.55406992 2.72821219 2.35169884 2.7282122 1.06964301 2.72821219-2.6205813 2.7282122-1.89040735 2.72821219 4.27204003 2.72821219-1.38231975 2.7282122-2.72499269 2.72821219 1.82199298 2.7282122.22173433 2.72821219-1.51880265 2.7282122.91624646 2.72821219 1.23708669 2.72821219.54856331 2.7282122-1.39741005 2.72821219.12493539 2.7282122 1.22490412 2.72821219 1.7326332 2.7282122-.53450961 2.72821219-2.51860076 2.72821219-2.64434405 2.7282122 1.10737066 2.72821219 3.61558594 2.7282122-1.79010219 2.72821219-.47109258 2.7282122-.50418511 2.72821219.76977535 2.72821219.09649798 2.7282122-3.57828095 2.72821219 2.33040886 2.7282122.70869744 2.72821219-.53397512 2.7282122-1.81574753 2.72821219 3.44869139 2.72821219-.01818811 2.7282122-2.52341731 2.72821219 1.17526018 2.7282122-.98357245 2.72821219 3.27421944 2.7282122-.85143508 2.72821219-.39560383 2.72821219-4.55872833 2.7282122 3.82588023 2.72821219.78006843 2.7282122.26298409 2.72821219-1.53603226 2.7282122-1.0495085 2.72821219 1.33896913 2.72821219 3.47648459 2.7282122-4.79538655 2.72821219 1.49599236 2.7282122-1.13449665 2.72821219.64252817 2.7282122.13636465 2.72821219 1.56685913 2.72821219-.32661096 2.7282122-1.85913075 2.72821219 1.28413282 2.7282122.32638174 2.61453668-2.52818666 2.7282122-.34671071 2.72821219.77215731 2.7282122-1.08752225 2.72821219 1.21588885 2.72821219-.94133697 2.7282122-4.23789782 2.72821219-.4454115 2.7282122-4.80901924 2.72821219 3.12524393 2.7282122 2.07722303 2.72821219-4.06403097 2.72821219-2.64017144 2.7282122-1.93778922 2.72821219-6.83184898 2.7282122 7.78293721 2.72821219-.00388612 2.7282122 2.74610165 2.72821219 3.74274537 2.72821219 2.98804276 2.7282122-3.51300783 2.72821219-2.48456382 2.7282122 1.38832002 2.72821219 1.40351561 2.7282122-.77999163 2.72821219 1.6585824 2.72821219-1.98770154 2.7282122-3.25311855 2.72821219 2.61426877 2.7282122 5.161031 2.72821219-11.93638201 2.7282122 5.76707603 2.72821219-.88585686 2.72821219 4.62876716 2.7282122-5.36695199 2.72821219.10698217 2.7282122 1.42898045 2.72821219-2.16734264 2.7282122 6.22057811 2.72821219 4.50059766 2.72821219-15.41960861 2.7282122-.86779926 2.72821219 7.6494654 2.7282122.91616575 2.72821219-2.49083059 2.7282122 1.5914495 2.72821219 1.92682029 2.72821219-5.54812432 2.7282122 3.04386875 2.72821219.96628757 2.7282122-3.77415459 2.72821219 3.38642944 2.7282122-1.87973938 2.72821219 1.08130166" stroke="#4c78a8" stroke-width="2"/><path d="m0 0h330v75h-330z"/><path d="m0 75 2.72821219-3.86697602 2.7282122.28120436 2.72821219.66179505 2.7282122 2.11960081 2.72821219-3.06080664 2.7282122.35394648 2.72821219.29993217 2.72821219 1.09355707 2.7282122.01602331 2.72821219-.13441255 2.7282122.11389487 2.72821219.27312866 2.7282122-1.70346573 2.72821219-.42831356 2.72821219 1.9533167 2.7282122-4.1699841 2.72821219-.65898096 2.7282122 3.60133175 2.72821219-1.02770895 2.7282122 2.38610393 2.72821219-2.34191164 2.72821219.27047102 2.7282122-2.23009314 2.72821219 1.40218404 2.7282122 3.9492796 2.72821219-3.24955848 2.7282122 3.3615801 2.72821219-3.17291463 2.72821219-.31927666 2.7282122-2.54301087 2.72821219 1.80974655 2.7282122 3.91077926 2.72821219-.67222489 2.7282122-2.14649509 2.72821219.78944045 2.72821219 1.75885997 2.7282122-5.94220636 2.72821219 1.96274706 2.7282122-.66242714 2.72821219 1.66631155 2.7282122 2.48393845 2.72821219-4.4339447 2.72821219 4.55862932 2.7282122-4.61258646 2.72821219 2.0622079 2.7282122 2.20971312 2.72821219.8404905 2.7282122.41404803 2.72821219-1.99419944 2.72821219-.98651782 2.7282122-.4883277 2.72821219.12346531 2.7282122-1.29263927 2.72821219 3.00277757 2.7282122-.03890346 2.72821219-.8334586 2.72821219.00858859 2.7282122-.27384798 2.72821219-1.82080157 2.7282122 1.74371245 2.72821219-2.49526485 2.7282122 2.30631541 2.72821219-1.21399806 2.72821219.85946924 2.7282122 1.19351003 2.72821219 1.18488768 2.7282122-3.44982628 2.61453668 2.93606946 2.7282122-2.3752427 2.72821219.36962437 2.7282122-1.51986172 2.72821219-1.50080238 2.72821219 2.85763582 2.7282122-3.9981623 2.72821219-4.00762482 2.7282122.43034008 2.72821219.34943864 2.7282122-1.41873487 2.72821219-.44390637 2.72821219 2.62318905 2.7282122-6.8245945 2.72821219.52885541 2.7282122 1.16208327 2.72821219 5.6612538 2.7282122-4.84001639 2.72821219 1.48367044 2.72821219 5.00612219 2.7282122-2.68616256 2.72821219-4.72883099 2.7282122 4.43219354 2.72821219 3.53775912 2.7282122-4.41087925 2.72821219 2.85994088 2.72821219 1.14801465 2.7282122-6.57107368 2.72821219 2.41663846 2.7282122 4.22608721 2.72821219-.68107142 2.7282122-.40664396 2.72821219-4.12721324 2.72821219-.42855836 2.7282122-6.18485016 2.72821219 5.64020475 2.7282122 5.94687478 2.72821219-2.06629802 2.7282122 1.92563609 2.72821219-3.18093108 2.72821219-.0070729 2.7282122 1.64474385 2.72821219.48963812 2.7282122-4.68354885 2.72821219 9.2004096 2.7282122-2.73507248 2.72821219 1.53444301 2.72821219.84534067 2.7282122.94286093 2.72821219-6.80243139 2.7282122 5.17014049 2.72821219-8.88479206 2.7282122 3.11672297 2.72821219-12.60908185" stroke="#f58518" stroke-width="2"/><path d="m0 0h330v75h-330z"/><path d="m0 61.77248677 2.72821219 9.25925926 2.7282122.31328321 2.72821219.63564709 2.7282122-4.72061441 2.72821219 3.70442557 2.7282122-3.05668607 2.72821219 2.23917584 2.72821219 1.36627239 2.7282122-.40006557 2.72821219.10581169 2.7282122-2.59654679 2.72821219-.52852633 2.7282122 2.02326485 2.72821219.54253472 2.72821219.51764781 2.7282122-5.29729707 2.72821219-7.7150898 2.7282122 15.60227522 2.72821219-3.58978924 2.7282122-1.47866637 2.72821219 1.82091049 2.72821219-2.47704165 2.7282122 1.1903157 2.72821219-3.68615776 2.7282122 2.14322893 2.72821219-2.25028793 2.7282122.66055307 2.72821219 2.22707852 2.72821219 2.82051774 2.7282122-11.51677234 2.72821219 11.98131858 2.7282122-4.91259892 2.72821219.56618075 2.7282122-.12768317 2.72821219 4.09333203 2.72821219.40808814 2.7282122-3.71192074 2.72821219 1.57521407 2.7282122-.63052926 2.72821219 4.19396297 2.7282122-7.98714691 2.72821219 2.0475729 2.72821219 2.83564118 2.7282122 2.01809717 2.72821219-2.78787726 2.7282122 1.43274774 2.72821219-3.66044121 2.7282122 5.38096659 2.72821219-.61148494 2.72821219-.19719113 2.7282122-2.68127458 2.72821219 1.84834581 2.7282122-2.30774257 2.72821219 2.18943341 2.7282122-8.36454446 2.72821219 7.7692788 2.72821219-.08348512 2.7282122-1.82083009 2.72821219-1.88165208 2.7282122 3.46837021 2.72821219-.85529347 2.7282122-.17932514 2.72821219.96623684 2.72821219-1.88004596 2.7282122-2.60785317 2.72821219 3.53487834 2.7282122 2.11081897 2.61453668-4.18296392 2.7282122 1.24407696 2.72821219.45574499 2.7282122-1.06456854 2.72821219.5213959 2.72821219-2.22267863 2.7282122-7.20301484 2.72821219 4.83584794 2.7282122-7.26450688 2.72821219-1.18976655 2.7282122 10.3202061 2.72821219-5.62772486 2.72821219.35272521 2.7282122-11.42910981 2.72821219 6.55531776 2.7282122 8.43371641 2.72821219 1.14620739 2.7282122-1.07152347 2.72821219.33029562 2.72821219 4.33925019 2.7282122.00962738 2.72821219-3.52541295 2.7282122 1.07725626 2.72821219 1.44636044 2.7282122-1.57327948 2.72821219-1.35303118 2.72821219-10.10911779 2.7282122 1.88026743 2.72821219 11.002387 2.7282122-.22408114 2.72821219-11.22932927 2.7282122 2.14377915 2.72821219-2.17954117 2.72821219-8.98138908 2.7282122 11.23082013 2.72821219 8.39765938 2.7282122-1.91069334 2.72821219-4.63978837 2.7282122 6.39392602 2.72821219-4.21420945 2.72821219 2.49925954 2.7282122 2.75562604 2.72821219-1.22613728 2.7282122 1.93446172 2.72821219-4.5154888 2.7282122-1.33289015 2.72821219-4.35606254 2.72821219-6.84986977 2.7282122 9.99969135 2.72821219 5.49172657 2.7282122-3.03297831 2.72821219-8.34888676 2.7282122-4.80270202 2.72821219-6.68653997" stroke="#e45756" stroke-width="2"/><path d="m38.194971 0v75" stroke="#000"/><path d="m174.60558 0v75" stroke="#000"/><path d="m207.230451 0v75" stroke="#000"/><g fill="#000" font-family="sans-serif"><text font-size="11" transform="translate(45.194971 14)">A</text><text font-size="11" transform="translate(181.60558 14)">B</text><text font-size="11" transform="translate(214.230451 14)">C</text><text font-size="10" pointer-events="none" text-anchor="middle" transform="translate(165 -13)">Distancing</text></g></g><g transform="translate(0 135)"><path d="m.5.5h330v75h-330z" stroke="#ddd"/><g pointer-events="none" stroke="#ddd" transform="translate(.5 75.5)"><path d="m11-75v75"/><path d="m30-75v75"/><path d="m49-75v75"/><path d="m68-75v75"/><path d="m87-75v75"/><path d="m106-75v75"/><path d="m125-75v75"/><path d="m145-75v75"/><path d="m164-75v75"/><path d="m183-75v75"/><path d="m202-75v75"/><path d="m221-75v75"/><path d="m240-75v75"/><path d="m259-75v75"/><path d="m278-75v75"/><path d="m297-75v75"/><path d="m316-75v75"/></g><g pointer-events="none" stroke="#ddd" transform="translate(.5 .5)"><path d="m0 75h330"/><path d="m0 33h330"/></g><g pointer-events="none" transform="translate(.5 75.5)"><g stroke="#888"><path d="m11 0v5"/><path d="m30 0v5"/><path d="m49 0v5"/><path d="m68 0v5"/><path d="m87 0v5"/><path d="m106 0v5"/><path d="m125 0v5"/><path d="m145 0v5"/><path d="m164 0v5"/><path d="m183 0v5"/><path d="m202 0v5"/><path d="m221 0v5"/><path d="m240 0v5"/><path d="m259 0v5"/><path d="m278 0v5"/><path d="m297 0v5"/><path d="m316 0v5"/></g><g fill="#000" font-family="sans-serif" font-size="10" text-anchor="middle"><text transform="translate(10.912849 15)">Jan 05</text><text opacity="0" transform="translate(30.010334 15)">Jan 12</text><text transform="translate(49.107819 15)">Jan 19</text><text opacity="0" transform="translate(68.205305 15)">Jan 26</text><text transform="translate(87.30279 15)">Feb 02</text><text opacity="0" transform="translate(106.400276 15)">Feb 09</text><text transform="translate(125.497761 15)">Feb 16</text><text opacity="0" transform="translate(144.595246 15)">Feb 23</text><text transform="translate(163.692732 15)">March</text><text opacity="0" transform="translate(182.790217 15)">Mar 08</text><text transform="translate(201.774027 15)">Mar 15</text><text opacity="0" transform="translate(220.871512 15)">Mar 22</text><text transform="translate(239.968998 15)">Mar 29</text><text opacity="0" transform="translate(259.066483 15)">Apr 05</text><text transform="translate(278.163968 15)">Apr 12</text><text opacity="0" transform="translate(297.261454 15)">Apr 19</text><text transform="translate(316.358939 15)">Apr 26</text></g><path d="m0 0h330" stroke="#888"/></g><path d="m0 0h330v75h-330z"/><path d="m0 64.03508772 2.72821219 5.48245614 2.7282122-7.69678149 2.72821219 1.16413293 2.7282122.38719772 2.72821219 3.23352359 2.7282122.78719114 2.72821219-5.71282107 2.72821219 2.45314794 2.7282122 1.14955089 2.72821219-.60899695 2.7282122 3.35697651 2.72821219 2.54953422 2.7282122-1.08680722 2.72821219-3.44400935 2.72821219-1.80769861 2.7282122-2.77444764 2.72821219 6.93297472 2.7282122-.54620943 2.72821219-3.93299983 2.7282122 2.21374984 2.72821219 1.63541566 2.72821219 2.64720426 2.7282122-.68607559 2.72821219-11.1043765 2.7282122 12.76869747 2.72821219-.69558267 2.7282122-3.41608378 2.72821219 2.05600062 2.72821219-6.25443926 2.7282122 1.87432738 2.72821219 3.01768873 2.7282122 1.08964971 2.72821219-15.7558386 2.7282122 13.66967183 2.72821219-6.81780628 2.72821219 6.16484282 2.7282122-18.54276228 2.72821219 9.4225929 2.7282122 9.00863477 2.72821219-4.34676506 2.7282122 4.28382606 2.72821219 1.79092275 2.72821219 2.32065481 2.7282122-7.59778013 2.72821219 2.05724842 2.7282122 5.18165566 2.72821219.54496179 2.7282122-.7931176 2.72821219-2.32447967 2.72821219-14.66479467 2.7282122 5.23389024 2.72821219 2.00064608 2.7282122 6.82759962 2.72821219-10.12686058 2.7282122-4.39614347 2.72821219 6.05257592 2.72821219 7.52698109 2.7282122-26.7880351 2.72821219 18.26260439 2.7282122-11.57307032 2.72821219 13.47907274 2.7282122.3360263 2.72821219.75922582 2.72821219.0307596 2.7282122.54497605 2.72821219 7.37971281 2.7282122-5.57925308 2.61453668-17.22388119 2.7282122 11.61487583 2.72821219 5.21925947 2.7282122 3.75267905 2.72821219 2.33845709 2.72821219-3.38110432 2.7282122 2.79978 2.72821219-1.90962482 2.7282122-2.99584705 2.72821219-1.01204223 2.7282122 2.76253005 2.72821219-3.47385155 2.72821219-6.47710411 2.7282122 5.26011345 2.72821219 3.5312952 2.7282122.29365044 2.72821219-3.566734 2.7282122 5.96734519 2.72821219-1.43346758 2.72821219 1.1425242 2.7282122-1.78193072 2.72821219-1.61460564 2.7282122-8.23010971 2.72821219 11.39808043 2.7282122-1.05900578 2.72821219 2.52482595 2.72821219-6.07345355 2.7282122 6.70623907 2.72821219.61304715 2.7282122-13.20005557 2.72821219 3.9688237 2.7282122-.06361557 2.72821219 4.22075153 2.72821219-3.87609998 2.7282122 7.65184427 2.72821219-6.3924212 2.7282122 4.64721326 2.72821219-4.0977046 2.7282122 2.09447421 2.72821219 4.62829718 2.72821219-2.36479682 2.7282122-7.2402258 2.72821219-3.66357823 2.7282122 1.33761923 2.72821219 9.49676192 2.7282122-.57979138 2.72821219-8.34517046 2.72821219 5.78075459 2.7282122 3.57625643 2.72821219-12.04609616 2.7282122 9.50527822 2.72821219 1.81031242 2.7282122-2.89357953 2.72821219-.226704" stroke="#4c78a8" stroke-width="2"/><path d="m0 0h330v75h-330z"/><path d="m0 69.1314554 2.72821219-4.76563947 2.7282122 4.17979509 2.72821219 2.79941822 2.7282122-.36690826 2.72821219-2.93544937 2.7282122.52006247 2.72821219-2.3938195 2.72821219-4.40483156 2.7282122 6.93074674 2.72821219-8.60240281 2.7282122 10.66309088 2.72821219-.07011349 2.7282122-3.29807182 2.72821219-1.67607987 2.72821219 5.74049106 2.7282122.21110907 2.72821219-1.93711438 2.7282122-3.67756132 2.72821219-3.28508359 2.7282122 4.6496531 2.72821219-1.31406907 2.72821219 1.95687804 2.7282122-8.89577595 2.72821219-.34682997 2.7282122 11.10574955 2.72821219-4.28199507 2.7282122-3.1293555 2.72821219 6.14251461 2.72821219-5.72715792 2.7282122-.2319126 2.72821219 5.22303949 2.7282122 3.93755319 2.72821219-1.1557931 2.7282122-1.2216754 2.72821219-4.73664267 2.72821219 3.66293697 2.7282122-7.92453944 2.72821219-8.66062141 2.7282122 9.936407 2.72821219 5.37339948 2.7282122 1.2326311 2.72821219 2.18141287 2.72821219-1.44308433 2.7282122-2.19516851 2.72821219-.37522422 2.7282122-1.66329883 2.72821219 5.38953702 2.7282122-2.20899031 2.72821219-3.7162959 2.72821219-3.40295229 2.7282122 2.76435939 2.72821219-.35719522 2.7282122 1.44815219 2.72821219-.61689007 2.7282122 1.66047041 2.72821219-.66483981 2.72821219-1.06498467 2.7282122 1.15573131 2.72821219-2.93362898 2.7282122 4.83516048 2.72821219-.10374768 2.7282122-4.62606566 2.72821219 4.53823744 2.72821219-1.68040477 2.7282122 2.92643561 2.72821219 1.87804698 2.7282122-3.17749847 2.61453668-6.86792949 2.7282122 5.21885827 2.72821219 4.26185318 2.7282122-.92780027 2.72821219.12884937 2.72821219.91660017 2.7282122-.28108292 2.72821219-3.29949627 2.7282122-.30431279 2.72821219-7.52290002 2.7282122 6.34752489 2.72821219.25558245 2.72821219 4.15461839 2.7282122-.0237742 2.72821219-1.19873893 2.7282122-6.82367893 2.72821219 2.67673005 2.7282122 4.14127324 2.72821219-2.80158095 2.72821219 2.53713535 2.7282122-6.08333655 2.72821219-1.42764023 2.7282122-3.06986301 2.72821219 6.86209514 2.7282122-3.29974172 2.72821219 8.95185787 2.72821219-7.58908797 2.7282122 1.23781201 2.72821219 6.88030276 2.7282122-.77425764 2.72821219-1.45653536 2.7282122-9.08283528 2.72821219 3.85873749 2.72821219 1.52305159 2.7282122-4.68721199 2.72821219 6.83023814 2.7282122-.36032715 2.72821219-5.26258661 2.7282122 5.13452733 2.72821219 3.98499016 2.72821219-1.35228392 2.7282122.29722681 2.72821219-13.02408112 2.7282122 6.71618322 2.72821219 7.97368832 2.7282122-1.53545717 2.72821219 2.67891381 2.72821219-2.2259124 2.7282122-.88195659 2.72821219.37049971 2.7282122.20428991 2.72821219-4.87183706 2.7282122-1.27849503 2.72821219-5.14639528" stroke="#f58518" stroke-width="2"/><path d="m0 0h330v75h-330z"/><path d="m0 48.54497354 2.72821219 3.96825397 2.7282122-5.53467001 2.72821219 8.39583864 2.7282122 5.43571738 2.72821219-26.16523862 2.7282122 3.12108255 2.72821219 9.50248404 2.72821219 15.52793229 2.7282122-8.00781657 2.72821219-13.06139448 2.7282122-3.92954368 2.72821219 19.93718758 2.7282122 1.80295379 2.72821219 5.04557291 2.72821219-29.99399301 2.7282122-2.33899832 2.72821219 23.81026406 2.7282122-10.64640488 2.72821219 5.4731445 2.7282122-2.6674339 2.72821219 5.49872621 2.72821219-4.22884207 2.7282122 4.60478309 2.72821219-8.90842427 2.7282122-3.08089158 2.72821219.23061957 2.7282122 6.77414963 2.72821219 12.54477191 2.72821219-12.33533843 2.7282122-15.3030724 2.72821219-15.47529136 2.7282122 31.55849951 2.72821219-1.20168976 2.7282122 2.51718251 2.72821219 9.58835097 2.72821219 6.43607082 2.7282122-42.53381127 2.72821219-5.97430644 2.7282122 20.06982707 2.72821219 14.73040637 2.7282122-2.70649958 2.72821219-31.13656639 2.72821219 30.64396146 2.7282122 19.43526653 2.72821219-10.93759644 2.7282122 3.94005628 2.72821219-1.7443584 2.7282122-1.26481959 2.72821219-24.14602871 2.72821219 23.60323553 2.7282122-1.73284913 2.72821219-15.33148153 2.7282122 8.8742573 2.72821219-14.18724874 2.7282122 6.46944481 2.72821219 5.07793718 2.72821219 3.03202793 2.7282122-19.96221253 2.72821219 10.91000399 2.7282122-1.30395728 2.72821219 1.58940574 2.7282122-2.84088764 2.72821219 6.35181918 2.72821219 9.45556399 2.7282122-1.37671556 2.72821219-11.18392581 2.7282122 1.13789902 2.61453668-7.69592931 2.7282122-2.96444098 2.72821219 13.42122495 2.7282122 1.10200391 2.72821219.32667706 2.72821219 4.15682536 2.7282122 2.45541562 2.72821219 5.43304383 2.7282122-2.9169105 2.72821219-8.27911133 2.7282122-2.52604972 2.72821219-4.70211736 2.72821219 4.17478888 2.7282122.19236864 2.72821219 12.93538032 2.7282122-6.0106417 2.72821219 7.52842481 2.7282122-3.74703134 2.72821219-2.99357211 2.72821219 4.29055515 2.7282122-8.54223718 2.72821219-4.15926775 2.7282122 3.92248553 2.72821219 1.64362572 2.7282122 6.55032331 2.72821219-4.74687867 2.72821219 1.14928579 2.7282122-3.37934424 2.72821219-1.37175995 2.7282122-6.76441456 2.72821219 1.15511644 2.7282122-1.37351055 2.72821219 9.26272504 2.72821219-.80705049 2.7282122 6.97316461 2.72821219-6.63102034 2.7282122.79441851 2.72821219-1.35861207 2.7282122 10.95743401 2.72821219-5.75309445 2.72821219-1.00273701 2.7282122-4.78454531 2.72821219-3.17458275 2.7282122-12.33386972 2.72821219 13.49211098 2.7282122-14.55015796 2.72821219 23.69674274 2.72821219-10.68529515 2.7282122.58016053 2.72821219 3.88695856 2.7282122-5.51830498 2.72821219 17.45353895 2.7282122-17.2761411 2.72821219-.09315613" stroke="#e45756" stroke-width="2"/><path d="m38.194971 0v75" stroke="#000"/><path d="m174.60558 0v75" stroke="#000"/><path d="m207.230451 0v75" stroke="#000"/><g fill="#000" font-family="sans-serif"><text font-size="11" transform="translate(45.194971 14)">A</text><text font-size="11" transform="translate(181.60558 14)">B</text><text font-size="11" transform="translate(214.230451 14)">C</text><text font-size="10" pointer-events="none" text-anchor="middle" transform="translate(165 -13)">Economy</text></g></g><g transform="translate(359 135)"><path d="m.5.5h330v75h-330z" stroke="#ddd"/><g pointer-events="none" stroke="#ddd" transform="translate(.5 75.5)"><path d="m11-75v75"/><path d="m30-75v75"/><path d="m49-75v75"/><path d="m68-75v75"/><path d="m87-75v75"/><path d="m106-75v75"/><path d="m125-75v75"/><path d="m145-75v75"/><path d="m164-75v75"/><path d="m183-75v75"/><path d="m202-75v75"/><path d="m221-75v75"/><path d="m240-75v75"/><path d="m259-75v75"/><path d="m278-75v75"/><path d="m297-75v75"/><path d="m316-75v75"/></g><g pointer-events="none" stroke="#ddd" transform="translate(.5 .5)"><path d="m0 75h330"/><path d="m0 33h330"/></g><g pointer-events="none" transform="translate(.5 75.5)"><g stroke="#888"><path d="m11 0v5"/><path d="m30 0v5"/><path d="m49 0v5"/><path d="m68 0v5"/><path d="m87 0v5"/><path d="m106 0v5"/><path d="m125 0v5"/><path d="m145 0v5"/><path d="m164 0v5"/><path d="m183 0v5"/><path d="m202 0v5"/><path d="m221 0v5"/><path d="m240 0v5"/><path d="m259 0v5"/><path d="m278 0v5"/><path d="m297 0v5"/><path d="m316 0v5"/></g><g fill="#000" font-family="sans-serif" font-size="10" text-anchor="middle"><text transform="translate(10.912849 15)">Jan 05</text><text opacity="0" transform="translate(30.010334 15)">Jan 12</text><text transform="translate(49.107819 15)">Jan 19</text><text opacity="0" transform="translate(68.205305 15)">Jan 26</text><text transform="translate(87.30279 15)">Feb 02</text><text opacity="0" transform="translate(106.400276 15)">Feb 09</text><text transform="translate(125.497761 15)">Feb 16</text><text opacity="0" transform="translate(144.595246 15)">Feb 23</text><text transform="translate(163.692732 15)">March</text><text opacity="0" transform="translate(182.790217 15)">Mar 08</text><text transform="translate(201.774027 15)">Mar 15</text><text opacity="0" transform="translate(220.871512 15)">Mar 22</text><text transform="translate(239.968998 15)">Mar 29</text><text opacity="0" transform="translate(259.066483 15)">Apr 05</text><text transform="translate(278.163968 15)">Apr 12</text><text opacity="0" transform="translate(297.261454 15)">Apr 19</text><text transform="translate(316.358939 15)">Apr 26</text></g><path d="m0 0h330" stroke="#888"/></g><path d="m0 0h330v75h-330z"/><path d="m0 72.80701754 2.72821219.19936205 2.7282122-.03395461 2.72821219-2.69264468 2.7282122 2.7822352 2.72821219.03017009 2.7282122.87047001 2.72821219-.62765727 2.72821219-3.30270822 2.7282122 2.31753321 2.72821219-.44771675 2.7282122-1.88020295 2.72821219 3.77269619 2.7282122-1.24198111 2.72821219 1.52145537 2.72821219-1.98172701 2.7282122 1.12702616 2.72821219-3.93919019 2.7282122-1.42618127 2.72821219 5.21921597 2.7282122.50834255 2.72821219-3.52828783 2.72821219.01158937 2.7282122 3.17890355 2.72821219-3.88965516 2.7282122-1.56287607 2.72821219-.53117222 2.7282122 4.36416648 2.72821219.32805304 2.72821219-7.84552763 2.7282122-1.15494658 2.72821219 8.30287442 2.7282122-.36202009 2.72821219-.78024709 2.7282122.07619215 2.72821219-1.06150474 2.72821219 2.98224731 2.7282122-3.67841826 2.72821219-4.18895807 2.7282122 6.91525156 2.72821219-2.2846754 2.7282122 1.70423796 2.72821219-.28045584 2.72821219.75796179 2.7282122 2.624354 2.72821219.29381505 2.7282122-1.00995179 2.72821219-3.87590175 2.7282122 3.62401427 2.72821219.37278729 2.72821219-.26205924 2.7282122-.03766282 2.72821219-2.52833942 2.7282122-3.52436726 2.72821219-.00912696 2.7282122 3.29239071 2.72821219-.10885927 2.72821219-2.01214506 2.7282122 4.60237665 2.72821219-4.45165517 2.7282122-4.76834888 2.72821219-5.90658622 2.7282122 12.95761599 2.72821219-3.17033957 2.72821219-.32623812 2.7282122-22.79204693 2.72821219 8.35800327 2.7282122-4.11053526 2.61453668 2.84816511 2.7282122 5.67227837 2.72821219-8.99030251 2.7282122-19.60269717 2.72821219 11.99689798 2.72821219-.07903478 2.7282122-2.36703672 2.72821219 1.4556249 2.7282122-2.57470534 2.72821219 1.89699039 2.7282122 4.590576 2.72821219-10.33007081 2.72821219 15.57445152 2.7282122-11.45133602 2.72821219-.2117112 2.7282122 3.99076454 2.72821219.48783012 2.7282122 5.06474481 2.72821219 3.90648306 2.72821219.4323521 2.7282122-10.3842368 2.72821219 2.64464663 2.7282122 3.49505459 2.72821219 2.00913298 2.7282122-14.21707965 2.72821219 10.8287985 2.72821219 4.59558301 2.7282122-11.2451042 2.72821219 7.24404723 2.7282122 5.3618801 2.72821219-5.857392 2.7282122 9.80121199 2.72821219 2.31809355 2.72821219-8.64141453 2.7282122-10.1965184 2.72821219 13.62318495 2.7282122-11.44395074 2.72821219 5.5541052 2.7282122 5.92570105 2.72821219-1.20504264 2.72821219-10.20048648 2.7282122-3.8497109 2.72821219 11.86455002 2.7282122 5.8484212 2.72821219-7.35279455 2.7282122 7.26067348 2.72821219-6.72085438 2.72821219-1.60579508 2.7282122 7.66175327 2.72821219 5.93956315 2.7282122-8.1353999 2.72821219-1.06555909 2.7282122-2.72279398 2.72821219-4.43091692" stroke="#4c78a8" stroke-width="2"/><path d="m0 0h330v75h-330z"/><path d="m0 75 2.72821219-.96674401 2.7282122-1.90187332 2.72821219 2.13762318 2.7282122.73099415 2.72821219-2.31910946 2.7282122 1.14869747 2.72821219-2.0408918 2.72821219-2.083063 2.7282122-3.11252686 2.72821219 4.68000039 2.7282122-1.9324163 2.72821219.11197228 2.7282122 4.02480378 2.72821219-2.45835822 2.72821219 1.44642294 2.7282122-.80267844 2.72821219.70001642 2.7282122-2.2456817 2.72821219-.62379543 2.7282122 2.97752346 2.72821219-.01415052 2.72821219 1.5511715 2.7282122-3.14016791 2.72821219-.06441129 2.7282122-16.12856056 2.72821219 13.88793733 2.7282122 1.293233 2.72821219 1.7247285 2.72821219-.20388399 2.7282122-4.37779633 2.72821219-3.33688374 2.7282122 7.13971567 2.72821219.75462664 2.7282122-.97734032 2.72821219.82891247 2.72821219 2.27199626 2.7282122-4.58055059 2.72821219 3.91322695 2.7282122-6.62427133 2.72821219 5.03194219 2.7282122 1.76801634 2.72821219-1.75728517 2.72821219-2.75703156 2.7282122.02641489 2.72821219-9.23722712 2.7282122 4.38506055 2.72821219 1.65498645 2.7282122 4.08542075 2.72821219 1.85338065 2.72821219-2.54197509 2.7282122-1.44162828 2.72821219 4.10929801 2.7282122-4.3840777 2.72821219 1.79506321 2.7282122-4.38017592 2.72821219 3.83969074 2.72821219 1.65330283 2.7282122.91901526 2.72821219.57406115 2.7282122-8.66199414 2.72821219 8.40622274 2.7282122-3.95320374 2.72821219-2.42799612 2.72821219 3.57079033 2.7282122-18.15324499 2.72821219-19.62493018 2.7282122 27.11679951 2.61453668-8.9467684 2.7282122 3.09305554 2.72821219-34.17761546 2.7282122 9.97138826 2.72821219-12.73229493 2.72821219 27.74625093 2.7282122-12.41368816 2.72821219-5.77411847 2.7282122 12.08719679 2.72821219-.33166478 2.7282122-6.44210721 2.72821219 5.51520043 2.72821219-7.47734923 2.7282122 5.11005498 2.72821219 2.28201109 2.7282122-3.69773189 2.72821219 13.08123281 2.7282122-.24729794 2.72821219 7.8036504 2.72821219-5.45970077 2.7282122 3.47504156 2.72821219-3.43341028 2.7282122 4.94574375 2.72821219-8.78586264 2.7282122-11.24407789 2.72821219 30.65391263 2.72821219-17.32858685 2.7282122-2.29208183 2.72821219 10.4981822 2.7282122.71457183 2.72821219-.39292582 2.7282122-1.11052261 2.72821219-5.88016423 2.72821219 10.03841932 2.7282122-7.28988131 2.72821219-5.82470605 2.7282122 9.25971869 2.72821219 5.62768437 2.7282122.30938754 2.72821219-7.27149077 2.72821219 3.0968417 2.7282122-2.27651743 2.72821219-11.44611433 2.7282122 12.12874893 2.72821219 9.25582091 2.7282122-.28035859 2.72821219-10.5404932 2.72821219 8.23152915 2.7282122 6.79892931 2.72821219-14.33521564 2.7282122 6.03145886 2.72821219-10.43077975 2.7282122 7.46560961 2.72821219-29.96650177" stroke="#f58518" stroke-width="2"/><path d="m0 0h330v75h-330z"/><path d="m0 75 2.72821219-1.32275132 2.7282122 1.32275132 2.72821219-6.03864734 2.7282122 2.1686783 2.72821219 1.85221278 2.7282122-2.71037613 2.72821219-.81817931 2.72821219-6.65731452 2.7282122 6.76208393 2.72821219 4.68534144 2.7282122-7.74720051 2.72821219-.70470177 2.7282122 3.51148855 2.72821219-.37977431 2.72821219 2.79984892 2.7282122 2.70654453 2.72821219-1.53438166 2.7282122-.36110613 2.72821219 1.50097706 2.7282122-2.18609244 2.72821219-2.44975981 2.72821219-2.13000645 2.7282122 4.84685853 2.72821219-3.66099628 2.7282122-6.24789504 2.72821219 7.21559715 2.7282122 2.34055456 2.72821219 1.01204666 2.72821219-1.62788083 2.7282122-2.97852097 2.72821219 3.44306721 2.7282122 1.72750732 2.72821219-4.14043748 2.7282122-.09576238 2.72821219-1.64037995 2.72821219 3.33633755 2.7282122-1.69317767 2.72821219 1.49590911 2.7282122 2.09974326 2.72821219-1.5691819 2.7282122-1.09334144 2.72821219 4.3546973 2.72821219-2.27290603 2.7282122-2.15367993 2.72821219-2.22679504 2.7282122.69732137 2.72821219 3.11815362 2.7282122-.09504425 2.72821219 3.53857042 2.72821219-4.61680517 2.7282122 2.94120195 2.72821219-2.61992943 2.7282122.99389504 2.72821219-1.1122042 2.7282122 2.13198712 2.72821219-15.93308156 2.72821219 12.89086218 2.7282122.00605663 2.72821219 2.56955658 2.7282122-1.98638762 2.72821219-9.27768037 2.7282122 6.8560403 2.72821219 4.25144207 2.72821219-9.66109109 2.7282122-24.59388773 2.72821219 15.80730138 2.7282122-19.13691826 2.61453668 25.27886426 2.7282122-2.28114888 2.72821219-17.07028518 2.7282122-15.53256192 2.72821219 3.87184733 2.72821219-7.41104891 2.7282122-.95982402 2.72821219 7.5392018 2.7282122-1.6569045 2.72821219 11.67977437 2.7282122 3.0117528 2.72821219-11.52447635 2.72821219-1.38778305 2.7282122 5.33489666 2.72821219 2.09919651 2.7282122 5.20682839 2.72821219 5.10601729 2.7282122 1.22294785 2.72821219 6.71207874 2.72821219 2.32352662 2.7282122.39678561 2.72821219-1.90740273 2.7282122 6.12845807 2.72821219-6.89251201 2.7282122.11297806 2.72821219-6.5220064 2.72821219-22.37429571 2.7282122 3.64327407 2.72821219 32.22603054 2.7282122-2.53933753 2.72821219-15.66813269 2.7282122 2.47215682 2.72821219 7.64593958 2.72821219-4.66315646 2.7282122 3.02127567 2.72821219-.63542175 2.7282122-2.3996112 2.72821219.19439261 2.7282122 11.51742491 2.72821219-2.01222767 2.72821219-3.5863014 2.7282122-5.93451038 2.72821219 9.39460058 2.7282122.64167511 2.72821219 1.4072567 2.7282122-7.43035901 2.72821219-13.70968289 2.72821219-1.95480197 2.7282122 2.0471999 2.72821219 6.58760553 2.7282122 13.53073426 2.72821219-16.5131352 2.7282122 9.60947987 2.72821219-39.62240715" stroke="#e45756" stroke-width="2"/><path d="m38.194971 0v75" stroke="#000"/><path d="m174.60558 0v75" stroke="#000"/><path d="m207.230451 0v75" stroke="#000"/><g fill="#000" font-family="sans-serif"><text font-size="11" transform="translate(45.194971 14)">A</text><text font-size="11" transform="translate(181.60558 14)">B</text><text font-size="11" transform="translate(214.230451 14)">C</text><text font-size="10" pointer-events="none" text-anchor="middle" transform="translate(165 -13)">Epidemiological</text></g></g><g transform="translate(0 270)"><path d="m.5.5h330v75h-330z" stroke="#ddd"/><g pointer-events="none" stroke="#ddd" transform="translate(.5 75.5)"><path d="m11-75v75"/><path d="m30-75v75"/><path d="m49-75v75"/><path d="m68-75v75"/><path d="m87-75v75"/><path d="m106-75v75"/><path d="m125-75v75"/><path d="m145-75v75"/><path d="m164-75v75"/><path d="m183-75v75"/><path d="m202-75v75"/><path d="m221-75v75"/><path d="m240-75v75"/><path d="m259-75v75"/><path d="m278-75v75"/><path d="m297-75v75"/><path d="m316-75v75"/></g><g pointer-events="none" stroke="#ddd" transform="translate(.5 .5)"><path d="m0 75h330"/><path d="m0 33h330"/></g><g pointer-events="none" transform="translate(.5 75.5)"><g stroke="#888"><path d="m11 0v5"/><path d="m30 0v5"/><path d="m49 0v5"/><path d="m68 0v5"/><path d="m87 0v5"/><path d="m106 0v5"/><path d="m125 0v5"/><path d="m145 0v5"/><path d="m164 0v5"/><path d="m183 0v5"/><path d="m202 0v5"/><path d="m221 0v5"/><path d="m240 0v5"/><path d="m259 0v5"/><path d="m278 0v5"/><path d="m297 0v5"/><path d="m316 0v5"/></g><g fill="#000" font-family="sans-serif" font-size="10" text-anchor="middle"><text transform="translate(10.912849 15)">Jan 05</text><text opacity="0" transform="translate(30.010334 15)">Jan 12</text><text transform="translate(49.107819 15)">Jan 19</text><text opacity="0" transform="translate(68.205305 15)">Jan 26</text><text transform="translate(87.30279 15)">Feb 02</text><text opacity="0" transform="translate(106.400276 15)">Feb 09</text><text transform="translate(125.497761 15)">Feb 16</text><text opacity="0" transform="translate(144.595246 15)">Feb 23</text><text transform="translate(163.692732 15)">March</text><text opacity="0" transform="translate(182.790217 15)">Mar 08</text><text transform="translate(201.774027 15)">Mar 15</text><text opacity="0" transform="translate(220.871512 15)">Mar 22</text><text transform="translate(239.968998 15)">Mar 29</text><text opacity="0" transform="translate(259.066483 15)">Apr 05</text><text transform="translate(278.163968 15)">Apr 12</text><text opacity="0" transform="translate(297.261454 15)">Apr 19</text><text transform="translate(316.358939 15)">Apr 26</text></g><path d="m0 0h330" stroke="#888"/></g><path d="m0 0h330v75h-330z"/><path d="m0 75 2.72821219-.99681021 2.7282122-2.38248149 2.72821219.80462641 2.7282122-.33231145 2.72821219.23603657 2.7282122 2.3251587 2.72821219-1.73547061 2.72821219 1.14980648 2.7282122-2.30765923 2.72821219.1412114 2.7282122 1.60446452 2.72821219-.51557141 2.7282122-1.66207163 2.72821219 2.43650405 2.72821219-2.25461563 2.7282122-1.1404461 2.72821219 3.30967187 2.7282122-.87881093 2.72821219 1.23537755 2.7282122-2.22809822 2.72821219.14734933 2.72821219-.83346854 2.7282122 2.5604326 2.72821219-.94117995 2.7282122-7.1130397 2.72821219 2.92144722 2.7282122 3.0741768 2.72821219.7634414 2.72821219-10.32339965 2.7282122-9.15262356 2.72821219 16.47037588 2.7282122-2.14032842 2.72821219 3.7871427 2.7282122-.19871101 2.72821219 1.07887525 2.72821219.2003482 2.7282122-5.55529514 2.72821219-9.34617586 2.7282122 10.10657065 2.72821219 6.81020102 2.7282122-2.22089898 2.72821219-1.21544734 2.72821219 1.54970151 2.7282122 1.00019086 2.72821219.73426607 2.7282122-.50057934 2.72821219-1.65601656 2.7282122 1.27631951 2.72821219-3.0753196 2.72821219 1.71516015 2.7282122 1.68489382 2.72821219-1.00491168 2.7282122-.62773779 2.72821219-8.43499406 2.7282122 5.59659252 2.72821219.95951679 2.72821219.88320133 2.7282122-.17125674 2.72821219-.13875493 2.7282122-6.30108622 2.72821219-1.41122551 2.7282122 8.29827785 2.72821219-2.95748695 2.72821219 1.33738987 2.7282122-27.32654889 2.72821219 10.52928146 2.7282122-7.95020731 2.61453668 6.43668185 2.7282122.95529724 2.72821219-6.67901807 2.7282122-5.90921092 2.72821219 5.0578799 2.72821219-.90018225 2.7282122.1389898 2.72821219-2.25638245 2.7282122-4.12924204 2.72821219 5.65291022 2.7282122 3.6462818 2.72821219-15.38425146 2.72821219 14.45249746 2.7282122-7.41715181 2.72821219-1.30357007 2.7282122 5.18146834 2.72821219-1.34435633 2.7282122 9.25134621 2.72821219-3.74172836 2.72821219.60166185 2.7282122-6.00021122 2.72821219-.9007938 2.7282122 4.51380966 2.72821219 3.36544658 2.7282122-11.50206048 2.72821219 9.18730971 2.72821219.29434275 2.7282122-5.48469066 2.72821219 5.77639541 2.7282122 2.95263984 2.72821219-6.94383336 2.7282122 10.29351861 2.72821219-2.21822819 2.72821219-6.82985428 2.7282122-4.09597967 2.72821219 7.36188791 2.7282122-4.72144012 2.72821219 5.10953221 2.7282122 3.07846615 2.72821219-.90297171 2.72821219-9.52186047 2.7282122-4.96368397 2.72821219 15.63556457 2.7282122 1.60178179 2.72821219-3.1619815 2.7282122 1.2383538 2.72821219-1.8610585 2.72821219-2.77379291 2.7282122 8.17870943 2.72821219 1.41057764 2.7282122-11.43429057 2.72821219.29025853 2.7282122.87852967 2.72821219 1.67480764" stroke="#4c78a8" stroke-width="2"/><path d="m0 0h330v75h-330z"/><path d="m0 75 2.72821219-5.80046404 2.7282122 5.08330971 2.72821219-5.86179304 2.7282122 4.16581996 2.72821219.86705444 2.7282122-2.55036898 2.72821219 1.68796411 2.72821219-.23870556 2.7282122 1.59632169 2.72821219-1.9306529 2.7282122-1.97038126 2.72821219.0209294 2.7282122 2.90092181 2.72821219 1.14540206 2.72821219-.12914491 2.7282122.06031688 2.72821219.42604447 2.7282122-1.10017801 2.72821219-1.43162246 2.7282122-1.36667119 2.72821219 3.15428032 2.72821219.77558575 2.7282122-1.57008395 2.72821219-.93148622 2.7282122-17.32760133 2.72821219 15.64355531 2.7282122-3.40183237 2.72821219 4.17570383 2.72821219-.31927666 2.7282122-2.54301087 2.72821219-3.85918769 2.7282122 8.53017529 2.72821219.37731332 2.7282122.06393816 2.72821219-.39472023 2.72821219.29260148 2.7282122-2.32502364 2.72821219 2.09768592 2.7282122-7.9491256 2.72821219 6.35679646 2.7282122.56028687 2.72821219.78877406 2.72821219-1.98672434 2.7282122.61756193 2.72821219-4.16864956 2.7282122-6.42466356 2.72821219 10.63177158 2.7282122-2.62303834 2.72821219 3.02173656 2.72821219-1.06041763 2.7282122 2.33760344 2.72821219-.17393854 2.7282122-2.14944614 2.72821219-.60820147 2.7282122-9.86733213 2.72821219 8.12260802 2.72821219 4.92555414 2.7282122-.58018641 2.72821219-7.05378942 2.7282122.21213047 2.72821219 2.93951775 2.7282122-1.12460865 2.72821219.20647164 2.72821219 1.48103471 2.7282122-15.6812776 2.72821219-16.31681491 2.7282122 17.55364807 2.61453668-6.08962554 2.7282122 5.43168977 2.72821219-23.59331736 2.7282122 8.99484287 2.72821219-10.28379075 2.72821219 13.35135981 2.7282122-6.48550388 2.72821219-7.22960972 2.7282122 14.06778202 2.72821219-9.65394021 2.7282122-.54647566 2.72821219 9.55071294 2.72821219-9.8916396 2.7282122 8.27691855 2.72821219-5.87734644 2.7282122-.77044982 2.72821219 11.47438834 2.7282122 5.25753624 2.72821219 2.8111113 2.72821219-7.57342164 2.7282122-4.12537 2.72821219 9.02860965 2.7282122-8.49308235 2.72821219-.01479821 2.7282122-5.07835401 2.72821219 21.20387701 2.72821219-17.1564411 2.7282122-5.97565932 2.72821219 11.49351088 2.7282122 7.72268114 2.72821219-2.13896169 2.7282122-4.31027659 2.72821219-1.2936233 2.72821219 10.07912551 2.7282122-16.10147304 2.72821219-2.86899522 2.7282122 12.15070417 2.72821219 2.45573565 2.7282122 1.53036337 2.72821219-1.03388913 2.72821219-2.18634195 2.7282122-3.42144042 2.72821219-4.69803747 2.7282122 10.51814459 2.72821219 6.94943146 2.7282122-7.13296143 2.72821219-.84622194 2.72821219 2.98302104 2.7282122 10.41541389 2.72821219-12.26836671 2.7282122-.01427353 2.72821219-12.43645079 2.7282122 7.72731917 2.72821219-11.19757339" stroke="#f58518" stroke-width="2"/><path d="m0 0h330v75h-330z"/><path d="m0 68.38624339 2.72821219 1.32275132 2.7282122.41771094 2.72821219-7.20400034 2.7282122 4.33735661 2.72821219-8.40211196 2.7282122 6.68578526 2.72821219 1.83008619 2.72821219-2.83407246 2.7282122 4.24134558 2.72821219 3.19410208 2.7282122-1.22689729 2.72821219-.35235089 2.7282122 3.79024949 2.72821219-.92230903 2.72821219-.99433887 2.7282122-.11952722 2.72821219.7456001 2.7282122.87163548 2.72821219-.69627073 2.7282122.35371304 2.72821219-.66484406 2.72821219-1.62503907 2.7282122 1.70255268 2.72821219-6.56337373 2.7282122 6.89851811 2.72821219-5.3426867 2.7282122 3.93392613 2.72821219-1.21215263 2.72821219 1.23833181 2.7282122-2.76670919 2.72821219 4.847598 2.7282122-2.19087516 2.72821219-7.31413095 2.7282122 3.42768512 2.72821219 1.82320868 2.72821219 4.54323651 2.7282122-1.51732484 2.72821219-.94077443 2.7282122-.53150383 2.72821219 1.89616885 2.7282122-.54667072 2.72821219-4.18166298 2.72821219 3.78329552 2.7282122 1.87208497 2.72821219-3.34895948 2.7282122-1.11266579 2.72821219 4.32022443 2.7282122.26319946 2.72821219-.4215225 2.72821219-2.73353942 2.7282122.12996368 2.72821219.47331472 2.7282122-2.50652158 2.72821219 2.41187425 2.7282122-2.40174875 2.72821219-17.74659492 2.72821219 16.27200971 2.7282122 1.02578648 2.72821219 3.63316007 2.7282122-.21081944 2.72821219-9.81684894 2.7282122 6.81238878 2.72821219 1.81367406 2.72821219-11.06157381 2.7282122-14.04199673 2.72821219 9.05511432 2.7282122-19.82030977 2.61453668 22.90670723 2.7282122 5.00232968 2.72821219-21.01232434 2.7282122-13.58787206 2.72821219 2.79821164 2.72821219-2.06019874 2.7282122-2.96443197 2.72821219 6.19215808 2.7282122-3.08646157 2.72821219.9148123 2.7282122 14.01702574 2.72821219-11.26227288 2.72821219-7.06046244 2.7282122-10.74788357 2.72821219 27.95792982 2.7282122-3.09620723 2.72821219 3.12814031 2.7282122 1.80244524 2.72821219 8.11994592 2.72821219-5.49786899 2.7282122 5.93682733 2.72821219.41452242 2.7282122-.5799402 2.72821219-.89003313 2.7282122-1.81606212 2.72821219-8.14072617 2.72821219-19.64359268 2.7282122 6.33915542 2.72821219 27.8985729 2.7282122-7.24317577 2.72821219-13.83386672 2.7282122 2.42188665 2.72821219 8.82668684 2.72821219-3.69433936 2.7282122-1.39259152 2.72821219-1.88813834 2.7282122 2.27168646 2.72821219-3.58878658 2.7282122 14.91916071 2.72821219-2.38756547 2.72821219-8.39256976 2.7282122-.73089227 2.72821219 10.37469367 2.7282122 3.74674693 2.72821219-5.95715397 2.7282122-6.76853036 2.72821219-17.46495308 2.72821219 10.81250959 2.7282122-6.94601179 2.72821219 15.82653115 2.7282122 10.62367184 2.72821219-12.50898678 2.7282122 1.89390852 2.72821219-24.14813895" stroke="#e45756" stroke-width="2"/><path d="m38.194971 0v75" stroke="#000"/><path d="m174.60558 0v75" stroke="#000"/><path d="m207.230451 0v75" stroke="#000"/><g fill="#000" font-family="sans-serif"><text font-size="11" transform="translate(45.194971 14)">A</text><text font-size="11" transform="translate(181.60558 14)">B</text><text font-size="11" transform="translate(214.230451 14)">C</text><text font-size="10" pointer-events="none" text-anchor="middle" transform="translate(165 -13)">Pandemic</text></g></g><g transform="translate(359 270)"><path d="m.5.5h330v75h-330z" stroke="#ddd"/><g pointer-events="none" stroke="#ddd" transform="translate(.5 75.5)"><path d="m11-75v75"/><path d="m30-75v75"/><path d="m49-75v75"/><path d="m68-75v75"/><path d="m87-75v75"/><path d="m106-75v75"/><path d="m125-75v75"/><path d="m145-75v75"/><path d="m164-75v75"/><path d="m183-75v75"/><path d="m202-75v75"/><path d="m221-75v75"/><path d="m240-75v75"/><path d="m259-75v75"/><path d="m278-75v75"/><path d="m297-75v75"/><path d="m316-75v75"/></g><g pointer-events="none" stroke="#ddd" transform="translate(.5 .5)"><path d="m0 75h330"/><path d="m0 33h330"/></g><g pointer-events="none" transform="translate(.5 75.5)"><g stroke="#888"><path d="m11 0v5"/><path d="m30 0v5"/><path d="m49 0v5"/><path d="m68 0v5"/><path d="m87 0v5"/><path d="m106 0v5"/><path d="m125 0v5"/><path d="m145 0v5"/><path d="m164 0v5"/><path d="m183 0v5"/><path d="m202 0v5"/><path d="m221 0v5"/><path d="m240 0v5"/><path d="m259 0v5"/><path d="m278 0v5"/><path d="m297 0v5"/><path d="m316 0v5"/></g><g fill="#000" font-family="sans-serif" font-size="10" text-anchor="middle"><text transform="translate(10.912849 15)">Jan 05</text><text opacity="0" transform="translate(30.010334 15)">Jan 12</text><text transform="translate(49.107819 15)">Jan 19</text><text opacity="0" transform="translate(68.205305 15)">Jan 26</text><text transform="translate(87.30279 15)">Feb 02</text><text opacity="0" transform="translate(106.400276 15)">Feb 09</text><text transform="translate(125.497761 15)">Feb 16</text><text opacity="0" transform="translate(144.595246 15)">Feb 23</text><text transform="translate(163.692732 15)">March</text><text opacity="0" transform="translate(182.790217 15)">Mar 08</text><text transform="translate(201.774027 15)">Mar 15</text><text opacity="0" transform="translate(220.871512 15)">Mar 22</text><text transform="translate(239.968998 15)">Mar 29</text><text opacity="0" transform="translate(259.066483 15)">Apr 05</text><text transform="translate(278.163968 15)">Apr 12</text><text opacity="0" transform="translate(297.261454 15)">Apr 19</text><text transform="translate(316.358939 15)">Apr 26</text></g><path d="m0 0h330" stroke="#888"/></g><path d="m0 0h330v75h-330z"/><path d="m0 71.71052632 2.72821219.79744816 2.7282122 1.14030884 2.72821219.06438403 2.7282122.80283653 2.72821219-2.18644405 2.7282122.59625137 2.72821219-1.67156495 2.72821219 2.81480815 2.7282122-1.424267 2.72821219.80676588 2.7282122.55332744 2.72821219-1.01338104 2.7282122 1.09123233 2.72821219.60912601 2.72821219-1.14518449 2.7282122-.32680031 2.72821219-1.29927466 2.7282122-1.31763594 2.72821219 2.95245067 2.7282122-.32796294 2.72821219-1.27109038 2.72821219 2.33912029 2.7282122-.61215623 2.72821219-.94117995 2.7282122.09572616 2.72821219-.4173496 2.7282122.65096701 2.72821219.18745888 2.72821219-2.34341385 2.7282122 1.07291913 2.72821219.20305943 2.7282122-1.29834968 2.72821219 1.05259748 2.7282122.48866449 2.72821219 1.63877677 2.72821219-.72450076 2.7282122-1.16351486 2.72821219-2.14992798 2.7282122 2.76937154 2.72821219-2.18087894 2.7282122 1.72282289 2.72821219.30209338 2.72821219 1.16812231 2.7282122-1.45899401 2.72821219.07386108 2.7282122.53135524 2.72821219.21798472 2.7282122-.4698722 2.72821219 1.13942329 2.72821219-1.57335755 2.7282122-.12623252 2.72821219.6928843 2.7282122-.14028988 2.72821219-.76903024 2.7282122 1.28535311 2.72821219-.03887831 2.72821219-.02298807 2.7282122.90334966 2.72821219-1.14766785 2.7282122-1.06975431 2.72821219-9.07717067 2.7282122 8.544244 2.72821219-2.72807755 2.72821219 1.18881171 2.7282122-9.65219421 2.72821219 7.84860358 2.7282122-1.34085694 2.61453668.16914846 2.7282122-1.45452313 2.72821219-1.40762436 2.7282122-9.05550705 2.72821219 1.36763485 2.72821219-.24082154 2.7282122-3.93297351 2.72821219-3.01990467 2.7282122-7.42135495 2.72821219 12.3987369 2.7282122-.84282953 2.72821219-.31850378 2.72821219 4.3828103 2.7282122-3.80280639 2.72821219 1.20128264 2.7282122-1.14833 2.72821219-4.7467801 2.7282122 6.3631173 2.72821219 5.83014672 2.72821219.4146189 2.7282122-1.07289112 2.72821219-3.85379664 2.7282122.30469141 2.72821219 6.81587094 2.7282122-4.57492441 2.72821219 6.47495686 2.72821219-2.53660459 2.7282122-2.2130534 2.72821219 2.33609807 2.7282122 2.97825997 2.72821219-6.68685685 2.7282122 6.87450626 2.72821219.57159067 2.72821219-3.62016237 2.7282122 1.21750672 2.72821219-2.49893302 2.7282122-5.92185612 2.72821219 5.66505121 2.7282122 3.87335214 2.72821219 2.90662248 2.72821219-3.64120502 2.7282122-9.41065593 2.72821219 9.88772189 2.7282122-1.2594047 2.72821219.3670871 2.7282122.13281161 2.72821219-3.58401726 2.72821219-2.69517249 2.7282122 6.03758503 2.72821219.95068831 2.7282122-9.19775452 2.72821219 4.72739273 2.7282122-9.29787303 2.72821219 9.3470823" stroke="#4c78a8" stroke-width="2"/><path d="m0 0h330v75h-330z"/><path d="m0 75h2.72821219l2.7282122-2.86861733 2.72821219 1.40662903 2.7282122.6576125 2.72821219-.74169717 2.7282122.37566098 2.72821219.36758604 2.72821219-1.31492077 2.7282122.54145416 2.72821219-1.40522205 2.7282122.15185983 2.72821219 1.59691316 2.7282122-2.31983654 2.72821219.89865035 2.72821219.11945903 2.7282122-.32594312 2.72821219 1.80555958 2.7282122-.57275185 2.72821219.40391352 2.7282122-.04085159 2.72821219-1.27869275 2.72821219-.43295549 2.7282122.91007478 2.72821219 1.46659532 2.7282122-5.3286639 2.72821219 1.24653634 2.7282122 2.4770624 2.72821219.2506973 2.72821219.14229404 2.7282122-1.26570762 2.72821219 1.66006826 2.7282122 1.41723356 2.72821219-.86088154 2.7282122-1.3495517 2.72821219.15788808 2.72821219-.14738444 2.7282122-1.43115246 2.72821219 2.96865493 2.7282122-1.9872814 2.72821219 1.93378642 2.7282122-1.69953683 2.72821219-.26120059 2.72821219-1.96234182 2.7282122 1.03928933 2.72821219-.63757612 2.7282122 1.19592561 2.72821219-.51989103 2.7282122 1.2421441 2.72821219-.05280705 2.72821219-.91261802 2.7282122-.95754692 2.72821219 3.55564543 2.7282122-.51606518 2.72821219-1.20597664 2.7282122-1.26259411 2.72821219-1.4845336 2.72821219 2.42872946 2.7282122.51056403 2.72821219-1.68688856 2.7282122.28001221 2.72821219-.65972887 2.7282122-1.05407571 2.72821219 3.82915222 2.72821219-1.26993701 2.7282122-4.01800883 2.72821219-7.51036504 2.7282122 7.16329451 2.61453668 1.00412172 2.7282122.6819222 2.72821219-9.42413916 2.7282122-3.76706627 2.72821219-2.81345539 2.72821219 1.19442588 2.7282122-6.55092835 2.72821219-4.49087471 2.7282122 3.3446454 2.72821219 6.55707305 2.7282122 5.26508273 2.72821219-6.17433414 2.72821219 7.55260465 2.7282122-3.3521625 2.72821219-6.35331631 2.7282122-6.23551668 2.72821219 11.1887719 2.7282122 1.21774145 2.72821219 1.55719024 2.72821219 4.22855892 2.7282122 1.06759119 2.72821219-6.26918835 2.7282122 3.11649606 2.72821219.34890895 2.7282122-2.9531302 2.72821219 11.62769885 2.72821219-10.12047719 2.7282122 3.76920123 2.72821219.3513379 2.7282122 4.20287606 2.72821219-.38976435 2.7282122-2.50334352 2.72821219-6.81902745 2.72821219 7.02113062 2.7282122-1.42484825 2.72821219 1.18080832 2.7282122-1.39552934 2.72821219 4.47335397 2.7282122-6.14706837 2.72821219 4.12413426 2.72821219.65043469 2.7282122-1.85933362 2.72821219.48963812 2.7282122 4.59742028 2.72821219-.08055953 2.7282122-4.18015919 2.72821219-.09172336 2.72821219 2.33230985 2.7282122 3.74368984 2.72821219-4.12943925 2.7282122-6.74691959 2.72821219.02177447 2.7282122 1.05059485 2.72821219-28.83493265" stroke="#f58518" stroke-width="2"/><path d="m0 0h330v75h-330z"/><path d="m0 68.38624339 2.72821219 1.32275132 2.7282122 4.0726817 2.72821219-.29133825 2.7282122-1.07031752 2.72821219-3.47328941 2.7282122 1.32513638 2.72821219 1.95497654 2.72821219 1.02978068 2.7282122.96601199 2.72821219-3.00364105 2.7282122 2.71807906 2.72821219 1.06292517h2.7282122l2.72821219-2.60416667 2.72821219-.6723733 2.7282122 2.70654453 2.72821219-1.53438166 2.7282122.87163548 2.72821219-.69627073 2.7282122-1.22158626 2.72821219-.20961644 2.72821219-.50496739 2.7282122-2.62270683 2.72821219 4.3063884 2.7282122-5.12844065 2.72821219.93645522 2.7282122 4.75536332 2.72821219.13532345 2.72821219-.44324053 2.7282122-.63543535 2.72821219-3.08441438 2.7282122 5.64588979 2.72821219-5.80046404 2.7282122 4.4901915 2.72821219-.84304357 2.72821219-.36684518 2.7282122-1.0159066 2.72821219-.86146949 2.7282122 1.33381189 2.72821219-.80325053 2.7282122 3.04025644 2.72821219-.38452073 2.72821219-1.66728588 2.7282122.86564374 2.72821219-6.69791894 2.7282122 8.71080139 2.72821219-3.44352617 2.7282122.78959836 2.72821219-4.52998024 2.72821219-.31840035 2.7282122 5.26817078 2.72821219-.34318197 2.7282122.59633702 2.72821219-2.87424342 2.7282122-.16485433 2.72821219-1.35514737 2.72821219 3.82893139 2.7282122 1.21679194 2.72821219-1.4189565 2.7282122-.21081944 2.72821219.07434789 2.7282122-1.09089456 2.72821219 1.07078049 2.72821219-4.3700858 2.7282122-3.39849201 2.72821219 4.32551718 2.7282122-4.00970833 2.61453668 5.46863682 2.7282122-7.6691278 2.72821219-9.52310679 2.7282122 6.17293772 2.72821219-1.92036762 2.72821219-10.26514405 2.7282122 1.50426098 2.72821219-2.50510141 2.7282122-4.95084599 2.72821219 10.39315064 2.7282122 7.73491994 2.72821219-7.50525771 2.72821219-.99716371 2.7282122-5.0447565 2.72821219 4.42347567 2.7282122 2.99688984 2.72821219-2.48365215 2.7282122.16483389 2.72821219 10.37571484 2.72821219-3.54755131 2.7282122 6.21120767 2.72821219-4.77055813 2.7282122 2.85334765 2.72821219-.89320267 2.7282122 1.88937766 2.72821219-7.4170833 2.72821219-3.9949174 2.7282122-1.54635337 2.72821219 16.57715416 2.7282122 1.48833913 2.72821219-7.25815608 2.7282122 1.95810387 2.72821219 1.11771342 2.72821219-7.44482912 2.7282122 9.65982779 2.72821219-3.13595575 2.7282122.86801904 2.72821219.18157551 2.7282122 2.08951831 2.72821219-4.21420945 2.72821219.76855688 2.7282122 4.9901578 2.72821219-.04134767 2.7282122 1.22623517 2.72821219-2.95264596 2.7282122.66182864 2.72821219-11.03516055 2.72821219-3.31402541 2.7282122-4.07366255 2.72821219 14.60404652 2.7282122 1.30424665 2.72821219-3.48152803 2.7282122-9.93894386 2.72821219-24.37067859" stroke="#e45756" stroke-width="2"/><path d="m38.194971 0v75" stroke="#000"/><path d="m174.60558 0v75" stroke="#000"/><path d="m207.230451 0v75" stroke="#000"/><g fill="#000" font-family="sans-serif"><text font-size="11" transform="translate(45.194971 14)">A</text><text font-size="11" transform="translate(181.60558 14)">B</text><text font-size="11" transform="translate(214.230451 14)">C</text><text font-size="10" pointer-events="none" text-anchor="middle" transform="translate(165 -13)">Quarantine</text></g></g><g transform="translate(0 405)"><path d="m.5.5h330v75h-330z" stroke="#ddd"/><g pointer-events="none" stroke="#ddd" transform="translate(.5 75.5)"><path d="m11-75v75"/><path d="m30-75v75"/><path d="m49-75v75"/><path d="m68-75v75"/><path d="m87-75v75"/><path d="m106-75v75"/><path d="m125-75v75"/><path d="m145-75v75"/><path d="m164-75v75"/><path d="m183-75v75"/><path d="m202-75v75"/><path d="m221-75v75"/><path d="m240-75v75"/><path d="m259-75v75"/><path d="m278-75v75"/><path d="m297-75v75"/><path d="m316-75v75"/></g><g pointer-events="none" stroke="#ddd" transform="translate(.5 .5)"><path d="m0 75h330"/><path d="m0 33h330"/></g><g pointer-events="none" transform="translate(.5 75.5)"><g stroke="#888"><path d="m11 0v5"/><path d="m30 0v5"/><path d="m49 0v5"/><path d="m68 0v5"/><path d="m87 0v5"/><path d="m106 0v5"/><path d="m125 0v5"/><path d="m145 0v5"/><path d="m164 0v5"/><path d="m183 0v5"/><path d="m202 0v5"/><path d="m221 0v5"/><path d="m240 0v5"/><path d="m259 0v5"/><path d="m278 0v5"/><path d="m297 0v5"/><path d="m316 0v5"/></g><g fill="#000" font-family="sans-serif" font-size="10" text-anchor="middle"><text transform="translate(10.912849 15)">Jan 05</text><text opacity="0" transform="translate(30.010334 15)">Jan 12</text><text transform="translate(49.107819 15)">Jan 19</text><text opacity="0" transform="translate(68.205305 15)">Jan 26</text><text transform="translate(87.30279 15)">Feb 02</text><text opacity="0" transform="translate(106.400276 15)">Feb 09</text><text transform="translate(125.497761 15)">Feb 16</text><text opacity="0" transform="translate(144.595246 15)">Feb 23</text><text transform="translate(163.692732 15)">March</text><text opacity="0" transform="translate(182.790217 15)">Mar 08</text><text transform="translate(201.774027 15)">Mar 15</text><text opacity="0" transform="translate(220.871512 15)">Mar 22</text><text transform="translate(239.968998 15)">Mar 29</text><text opacity="0" transform="translate(259.066483 15)">Apr 05</text><text transform="translate(278.163968 15)">Apr 12</text><text opacity="0" transform="translate(297.261454 15)">Apr 19</text><text transform="translate(316.358939 15)">Apr 26</text></g><path d="m0 0h330" stroke="#888"/></g><path d="m0 0h330v75h-330z"/><path d="m0 75 2.72821219-4.98405104 2.7282122 2.61854685 2.72821219-.63827199 2.7282122-.38769669 2.72821219-1.56884459 2.7282122.81093987 2.72821219.81937426 2.72821219.53566652 2.7282122-1.03369617 2.72821219 1.24645512 2.7282122-.9030896 2.72821219.67206701 2.7282122.67114181 2.72821219.28960679 2.72821219.68879067 2.7282122-2.75431774 2.72821219 1.71744932 2.7282122.55085308 2.72821219-2.6861836 2.7282122-.27466896 2.72821219-2.23938599 2.72821219 3.32421637 2.7282122 2.64698138 2.72821219-4.76777247 2.7282122 2.76238345 2.72821219-.9864627 2.7282122 1.94095669 2.72821219-.68331785 2.72821219.2294326 2.7282122 1.88088957 2.72821219-2.77514553 2.7282122 1.45166981 2.72821219-.61830902 2.7282122-1.72608149 2.72821219.15157555 2.72821219-.52415256 2.7282122-2.33943061 2.72821219 3.15794941 2.7282122 2.07702865 2.72821219-2.72984688 2.7282122-.04646232 2.72821219 1.28743378 2.72821219 1.1629257 2.7282122-1.11030361 2.72821219-4.62337799 2.7282122 2.61281061 2.72821219 2.81934316 2.7282122.74812984 2.72821219-3.84020048 2.72821219 4.00479624 2.7282122-1.17127229 2.72821219-5.66237905 2.7282122 4.52018767 2.72821219-2.15024235 2.7282122 2.97635894 2.72821219-1.15390836 2.72821219-1.52456826 2.7282122.83176196 2.72821219-.86911276 2.7282122 1.95732666 2.72821219-1.789733 2.7282122 1.70774428 2.72821219-9.14564743 2.72821219 8.58677375 2.7282122-23.59341586 2.72821219-45.24441463 2.7282122 18.46099714 2.61453668 26.03530278 2.7282122-20.37685993 2.72821219 32.36744935 2.7282122-6.46704541 2.72821219-20.01366483 2.72821219 15.80877025 2.7282122 5.72249525 2.72821219 6.52635487 2.7282122 2.10943804 2.72821219-6.82388312 2.7282122 1.84318158 2.72821219.18827809 2.72821219 4.93481967 2.7282122.01912599 2.72821219 2.92113877 2.7282122-.5778374 2.72821219 3.58725759 2.7282122-.52697833 2.72821219-.00508503 2.72821219.53410684 2.7282122-1.1328196 2.72821219-2.70566179 2.7282122-.83368037 2.72821219 2.67364656 2.7282122 1.07796869 2.72821219-.17495807 2.72821219.28463394 2.7282122-1.2699714 2.72821219.1616337 2.7282122 1.09628813 2.72821219 2.96536098 2.7282122-.18201842 2.72821219-.81717905 2.72821219-.37035817 2.7282122-5.10765181 2.72821219 3.97396149 2.7282122.32406366 2.72821219 2.75580028 2.7282122-2.0894375 2.72821219.56848973 2.72821219-1.20557364 2.7282122-.56890246 2.72821219 1.78702399 2.7282122 1.06979373 2.72821219.23116375 2.7282122.30890149 2.72821219-.77598906 2.72821219-.13677798 2.7282122 1.32325346 2.72821219-1.69598635 2.7282122-.53117731 2.72821219-.43389039 2.7282122.9175193 2.72821219 4.03736897" stroke="#4c78a8" stroke-width="2"/><path d="m0 0h330v75h-330z"/><path d="m0 72.0657277 2.72821219 1.96752829 2.7282122-3.33618198 2.72821219-.08303892 2.7282122-4.46216894 2.72821219 4.20991493 2.7282122 1.71218896 2.72821219-2.69375167 2.72821219 5.61978163 2.7282122-3.15258512 2.72821219 1.66182782 2.7282122.07592991 2.72821219-4.7488807 2.7282122 2.10361877 2.72821219.9638402 2.72821219-.45200717 2.7282122 1.64131502 2.72821219-.73018953 2.7282122 1.00952663 2.72821219-2.65531311 2.7282122 1.12156169 2.72821219 1.46586559 2.72821219-1.28070048 2.7282122-4.5995671 2.72821219 3.97863528 2.7282122-1.48417851 2.72821219.98485886 2.7282122-1.04759097 2.72821219.74778439 2.72821219 2.58465433 2.7282122-.03478689 2.72821219-.27946925 2.7282122-1.02276427 2.72821219 1.42685152 2.7282122 1.16915478 2.72821219-2.52620942 2.72821219-.00108371 2.7282122 1.71824567 2.72821219-1.9504799 2.7282122-2.64970853 2.72821219 5.24592209 2.7282122-4.7188605 2.72821219 2.75812308 2.72821219.14629516 2.7282122.73050836 2.72821219-.31878806 2.7282122-1.93650597 2.72821219-3.06735708 2.7282122 5.57643415 2.72821219-2.01180179 2.72821219.74255944 2.7282122-1.89810851 2.72821219-1.46450039 2.7282122 2.57042061 2.72821219.59690631 2.7282122-1.27231998 2.72821219-.40399686 2.72821219 1.96003805 2.7282122-1.26248561 2.72821219-.88963908 2.7282122-.55578183 2.72821219 2.37555598 2.7282122-4.18383528 2.72821219-1.30136913 2.72821219 2.06294956 2.7282122-4.98640843 2.72821219-38.15657361 2.7282122-1.32791743 2.61453668 23.71174252 2.7282122-5.11046852 2.72821219 17.86175858 2.7282122-14.06543018 2.72821219 9.97228274 2.72821219-36.25775216 2.7282122 41.85470145 2.72821219-4.90522561 2.7282122 6.27487125 2.72821219-14.42576579 2.7282122 18.64322707 2.72821219-1.9235943 2.72821219-8.72258552 2.7282122-4.68911175 2.72821219 9.29287095 2.7282122-2.34196806 2.72821219 6.35009344 2.7282122 3.33331428 2.72821219-1.34105563 2.72821219-5.38484914 2.7282122 5.31459572 2.72821219.96421082 2.7282122 2.10376682 2.72821219-9.80595269 2.7282122 5.07439273 2.72821219 2.20664192 2.72821219-9.73949888 2.7282122 6.2272614 2.72821219 6.02834054 2.7282122-4.85942001 2.72821219 4.94544563 2.7282122 1.79946486 2.72821219-2.43392353 2.72821219-.03110135 2.7282122-2.27884017 2.72821219 1.42066001 2.7282122-1.21536577 2.72821219-5.80324202 2.7282122 9.66534715 2.72821219-.3156702 2.72821219-.26441762 2.7282122-.82637049 2.72821219 2.54992405 2.7282122-1.32022801 2.72821219-3.1251982 2.7282122 2.69093807 2.72821219-1.26519057 2.72821219-.69028586 2.7282122-2.70677411 2.72821219 5.59866223 2.7282122 1.00583788 2.72821219-.72581582 2.7282122-3.2982918 2.72821219-1.52726397" stroke="#f58518" stroke-width="2"/><path d="m0 0h330v75h-330z"/><path d="m0 75 2.72821219-3.96825397 2.7282122 1.5316068 2.72821219-8.13098568 2.7282122 4.11768445 2.72821219.39667963 2.7282122 2.50716948 2.72821219.07965448 2.72821219-6.12211865 2.7282122 3.36965799 2.72821219.16929869 2.7282122 3.92375644 2.72821219-2.47820123 2.7282122-.27876093 2.72821219 1.41059028 2.72821219-2.53476773 2.7282122 2.58701731 2.72821219-.78878157 2.7282122.51052936 2.72821219.80470633 2.7282122-2.62002905 2.72821219-9.04738433 2.72821219 6.05753054 2.7282122 3.45726526 2.72821219-.0440326 2.7282122-7.70222896 2.72821219 10.4023403 2.7282122-.03712711 2.72821219-1.27981434 2.72821219.49693204 2.7282122-4.47435946 2.72821219.90935848 2.7282122 3.45501463 2.72821219-7.31413095 2.7282122 8.013639 2.72821219-.07110006 2.72821219-.66856992 2.7282122-.17585284 2.72821219 1.3372992 2.7282122.66690594 2.72821219-2.33511327 2.7282122-2.74678059 2.72821219 5.4025163 2.72821219-.94765434 2.7282122-1.86687025 2.72821219-.3296358 2.7282122 1.0745608 2.72821219-1.31052833 2.7282122 1.05279781 2.72821219-1.03300743 2.72821219.53187333 2.7282122-3.22124275 2.72821219.38809504 2.7282122-.39075052 2.72821219 5.05668185 2.7282122-1.90041754 2.72821219-2.72326265 2.72821219 4.05282331 2.7282122-.14713181 2.72821219 1.82552525 2.7282122-6.59474445 2.72821219-.13640204 2.7282122 3.85470386 2.72821219-1.41925935 2.72821219-3.86417294 2.7282122.56223206 2.72821219 2.34892009 2.7282122-3.53889854 2.61453668-.97783572 2.7282122-3.48750883 2.72821219-.04857146 2.7282122 6.27744481 2.72821219 2.84085667 2.72821219-7.48737398 2.7282122-1.09060779 2.72821219 4.16232609 2.7282122.00835338 2.72821219 1.80574817 2.7282122-1.47912157 2.72821219.77491362 2.72821219 2.48337615 2.7282122-7.06748418 2.72821219 4.13696778 2.7282122-1.57845528 2.72821219 2.23096736 2.7282122.90792737 2.72821219-3.01555606 2.72821219 4.36728129 2.7282122-.05329442 2.72821219-1.74282455 2.7282122 1.72607171 2.72821219 1.48197988 2.7282122-1.75115982 2.72821219-4.83259569 2.72821219 4.04548597 2.7282122-.06737842 2.72821219 3.39611959 2.7282122-2.02717871 2.72821219 2.68867988 2.7282122-.78283615 2.72821219-1.18237184 2.72821219-1.59894929 2.7282122-21.35883915 2.72821219 14.99977464 2.7282122 3.36050712 2.72821219 3.36555551 2.7282122-1.12833989 2.72821219 4.57807861 2.72821219-5.64664048 2.7282122-.41541049 2.72821219.62583027 2.7282122.10976022 2.72821219 1.12750084 2.7282122 1.01771368 2.72821219 1.47760151 2.72821219 1.57244199 2.7282122-2.62494913 2.72821219 1.60230166 2.7282122.6917126 2.72821219-1.04158973 2.7282122-3.5215286 2.72821219 2.87748933" stroke="#e45756" stroke-width="2"/><path d="m38.194971 0v75" stroke="#000"/><path d="m174.60558 0v75" stroke="#000"/><path d="m207.230451 0v75" stroke="#000"/><g fill="#000" font-family="sans-serif"><text font-size="11" transform="translate(45.194971 14)">A</text><text font-size="11" transform="translate(181.60558 14)">B</text><text font-size="11" transform="translate(214.230451 14)">C</text><text font-size="10" pointer-events="none" text-anchor="middle" transform="translate(165 -13)">Shortages</text></g></g><g transform="translate(359 405)"><path d="m.5.5h330v75h-330z" stroke="#ddd"/><g pointer-events="none" stroke="#ddd" transform="translate(.5 75.5)"><path d="m11-75v75"/><path d="m30-75v75"/><path d="m49-75v75"/><path d="m68-75v75"/><path d="m87-75v75"/><path d="m106-75v75"/><path d="m125-75v75"/><path d="m145-75v75"/><path d="m164-75v75"/><path d="m183-75v75"/><path d="m202-75v75"/><path d="m221-75v75"/><path d="m240-75v75"/><path d="m259-75v75"/><path d="m278-75v75"/><path d="m297-75v75"/><path d="m316-75v75"/></g><g pointer-events="none" stroke="#ddd" transform="translate(.5 .5)"><path d="m0 75h330"/><path d="m0 33h330"/></g><g pointer-events="none" transform="translate(.5 75.5)"><g stroke="#888"><path d="m11 0v5"/><path d="m30 0v5"/><path d="m49 0v5"/><path d="m68 0v5"/><path d="m87 0v5"/><path d="m106 0v5"/><path d="m125 0v5"/><path d="m145 0v5"/><path d="m164 0v5"/><path d="m183 0v5"/><path d="m202 0v5"/><path d="m221 0v5"/><path d="m240 0v5"/><path d="m259 0v5"/><path d="m278 0v5"/><path d="m297 0v5"/><path d="m316 0v5"/></g><g fill="#000" font-family="sans-serif" font-size="10" text-anchor="middle"><text transform="translate(10.912849 15)">Jan 05</text><text opacity="0" transform="translate(30.010334 15)">Jan 12</text><text transform="translate(49.107819 15)">Jan 19</text><text opacity="0" transform="translate(68.205305 15)">Jan 26</text><text transform="translate(87.30279 15)">Feb 02</text><text opacity="0" transform="translate(106.400276 15)">Feb 09</text><text transform="translate(125.497761 15)">Feb 16</text><text opacity="0" transform="translate(144.595246 15)">Feb 23</text><text transform="translate(163.692732 15)">March</text><text opacity="0" transform="translate(182.790217 15)">Mar 08</text><text transform="translate(201.774027 15)">Mar 15</text><text opacity="0" transform="translate(220.871512 15)">Mar 22</text><text transform="translate(239.968998 15)">Mar 29</text><text opacity="0" transform="translate(259.066483 15)">Apr 05</text><text transform="translate(278.163968 15)">Apr 12</text><text opacity="0" transform="translate(297.261454 15)">Apr 19</text><text transform="translate(316.358939 15)">Apr 26</text></g><path d="m0 0h330" stroke="#888"/></g><path d="m0 0h330v75h-330z"/><path d="m0 72.80701754 2.72821219.69776715 2.7282122-1.54614722 2.72821219-1.67885717 2.7282122 1.81324296 2.72821219 1.38072521 2.7282122-1.58578167 2.72821219.6145307 2.72821219-.29683431 2.7282122-.15030394 2.72821219 1.39569403 2.7282122-3.42914966 2.72821219.55829567 2.7282122-2.31049787 2.72821219 3.02659488 2.72821219 1.95911193 2.7282122-11.07592105 2.72821219 4.02079441 2.7282122 5.50156538 2.72821219-2.00049822 2.7282122-.37510762 2.72821219 1.10754882 2.72821219 1.04111135 2.7282122-1.30454654 2.72821219.87752239 2.7282122-1.09401325 2.72821219 2.03616018 2.7282122 2.04546975 2.72821219-2.51860076 2.72821219-2.64434405 2.7282122-2.9086936 2.72821219 3.41816705 2.7282122-4.87855405 2.72821219 8.66368701 2.7282122-.41247234 2.72821219-1.7729818 2.72821219.71469778 2.7282122.1754728 2.72821219 1.05927676 2.7282122.97091549 2.72821219-2.84113975 2.7282122 2.61211172 2.72821219-1.02487052 2.72821219-.01558981 2.7282122.16516913 2.72821219-.36658994 2.7282122 1.04072769 2.72821219-2.11089283 2.7282122 1.3496329 2.72821219-1.54380272 2.72821219-1.06878077 2.7282122 2.68564872 2.72821219-3.39100333 2.7282122 3.76975567 2.72821219-.00202821 2.7282122-1.00941492 2.72821219.30169572 2.72821219.70481397 2.7282122-.34884168 2.72821219-3.37349543 2.7282122 3.76107847 2.72821219-2.51403749 2.7282122 1.12022927 2.72821219-.13006881 2.72821219.38645236 2.7282122-8.81957622 2.72821219 6.48649109 2.7282122-1.10532373 2.61453668-1.57586415 2.7282122 1.44152315 2.72821219-.46259407 2.7282122-11.18209758 2.72821219 4.0251107 2.72821219.56572263 2.7282122 2.01765363 2.72821219.48818412 2.7282122.7060095 2.72821219-.88309769 2.7282122 2.37741273 2.72821219-2.35178652 2.72821219 2.33895001 2.7282122-1.9014032 2.72821219-4.74566111 2.7282122-3.07662042 2.72821219 8.51510683 2.7282122-5.04490237 2.72821219 8.10179535 2.72821219.38675246 2.7282122-7.87237712 2.72821219 5.91715899 2.7282122-1.16486668 2.72821219 3.56857114 2.7282122-17.74717995 2.72821219 16.2565207 2.72821219.89960426 2.7282122-1.84802922 2.72821219-1.71769291 2.7282122.9865328 2.72821219 1.87891962 2.7282122.07893523 2.72821219 3.68480379 2.72821219-4.34277494 2.7282122-1.49896383 2.72821219 3.37088503 2.7282122-3.14185607 2.72821219 2.42631528 2.7282122.27358548 2.72821219 1.01057637 2.72821219-2.25577317 2.7282122 1.32646272 2.72821219-.30440288 2.7282122 1.01937445 2.72821219-1.64589532 2.7282122 2.2200148 2.72821219-.38141835 2.72821219 1.50671181 2.7282122.30863055 2.72821219 1.31091569 2.7282122-2.85158347 2.72821219 2.91276777 2.7282122-4.51686602 2.72821219 1.14880341" stroke="#4c78a8" stroke-width="2"/><path d="m0 0h330v75h-330z"/><path d="m0 75h2.72821219l2.7282122-3.58577166 2.72821219 2.85477751 2.7282122-16.96527355 2.72821219 13.05804878 2.7282122 2.88260094 2.72821219-1.45568581 2.72821219-.49475297 2.7282122.55347164 2.72821219.17107051 2.7282122-1.97038126 2.72821219-3.06092464 2.7282122 3.95273119 2.72821219 2.29080411 2.72821219-3.8065461 2.7282122-.14499249 2.72821219 4.13854532 2.7282122-1.67292985 2.72821219-1.02770895 2.7282122 3.65064616 2.72821219-2.75870887 2.72821219.41478951 2.7282122.22136954 2.72821219-.84230136 2.7282122-3.17794545 2.72821219 3.26383179 2.7282122 1.30665042 2.72821219-2.19166299 2.72821219.77306012 2.7282122 1.77680732 2.72821219.42914753 2.7282122.36769536 2.72821219-3.25486951 2.7282122.98875784 2.72821219 1.776241 2.72821219-1.10050665 2.7282122-2.35282232 2.72821219 3.00545644h2.7282122l2.72821219-.87640703 2.7282122.44822949 2.72821219-1.59953035 2.72821219 2.7498071 2.7282122-.53467382 2.72821219.38742663 2.7282122-3.65650817 2.72821219-2.05356957 2.7282122 4.80339766 2.72821219-.84344588 2.72821219 1.28567846 2.7282122-.47983504 2.72821219-3.8212123 2.7282122 1.96917001 2.72821219-4.8230377 2.7282122 5.36071996 2.72821219 1.7963063 2.72821219-.85211044 2.7282122-1.70574802 2.72821219 1.01732356 2.7282122-.20788786 2.72821219-3.7189555 2.7282122 3.91121985 2.72821219-2.60043903 2.72821219.01284457 2.7282122-.35253143 2.72821219-7.9351017 2.7282122 9.54424689 2.61453668-2.91151452 2.7282122 2.21660606 2.72821219-14.9065953 2.7282122 2.58951575 2.72821219-3.94930656 2.72821219 9.80140629 2.7282122-3.03981491 2.72821219-6.93104742 2.7282122 3.60836695 2.72821219 2.39445791 2.7282122-5.29661017 2.72821219 6.21468927 2.72821219-7.99412786 2.7282122 1.29779175 2.72821219 8.2272273 2.7282122-.33324446 2.72821219 3.04030296 2.7282122-.32139804 2.72821219 3.61472357 2.72821219-.69265694 2.7282122-7.60363368 2.72821219 6.10953329 2.7282122.74172958 2.72821219-.18185357 2.7282122-15.39747429 2.72821219 21.21325246 2.72821219-6.36769972 2.7282122.94625217 2.72821219 2.44083316 2.7282122-1.13900428 2.72821219 4.46083713 2.7282122-1.9010325 2.72821219-3.93860662 2.72821219 6.0057629 2.7282122-7.6985365 2.72821219 3.08117172 2.7282122-.99680668 2.72821219 3.71156841 2.7282122-3.864833 2.72821219.32778474 2.72821219 2.13139096 2.7282122-2.08325336 2.72821219-2.35963122 2.7282122 2.19135702 2.72821219 6.48610762 2.7282122-.10886488 2.72821219-1.1444708 2.72821219-1.15350401 2.7282122-1.85796798 2.72821219 1.70699577 2.7282122.93536232 2.72821219-2.71293823 2.7282122 1.40496712 2.72821219-.2267863" stroke="#f58518" stroke-width="2"/><path d="m0 0h330v75h-330z"/><path d="m0 68.38624339 2.72821219 1.32275132 2.7282122 4.0726817 2.72821219-.29133825 2.7282122-1.07031752 2.72821219 1.57110123 2.7282122-.76417152 2.72821219.38647172 2.72821219-1.22848483 2.7282122-2.04911634 2.72821219 1.63937571 2.7282122-1.22689729 2.72821219-.35235089 2.7282122-1.09256301 2.72821219 4.82855902 2.72821219-1.86239442 2.7282122-.11952722 2.72821219.7456001 2.7282122 2.1043771 2.72821219-.96450617 2.7282122-1.39844279 2.72821219-.43723025 2.72821219 1.25410624 2.7282122-2.77918655 2.72821219-.76490918 2.7282122-.39228744 2.72821219.70234142 2.7282122.73480728 2.72821219 3.30390768 2.72821219-1.1846403 2.7282122-2.34308562 2.72821219 3.13994772 2.7282122-3.85090172 2.72821219 2.07984766 2.7282122-.37544932 2.72821219 2.19902329 2.72821219-.60344948 2.7282122-.67727107 2.72821219-.94077443 2.7282122-1.29743521 2.72821219 4.59558824 2.7282122-4.96031746 2.72821219 3.74907715 2.72821219-.22802279 2.7282122-1.58006057 2.72821219.11572321 2.7282122-1.47085273 2.72821219-1.36475709 2.7282122 3.96992507 2.72821219-.18996244 2.72821219-4.96596011 2.7282122 4.69107014 2.72821219-1.2022885 2.7282122 2.7760986 2.72821219-.66382502 2.7282122-1.41407309 2.72821219-1.36013503 2.72821219 1.78354585 2.7282122.18760783 2.72821219-.62125388 2.7282122-1.98638762 2.72821219-.21074994 2.7282122 2.95768493 2.72821219.32788693 2.72821219-2.30822741 2.7282122-3.93813439 2.72821219 5.02088513 2.7282122-8.4139318 2.61453668 8.03998262 2.7282122.1198758 2.72821219-7.42109927 2.7282122-2.9784522 2.72821219-4.61987879 2.72821219-1.90812681 2.7282122 2.52922918 2.72821219 1.7333068 2.7282122-1.48012889 2.72821219 3.42769295 2.7282122.74841941 2.72821219-3.02713426 2.72821219-5.23177288 2.7282122 5.76851971 2.72821219-.40678107 2.7282122 4.84749838 2.72821219.29141897 2.7282122 1.1769429 2.72821219 6.73102427 2.72821219-.93778404 2.7282122-1.25052796 2.72821219.80427132 2.7282122-.56907204 2.72821219.20058572 2.7282122-2.77156799 2.72821219 1.62623283 2.72821219-9.40575489 2.7282122 8.35194615 2.72821219 4.81939387 2.7282122-2.9647372 2.72821219-2.54947652 2.7282122 1.69742876 2.72821219 1.11868817 2.72821219-4.16671569 2.7282122 2.45234568 2.72821219-2.91255382 2.7282122.6279411 2.72821219 4.91428782 2.7282122.33432293 2.72821219-1.1854419 2.72821219-1.33237342 2.7282122-8.0497555 2.72821219 10.30782273 2.7282122-3.063353 2.72821219 4.7433826 2.7282122-3.2436738 2.72821219-6.19914253 2.72821219 6.33205331 2.7282122-2.26180625 2.72821219-1.42390275 2.7282122 5.06137877 2.72821219-.09231917 2.7282122.93472673 2.72821219-10.73365628" stroke="#e45756" stroke-width="2"/><path d="m38.194971 0v75" stroke="#000"/><path d="m174.60558 0v75" stroke="#000"/><path d="m207.230451 0v75" stroke="#000"/><g fill="#000" font-family="sans-serif"><text font-size="11" transform="translate(45.194971 14)">A</text><text font-size="11" transform="translate(181.60558 14)">B</text><text font-size="11" transform="translate(214.230451 14)">C</text><text font-size="10" pointer-events="none" text-anchor="middle" transform="translate(165 -13)">Symptoms</text></g></g><g pointer-events="none" transform="translate(710)"><path d="m0 0h62v53h-62z"/><g transform="translate(0 16)"><path d="m0 0h61.5859375v11h-61.5859375z"/><path d="m-5 0h10" stroke="#4c78a8" stroke-width="1.5" transform="translate(6 6)"/><text fill="#000" font-family="sans-serif" font-size="10" transform="translate(16 9)">Calgary</text><g transform="translate(0 13)"><path d="m0 0h61.5859375v11h-61.5859375z"/><path d="m-5 0h10" stroke="#f58518" stroke-width="1.5" transform="translate(6 6)"/><text fill="#000" font-family="sans-serif" font-size="10" transform="translate(16 9)">Edmonton</text></g><g transform="translate(0 26)"><path d="m0 0h61.5859375v11h-61.5859375z"/><path d="m-5 0h10" stroke="#e45756" stroke-width="1.5" transform="translate(6 6)"/><text fill="#000" font-family="sans-serif" font-size="10" transform="translate(16 9)">alberta</text></g></g><text fill="#000" font-family="sans-serif" font-size="11" font-weight="bold" transform="translate(0 9)">Subreddit</text></g><text fill="#000" font-family="sans-serif" font-size="13" font-weight="bold" pointer-events="none" transform="translate(-41.901367 -29)">Topic Discussion Frequency Across Alberta Subreddits</text></g></svg>